<svg height="230pt" viewBox="0 0 230 230" width="230pt" xmlns="http://www.w3.org/2000/svg"><g stroke-width=".09375"><path d="m0 0h59.74c2.42 1.58 5.1 3.63 5.25 6.79-3.83 2.51-11.2 4.07-9.13 9.98-4.08-.28-9.52 1.42-10.91-3.72-1.38-3.7-6.36-1.14-8.82.12.2 2.88 6.68.32 7.98 3.67-2.7 3.39-10.47 1.16-10.98 4.96 7.54.7 15.52 3.66 22.74.29 3.45 2.91 8.06 2.85 12.16 4.33-3.72 2-4.99 7.69-10.58 5.09-3.25-4.36-10.87-3.92-12.63 1.29 9.53-.72 16.29 5.55 26.03 6.4-1.89-2.27-1.89-4.84-.18-7.2-1.01-2.07-3.02-5.22.34-6.23 3.92 2 2.04 10.57 9 7.17 6.8-.87 13.5.19 20.19 1.38-1.19.76-2.33 1.59-3.43 2.46-1.21.62-2.28 1.87-1.75 3.32.08.64.24 1.94.33 2.58-.15 1.82-.33 3.64-.45 5.46-8.65 1.94-17.66 1.52-26.42 1.62-.83-4.9-8.5-3.25-11.56-1.24-6.27 2.89-12.75.66-19-.76-.95-1.76-1.93-3.57-2.02-5.62 7.75-1.16 16.04 4.62 22.5-1.67 3.26.43 9.24 5.62 11.71.67-11-5.6-26.32 3.56-35.84-5.32-3.59-.15-5.48-3.38-8.43-4.64-4.11-1.48.71 5-1.73 5.94-2.82 1.97-3.47-2.7-5.38-4-6.25 2.06-12.56-.64-18.73-2.33z" fill="#cdc3b4" stroke="#cdc3b4"/><path d="m59.74 0h170.26v39.88c-15.71 2.19-31.59 1.8-47.35.72-6.03 1.22.4-4.92 3.44-4.56 2.68-1.69 12.61.94 8.68-3.9-6.96.23-13.92 1.01-20.9.99.27 2.38 2.74 4.12 2.07 6.66-6.51 1.4-12.89 3.47-18.86 6.19-6.58-4.76-15.6-6.51-23.2-2.89 1.22 1.97 2.95 3.53 4.37 5.34-2.56-.55-4.42 1.11-6.29 2.57-1.71-2.8.91-6.78-1.77-9.08-1.05-1.42-2.01-2.9-3.03-4.33-1-1.56-2.17-3.06-3.89-3.87-5.23-3.08-13.96-8.91-18.61-3.08-1.12 1.67-2.3 3.39-4.46 3.68-6.69-1.19-13.39-2.25-20.19-1.38-6.96 3.4-5.08-5.17-9-7.17-3.36 1.01-1.35 4.16-.34 6.23-1.71 2.36-1.71 4.93.18 7.2-9.74-.85-16.5-7.12-26.03-6.4 1.76-5.21 9.38-5.65 12.63-1.29 5.59 2.6 6.86-3.09 10.58-5.09-4.1-1.48-8.71-1.42-12.16-4.33-7.22 3.37-15.2.41-22.74-.29.51-3.8 8.28-1.57 10.98-4.96-1.3-3.35-7.78-.79-7.98-3.67 2.46-1.26 7.44-3.82 8.82-.12 1.39 5.14 6.83 3.44 10.91 3.72-2.07-5.91 5.3-7.47 9.13-9.98-.15-3.16-2.83-5.21-5.25-6.79z" fill="#d1c8bd" stroke="#d1c8bd"/><path d="m104.66 30.64c4.65-5.83 13.38 0 18.61 3.08 1.18 3.13-.1 3.87-2.93 2.71-2.25-2.56-4.5-5.26-7.52-6.94-2.65.88-5.37 1.38-8.16 1.15z" fill="#72685c" stroke="#72685c"/><path d="m104.66 30.64c2.79.23 5.51-.27 8.16-1.15 3.02 1.68 5.27 4.38 7.52 6.94-1.86.13-3.72.03-5.57-.05 3.36 1.86 10.95 8.06 12.39 1.21 1.02 1.43 1.98 2.91 3.03 4.33-.15 4.01-.45 8.03-1.09 12-2.1 2.3-6.75 13.54-4.98 2.13.77-4.03-.56-11.83-6.23-11.11 2.49 3.55 1.58 4.91-2.8 4.25-3.14.49-1.13-2.57-1.05-4.27-2.08-2.27-6.13-2.34-8.28-.15-.49.31-1.48.93-1.97 1.24-7.6-1.49-4.08 8.66-5.35 13.23-.81-2.69-1.96-5.26-2.69-7.97-.07-2.87.16-5.76-.4-8.59-.09-.64-.25-1.94-.33-2.58 1.55-.3 2.24-1.9 1.75-3.32 1.1-.87 2.24-1.7 3.43-2.46 2.16-.29 3.34-2.01 4.46-3.68z" fill="#1a150f" stroke="#1a150f"/><path d="m0 30.79c6.17 1.69 12.48 4.39 18.73 2.33 1.91 1.3 2.56 5.97 5.38 4 2.44-.94-2.38-7.42 1.73-5.94 2.95 1.26 4.84 4.49 8.43 4.64 9.52 8.88 24.84-.28 35.84 5.32-2.47 4.95-8.45-.24-11.71-.67-6.46 6.29-14.75.51-22.5 1.67.09 2.05 1.07 3.86 2.02 5.62-1.65 1.7-5.97 4.52 2.98 2.5 5.14 1.37 10.55 1.53 15.79.53 1.17-.54 1.24-1.3.23-2.27 3.06-2.01 10.73-3.66 11.56 1.24 8.76-.1 17.77.32 26.42-1.62.26 1.05.54 2.09.85 3.13.73 2.71 1.88 5.28 2.69 7.97 1.19 4.51 2.94 8.87 5.23 12.94.15.43.44 1.28.59 1.71-1.38 1.65-2.82 3.25-4.24 4.86l-.78.43c-12.58-4.86-26.65-.63-39.81-1.73-8.32-1.24-16.84-1.27-25.22-.53-1.55-.99-4.44-5.16-3.69-1-7.49.56-15.15 1.38-22.61.16-2.64-.1-5.27-.15-7.91-.14z" fill="#c8bdae" stroke="#c8bdae"/><path d="m173.87 33.13c6.98.02 13.94-.76 20.9-.99 3.93 4.84-6 2.21-8.68 3.9-3.04-.36-9.47 5.78-3.44 4.56 15.76 1.08 31.64 1.47 47.35-.72v27.36c-25.53 2.8-51.69-1.36-76.77 3.54-3.31-2.54-7.19-4.1-11.14-5.34-3.28 2.13-7.26 2.5-11.07 1.78-1.46 5.44 10.17-1.66 8.43 3.95 8.35-5.47 15.75 6.43 24.51 1.67 7.56-3.11 15.1 6.52 21.85-.04 3.79-.43 8.41 2.91 11.89-1.13 3.85-4.69 6.77 3.6 11.13 2.04 5.13-1.32 10.13 1.92 15.3.72.34 3.03-1.37 3.88-5.13 2.56-16.19-.02-31.88 2.88-47.97 2.56-8.6-2.1-17.78-4.15-26.38-.91-3.55.5.03 4.41.41 6.4-6.55.1-9.59-8.78-16.95-7.05-5.38-.76-3.99-6.22-4.33-10.34 2.92-4.28 6.09-8.12 5.32-13.73.64-3.97.94-7.99 1.09-12 2.68 2.3.06 6.28 1.77 9.08 1.87-1.46 3.73-3.12 6.29-2.57-1.42-1.81-3.15-3.37-4.37-5.34 7.6-3.62 16.62-1.87 23.2 2.89 5.97-2.72 12.35-4.79 18.86-6.19.67-2.54-1.8-4.28-2.07-6.66m-6.81 16.74c4.5-.35 9.97 2.57 13.72-.02-1.52-1.88-12.09-1.31-13.72.02m13.72-.02c.07.52.21 1.56.27 2.08 9.54-1.17 21.86 3 30.07-1.98-10.07 1.7-20.22-.1-30.34-.1z" fill="#c8beb1" stroke="#c8beb1"/><path d="m123.27 33.72c1.72.81 2.89 2.31 3.89 3.87-1.44 6.85-9.03.65-12.39-1.21 1.85.08 3.71.18 5.57.05 2.83 1.16 4.11.42 2.93-2.71z" fill="#413d37" stroke="#413d37"/><path d="m95.02 40.1c-.53-1.45.54-2.7 1.75-3.32.49 1.42-.2 3.02-1.75 3.32z" fill="#706556" stroke="#706556"/><path d="m95.35 42.68c.56 2.83.33 5.72.4 8.59-.31-1.04-.59-2.08-.85-3.13.12-1.82.3-3.64.45-5.46z" fill="#584f45" stroke="#584f45"/><path d="m105.76 44.77c2.15-2.19 6.2-2.12 8.28.15-2.76-.05-5.52-.09-8.28-.15z" fill="#5b4a39" stroke="#5b4a39"/><path d="m103.79 46.01c.49-.31 1.48-.93 1.97-1.24 2.76.06 5.52.1 8.28.15-.08 1.7-2.09 4.76 1.05 4.27-1.85.7-3.3 1.98-4.31 3.67-.36.27-1.06.82-1.41 1.09-.47-2.03-2.22-2.77-4.06-3.21 2.89-1.73.09-3.26-1.52-4.73z" fill="#9f856e" stroke="#9f856e"/><path d="m117.89 44.94c5.67-.72 7 7.08 6.23 11.11-1.77 11.41 2.88.17 4.98-2.13.77 5.61-2.4 9.45-5.32 13.73l-.6.52c.57-3.67-4.5-2.1-4.3.77-1.11 5.37-7.8 6.46-12.07 4.34 11.93.83 5.34-.97.91-3.82 3.69.93 5.3-2.06 7.16-4.2-3.35-.33-6.83-1.85-8.22-5.13 2.17-.57 4.42-.71 6.66-.9 2.01 3.94 5.04 4.29 7.41.39 3.37-5.25-4.16-3.51-2.2-7.75-3.5-.95-3.28 3.49-6.45 3.37-.33-.59-.98-1.79-1.3-2.38 1.01-1.69 2.46-2.97 4.31-3.67 4.38.66 5.29-.7 2.8-4.25z" fill="#564539" stroke="#564539"/><path d="m98.44 59.24c1.27-4.57-2.25-14.72 5.35-13.23 1.61 1.47 4.41 3 1.52 4.73 1.84.44 3.59 1.18 4.06 3.21-.46.31-1.39.95-1.86 1.26-.69-4.04-5.07-1.32-7.43-.45-2.52 5.24 2.5 7.69 3.31 12.08 1.51-.73 2.95-1.67 4.63-2-.87 2.37-1.98 4.67-2.31 7.2-1.1-1.55-2.19-2.77-2.04.14-2.29-4.07-4.04-8.43-5.23-12.94z" fill="#5d4630" stroke="#5d4630"/><path d="m40.9 50.26c-8.95 2.02-4.63-.8-2.98-2.5 6.25 1.42 12.73 3.65 19 .76 1.01.97.94 1.73-.23 2.27-5.24 1-10.65.84-15.79-.53z" fill="#a99c89" stroke="#a99c89"/><path d="m167.06 49.87c1.63-1.33 12.2-1.9 13.72-.02-3.75 2.59-9.22-.33-13.72.02z" fill="#a69a8e" stroke="#a69a8e"/><path d="m180.78 49.85c10.12 0 20.27 1.8 30.34.1-8.21 4.98-20.53.81-30.07 1.98-.06-.52-.2-1.56-.27-2.08z" fill="#a69a8c" stroke="#a69a8c"/><path d="m112.08 55.24c3.17.12 2.95-4.32 6.45-3.37-1.96 4.24 5.57 2.5 2.2 7.75-2.37 3.9-5.4 3.55-7.41-.39-.24-1.38-.75-2.69-1.24-3.99m1.78.83c1.22 2.37 3.46 3.54 6.12 2.94 1.46-4.37-3.47-2.86-6.12-2.94z" fill="#8f7760" stroke="#8f7760"/><path d="m100.08 54.76c2.36-.87 6.74-3.59 7.43.45-2 2.97-7.96-1.09-6.47 3.69.19 3.19 3.67 1.55 5.62 1.23 1.39 3.28 4.87 4.8 8.22 5.13-1.86 2.14-3.47 5.13-7.16 4.2 4.43 2.85 11.02 4.65-.91 3.82-.27-.31-.82-.93-1.1-1.24.33-2.53 1.44-4.83 2.31-7.2-1.68.33-3.12 1.27-4.63 2-.81-4.39-5.83-6.84-3.31-12.08z" fill="#9f856d" stroke="#9f856d"/><path d="m109.37 53.95c.35-.27 1.05-.82 1.41-1.09.32.59.97 1.79 1.3 2.38.49 1.3 1 2.61 1.24 3.99-2.24.19-4.49.33-6.66.9-1.95.32-5.43 1.96-5.62-1.23-1.49-4.78 4.47-.72 6.47-3.69.47-.31 1.4-.95 1.86-1.26z" fill="#d0b089" stroke="#d0b089"/><path d="m113.86 56.07c2.65.08 7.58-1.43 6.12 2.94-2.66.6-4.9-.57-6.12-2.94z" fill="#c5a98b" stroke="#c5a98b"/><path d="m131.02 67.22c3.81.72 7.79.35 11.07-1.78 3.95 1.24 7.83 2.8 11.14 5.34 25.08-4.9 51.24-.74 76.77-3.54v34.72c-4.54-2.5-7.81 4.79-12.63.68-3.7-1.19 3.17-4.29 3.53-6.45-4.51-4.96-12.17-.2-17.83-1.22-3.75-.38 1.01-7.88-3.7-5.75-2.11 6.23-9.32 4.62-14.02 7.18-9.17.48-18.43-.49-27.6.83 4.07 1.71 8.52 2.54 12.27 4.98.15 3.35-3.39 5.4-3.43.83-2.7.47-5.11 1.91-7.8 2.46-1.91-3.68-3.25-7.63-4.68-11.51-.59-1.25-.75-3.2-2.46-3.38-5.9-.88-11.4-3.41-17.12-5.01-.41-3.82-4.24-4.97-6.91-6.97l.49-.64c7.36-1.73 10.4 7.15 16.95 7.05-.38-1.99-3.96-5.9-.41-6.4 8.6-3.24 17.78-1.19 26.38.91 16.09.32 31.78-2.58 47.97-2.56 3.76 1.32 5.47.47 5.13-2.56-5.17 1.2-10.17-2.04-15.3-.72-4.36 1.56-7.28-6.73-11.13-2.04-3.48 4.04-8.1.7-11.89 1.13-6.75 6.56-14.29-3.07-21.85.04-8.76 4.76-16.16-7.14-24.51-1.67 1.74-5.61-9.89 1.49-8.43-3.95z" fill="#bbb0a1" stroke="#bbb0a1"/><path d="m118.88 68.94c-.2-2.87 4.87-4.44 4.3-.77-.11.66-.33 2-.44 2.66-1.97 8.65-13.69 10.24-18.48 3.06-.15-.43-.44-1.28-.59-1.71-.15-2.91.94-1.69 2.04-.14.28.31.83.93 1.1 1.24 4.27 2.12 10.96 1.03 12.07-4.34z" fill="#281c12" stroke="#281c12"/><path d="m123.18 68.17.6-.52c.34 4.12-1.05 9.58 4.33 10.34l-.49.64-.46.6c-.71.91-1.31 1.89-1.92 2.87-.92-3.74-2-7.44-2.5-11.27.11-.66.33-2 .44-2.66z" fill="#7a756f" stroke="#7a756f"/><path d="m104.26 73.89c4.79 7.18 16.51 5.59 18.48-3.06.5 3.83 1.58 7.53 2.5 11.27-1.5 2.49-3.17 4.87-5.01 7.12-5.15 2.4-.47-5.39-.4-8-2.29-3.51-7.02-2.3-10.59-2.04-2.67 2.4 2.22 5.92 1.15 9.2-3.99-2.27-5.32-6.81-7.24-10.69-.16 5.51-.28 11.02-.37 16.53-1.63-4.83 1.44-11.78-2.76-15.47 1.42-1.61 2.86-3.21 4.24-4.86z" fill="#473c33" stroke="#473c33"/><path d="m30.52 75.92c-.75-4.16 2.14.01 3.69 1 8.38-.74 16.9-.71 25.22.53 13.16 1.1 27.23-3.13 39.81 1.73-4.14 2.4-8.44 4.55-13.02 5.98-4.18 1.1-10.76.51-12.32 5.51-.41.99-.82 1.97-1.23 2.96-2.61 3.06-3.22 7.12-4.57 10.78-4.77-.14-12.75-6.67-4.07-6.7-.3-4.94-5.15-1.55-7.15.29-4.68-1.35-11.19-6.23-15.19-1.34-4.25 3.01-10.06 2.04-14.71.59-6.42-1.54-13.59.54-19.69-2.48.88-4.88-2.58-8.94-3.25-13.54 1.83-2.03 4.78.08 7.12-.23-.44-1.99-1.96-3.43-3.25-4.92 7.46 1.22 15.12.4 22.61-.16z" fill="#c0b4a4" stroke="#c0b4a4"/><path d="m0 75.94c2.64-.01 5.27.04 7.91.14 1.29 1.49 2.81 2.93 3.25 4.92-2.34.31-5.29-1.8-7.12.23.67 4.6 4.13 8.66 3.25 13.54 6.1 3.02 13.27.94 19.69 2.48 4.65 1.45 10.46 2.42 14.71-.59 4-4.89 10.51-.01 15.19 1.34 2-1.84 6.85-5.23 7.15-.29-8.68.03-.7 6.56 4.07 6.7-2.24 5.8-4.49 11.61-6.01 17.65-13.3-1.24-26.93-.18-40.37-.43-7.24-.29-14.47-.79-21.72-.65z" fill="#baac9a" stroke="#baac9a"/><path d="m103.15 77.69c1.92 3.88 3.25 8.42 7.24 10.69.03 1.48-.2 2.94-.34 4.41-4.55 4.42-8.25 7.73-6.25 15.33l-.87-.46c.06-1.59.12-3.18.11-4.76-.03-2.91-.1-5.79-.26-8.68.09-5.51.21-11.02.37-16.53z" fill="#b1aca7" stroke="#b1aca7"/><path d="m99.24 79.18.78-.43c4.2 3.69 1.13 10.64 2.76 15.47.16 2.89.23 5.77.26 8.68-2.73-2.03-3.98 1.05-5.35 2.94-3.72-.99-4.18-6.63-7.27-8.97-.43 1.78-.73 3.61-1.49 5.29-5.03-3.31.13-9.98 3.9-12.19-.66-1.82-1.39-3.64-2.53-5.21-2.52 4.14-3.83 9.37-8 12.27-1.77-1.92-2.3-5.7-5.4-5.82 1.13-3.83 6.45-3.83 9.32-6.05 4.58-1.43 8.88-3.58 13.02-5.98z" fill="#362b20" stroke="#362b20"/><path d="m109.24 79.18c3.57-.26 8.3-1.47 10.59 2.04-.07 2.61-4.75 10.4.4 8 5.12 4.11-3.21 5.02-6.4 4.89-1.27-.42-2.52-.89-3.78-1.32.14-1.47.37-2.93.34-4.41 1.07-3.28-3.82-6.8-1.15-9.2z" fill="#695e58" stroke="#695e58"/><path d="m125.24 82.1c.61-.98 1.21-1.96 1.92-2.87-.16 2.48-.32 4.97-.49 7.46-5.13.21-4.09 5.24.43 5.54l.15 1.01c-.51 1.49-.96 3-1.31 4.54-4.18-.45-13.75 3.52-12.11-3.67 3.19.13 11.52-.78 6.4-4.89 1.84-2.25 3.51-4.63 5.01-7.12z" fill="#93a0aa" stroke="#93a0aa"/><path d="m127.16 79.23.46-.6c.82 2.43 1.55 4.9 2.49 7.28-.64 2.55-1.14 5.25-2.86 7.33l-.15-1.01c-.23-1.84-.46-3.69-.43-5.54.17-2.49.33-4.98.49-7.46z" fill="#1a1d1e" stroke="#1a1d1e"/><path d="m127.62 78.63c2.67 2 6.5 3.15 6.91 6.97 5.72 1.6 11.22 4.13 17.12 5.01 1.71.18 1.87 2.13 2.46 3.38-1.03-.53-2.09-1.01-3.16-1.46-4.93.52-9.24-1.62-13.73-3.41-2.6 3.48-5.06-1.65-7.11-3.21-.94-2.38-1.67-4.85-2.49-7.28z" fill="#8a847f" stroke="#8a847f"/><path d="m73.9 90.67c1.56-5 8.14-4.41 12.32-5.51-2.87 2.22-8.19 2.22-9.32 6.05-1-.22-1.99-.42-3-.54z" fill="#76695d" stroke="#76695d"/><path d="m90.3 84.76c1.14 1.57 1.87 3.39 2.53 5.21-3.77 2.21-8.93 8.88-3.9 12.19.76-1.68 1.06-3.51 1.49-5.29 3.09 2.34 3.55 7.98 7.27 8.97 1.37-1.89 2.62-4.97 5.35-2.94.01 1.58-.05 3.17-.11 4.76-2.15 2.09-2.41 6.81-5.69 7.34-.89-1.54-2.66-4.63-3.55-6.17-4.11 4.42-.43 13.16-6.69 16.42-6.58-8.83-8.23-20.37-8.15-31.13-1.55-.12-4.63-.37-6.18-.49.41-.99.82-1.97 1.23-2.96 1.01.12 2 .32 3 .54 3.1.12 3.63 3.9 5.4 5.82 4.17-2.9 5.48-8.13 8-12.27z" fill="#231e19" stroke="#231e19"/><path d="m130.11 85.91c2.05 1.56 4.51 6.69 7.11 3.21 4.49 1.79 8.8 3.93 13.73 3.41-3.13 1.16-3.45 6.38-7.35 5.1-5.25-3.02-5.65 4.66-10.51 3.64.91 1.25 1.91 2.44 2.84 3.67-.3 4.94-1.14 10.35-4.55 14.17-1.56-4.76-2.9-9.59-4.09-14.46-.2 5.21-.57 10.4-1.11 15.58-.13-1.49-.25-2.98-.38-4.47.17-5.99.18-11.99.14-17.98.35-1.54.8-3.05 1.31-4.54 1.72-2.08 2.22-4.78 2.86-7.33z" fill="#4f463d" stroke="#4f463d"/><path d="m127.1 92.23c-4.52-.3-5.56-5.33-.43-5.54-.03 1.85.2 3.7.43 5.54z" fill="#45525c" stroke="#45525c"/><path d="m199.37 89.22c4.71-2.13-.05 5.37 3.7 5.75 5.66 1.02 13.32-3.74 17.83 1.22-.36 2.16-7.23 5.26-3.53 6.45 4.82 4.11 8.09-3.18 12.63-.68v17.86c-8.92 2.73-18.03 3.79-27.82 3.44-6.61 4.09-16.05 1.3-21.33 7.62-2.61 1.6-6 .13-8.85 1.22.33 3.34 4.89 3.93 6.25 6.91-2.15 2.72-6.34 2.52-9.23 4.28-.26-.3-.78-.91-1.04-1.21.64-10.2-3.78-19.78-6.82-29.32-.71-1.85-1.53-3.66-2.32-5.48-.01-.44-.04-1.33-.05-1.78 2.69-.55 5.1-1.99 7.8-2.46.04 4.57 3.58 2.52 3.43-.83-3.75-2.44-8.2-3.27-12.27-4.98 9.17-1.32 18.43-.35 27.6-.83 4.7-2.56 11.91-.95 14.02-7.18z" fill="#b3a796" stroke="#b3a796"/><path d="m103.8 108.12c-2-7.6 1.7-10.91 6.25-15.33 1.26.43 2.51.9 3.78 1.32-1.64 7.19 7.93 3.22 12.11 3.67.04 5.99.03 11.99-.14 17.98-.36 3.09-.61 6.21-1.01 9.31-5.36-1.38-1.35-9.66-5.69-12.21-1.5 8.7-1.7 17.79 3.57 25.46.71 2.97 3.07 7.5.06 9.57-4.34 1.22-6.38-7.84-10.71-3.85 1.5 5.11 6.7 8.13 8.82 12.46-3.87 1.38-7.09 3.94-10.48 6.18-.28 3.27.86 6.34 1.56 9.46-8.29-5.51-6.87-16.6-6.97-25.14-.56-11.39 1.26-22.99-.61-34.28-.2-1.53-.37-3.07-.54-4.6z" fill="#cdcac6" stroke="#cdcac6"/><path d="m143.6 97.63c3.9 1.28 4.22-3.94 7.35-5.1-1.06 3.54 2.12 4.16 3.08 6.64-5.52 4.6-5-11.26-6.06 1.82 1.67 5.13-3.84 11.4-.33 15.83-10.02.19-1.38 12.66-6.54 16.32-2.18-4.72 1.78-10.49-2.42-14.37 1.03-4.77 2.01-9.68 1.16-14.56-1.17-2.2-2.83-.56-3.91.73-.93-1.23-1.93-2.42-2.84-3.67 4.86 1.02 5.26-6.66 10.51-3.64z" fill="#242220" stroke="#242220"/><path d="m150.95 92.53c1.07.45 2.13.93 3.16 1.46 1.43 3.88 2.77 7.83 4.68 11.51.01.45.04 1.34.05 1.78-3.18-1.53-4.04-4.98-4.81-8.11-.96-2.48-4.14-3.1-3.08-6.64z" fill="#4b4842" stroke="#4b4842"/><path d="m68.1 104.41c1.35-3.66 1.96-7.72 4.57-10.78 1.55.12 4.63.37 6.18.49-.08 10.76 1.57 22.3 8.15 31.13 6.26-3.26 2.58-12 6.69-16.42.89 1.54 2.66 4.63 3.55 6.17 3.28-.53 3.54-5.25 5.69-7.34.01 2.06.03 4.11-.01 6.17-1.47 2.41-3.11 4.71-4.47 7.18.98 18.31-3.3 36.46-4.69 54.71-4.86 4.41-9.87-5.71-15.73-1.94-2.81-.31-3.51-4.17-3.97-6.56 3.1-2.92 11.4-3.73 8.36-9.59-1.16-4.93-7.05-1.58-8.19 1.6-.93 3.79-5.2-.69-5.19-2.88 5.38-1.14 11.82-3.09 9.01-10.47.92 2.65.1 6.13 1.89 8.45.05-5.81 1.09-12.01-1.59-17.44 3.64-8.55-.66-18.01-.53-26.96-2.12-.05-2.18 2.43-3.07 3.82-1.17-1.26-2.21-3.34-4.28-2.59-3.42 8.17-3.9 17.34-10.58 23.88.66-4.34 1.45-8.66 2.2-12.98 1.52-6.04 3.77-11.85 6.01-17.65z" fill="#151412" stroke="#151412"/><path d="m147.97 100.99c1.06-13.08.54 2.78 6.06-1.82.77 3.13 1.63 6.58 4.81 8.11.79 1.82 1.61 3.63 2.32 5.48-1.71 7.6 7.86 16.15.8 22.32 1.89 2.43 4 4.68 6.02 7 .26.3.78.91 1.04 1.21-.24 4.63-1.24 9.15-2.57 13.56-1.15 4.67-1.38 10.02-6.06 12.6-.88 6.85-2.54 13.48-5.01 19.93-3.03-3.27-4.84-8.23-9.4-9.63 2.08 3.24 4.67 6.12 6.66 9.41-.61 6-2.52 11.75-3.68 17.64-1.35 7.74-3.88 15.28-4.13 23.2h-18.79c-3.81-8.87 5.41-22.19-3.37-28.15.4-.18 1.22-.53 1.62-.7 4.65-3.05 2.06-11.29 3.7-16.08.01-.47.02-1.41.02-1.87-.02-1.34-.05-2.68-.12-4.01.11-8.71.47-17.49-.93-26.12-.22-7.77.79-15.69-.64-23.37-.15-3.17-.29-6.31-.14-9.47.54-5.18.91-10.37 1.11-15.58 1.19 4.87 2.53 9.7 4.09 14.46 3.41-3.82 4.25-9.23 4.55-14.17 1.08-1.29 2.74-2.93 3.91-.73.85 4.88-.13 9.79-1.16 14.56 4.2 3.88.24 9.65 2.42 14.37 5.16-3.66-3.48-16.13 6.54-16.32-3.51-4.43 2-10.7.33-15.83z" fill="#0b0e0e" stroke="#0b0e0e"/><path d="m102.93 107.66.87.46c.17 1.53.34 3.07.54 4.6-.37 8.08-.35 16.17-.34 24.26l-.97.05c-.01-7.73-.04-15.46-.11-23.2.04-2.06.02-4.11.01-6.17z" fill="#55585c" stroke="#55585c"/><path d="m74.75 113.75c.89-1.39.95-3.87 3.07-3.82-.13 8.95 4.17 18.41.53 26.96-1.99 2.57-.9 6.09-.3 8.99 2.81 7.38-3.63 9.33-9.01 10.47-.01 2.19 4.26 6.67 5.19 2.88 1.14-3.18 7.03-6.53 8.19-1.6 3.04 5.86-5.26 6.67-8.36 9.59.46 2.39 1.16 6.25 3.97 6.56 5.86-3.77 10.87 6.35 15.73 1.94 1.39-18.25 5.67-36.4 4.69-54.71 1.36-2.47 3-4.77 4.47-7.18.07 7.74.1 15.47.11 23.2-1.44 14.23-1.61 28.65-4.24 42.73.16 6.33-4.26 17.81 3.15 21.39.47.2 1.42.59 1.9.79-1.57 4.32 1.32 8.99-.64 13.21-1.92 5.09-6.86 9.01-6.43 14.85h-16.53c-2.57-7.81-3.67-15.92-3.45-24.14-.87-5.28-3.08-10.35-2.95-15.77.64-1.69 1.36-3.34 2.01-5.01-3.43 1.36-6.93 1.32-7.55-3-.04-7.33-2.21-13.74-6.32-19.64 2.01-2.73-1.91-5.18-2.51-7.86.2-6.45-3.5-13.63.42-19.54 6.68-6.54 7.16-15.71 10.58-23.88 2.07-.75 3.11 1.33 4.28 2.59m.57 65.59c-2.23-.1-5.39 4.56-1.58 3.42 1.12-.91 5.2-4.89 1.58-3.42z" fill="#0c0c0b" stroke="#0c0c0b"/><path d="m104.34 112.72c1.87 11.29.05 22.89.61 34.28.1 8.54-1.32 19.63 6.97 25.14-.7-3.12-1.84-6.19-1.56-9.46 3.39-2.24 6.61-4.8 10.48-6.18-2.12-4.33-7.32-7.35-8.82-12.46 4.33-3.99 6.37 5.07 10.71 3.85 3.01-2.07.65-6.6-.06-9.57-5.27-7.67-5.07-16.76-3.57-25.46 4.34 2.55.33 10.83 5.69 12.21.4-3.1.65-6.22 1.01-9.31.13 1.49.25 2.98.38 4.47-.15 3.16-.01 6.3.14 9.47-.25 7.74-.56 15.5-.32 23.26.08 1.63.29 3.26.46 4.9-.96 4.84-4.95 3.98-8.41 2.39-2.81 2.96.64 6.69 1.6 9.72-3.58 5.71 1.73 13.66 8.36 13.23 0 .46-.01 1.4-.02 1.87-1.97.73-4 1.3-6.02 1.89-4.13 1.03-7.01 4.57-10.98 6.01-3.46-.98-5.73-4.04-7.2-7.14.07-.66.21-1.97.28-2.63.87-8.8-.45-17.63-.33-26.43.24-6.6.34-13.19.26-19.79-.01-8.09-.03-16.18.34-24.26z" fill="#b6babc" stroke="#b6babc"/><path d="m161.16 112.76c3.04 9.54 7.46 19.12 6.82 29.32-2.02-2.32-4.13-4.57-6.02-7 7.06-6.17-2.51-14.72-.8-22.32z" fill="#4d4943" stroke="#4d4943"/><path d="m202.18 123.26c9.79.35 18.9-.71 27.82-3.44v26.72c-7.82 5.78-18.93 3.36-28.11 4.49 4.24-1.27 4.52-6.49 7.27-8.77 9.44-3.39-12.6-2.98-5.28 4.42-9.47 3.17-19.54 5.24-29.55 4.71-1.79.46-5 .91-4.27 3.48 3.24.96 6.61.39 9.93.26 1.6 7.18-10.58 6.28-13.54 1.72 1.33-4.41 2.33-8.93 2.57-13.56 2.89-1.76 7.08-1.56 9.23-4.28-1.36-2.98-5.92-3.57-6.25-6.91 2.85-1.09 6.24.38 8.85-1.22 5.28-6.32 14.72-3.53 21.33-7.62z" fill="#a79986" stroke="#a79986"/><path d="m0 120.98c7.25-.14 14.48.36 21.72.65 1.86.17 3.73.37 5.58.65-6.65 4.18-14.5-3.35-20.99 1.06-3.54 4.62 4.7 9.39 1.37 14.24 2.93 2.56 3.77 6.65 6.67 9.24 7.73 3.42 4.08-2.4 5.72-5.84 3.92 1.72 6.99 8.9 11.74 5.96 6.03.79 12.62.15 18.45 2.84 4.78 4.94-13.24 1.72-6.5 6.5 1.87 1.17 3.74 5.8 6.4 3.94 3.83-2.88 7.9 1.49 11.82 2.22 4.11 5.9 6.28 12.31 6.32 19.64-10.96 1.69-22.42-1.91-32.9 2.27-9.33-2.36-19.09.39-28.61-1.23-1.88-2.43 1.52-5.19 1.22-7.94-1.9-.71-3.91-1.04-5.91-1.38 4.85-2.43 4.81-13.32-2.1-12.06v-2.95c2.87-.23 8.97 3.31 8.99-1.62-2.96-.69-5.99-.96-8.99-1.33z" fill="#a49683" stroke="#a49683"/><path d="m21.72 121.63c13.44.25 27.07-.81 40.37.43-.75 4.32-1.54 8.64-2.2 12.98-3.92 5.91-.22 13.09-.42 19.54.6 2.68 4.52 5.13 2.51 7.86-3.92-.73-7.99-5.1-11.82-2.22-2.66 1.86-4.53-2.77-6.4-3.94-6.74-4.78 11.28-1.56 6.5-6.5-5.83-2.69-12.42-2.05-18.45-2.84-4.75 2.94-7.82-4.24-11.74-5.96-1.64 3.44 2.01 9.26-5.72 5.84-2.9-2.59-3.74-6.68-6.67-9.24 3.33-4.85-4.91-9.62-1.37-14.24 6.49-4.41 14.34 3.12 20.99-1.06-1.85-.28-3.72-.48-5.58-.65z" fill="#b0a392" stroke="#b0a392"/><path d="m126.32 129.7c1.43 7.68.42 15.6.64 23.37l-.96-.11c-.24-7.76.07-15.52.32-23.26z" fill="#656666" stroke="#656666"/><path d="m78.35 136.89c2.68 5.43 1.64 11.63 1.59 17.44-1.79-2.32-.97-5.8-1.89-8.45-.6-2.9-1.69-6.42.3-8.99z" fill="#736e62" stroke="#736e62"/><path d="m103.03 137.03.97-.05c.08 6.6-.02 13.19-.26 19.79-.56 8.73-2.08 17.84.33 26.43-.07.66-.21 1.97-.28 2.63-1.07 5.56.69 11.05 1.92 16.42l-.97-.11-.9-.2c-.48-.2-1.43-.59-1.9-.79-3.45-6.65-2.96-14.13-3.15-21.39 2.63-14.08 2.8-28.5 4.24-42.73z" fill="#687a86" stroke="#687a86"/><path d="m203.88 146.68c-7.32-7.4 14.72-7.81 5.28-4.42-2.75 2.28-3.03 7.5-7.27 8.77 9.18-1.13 20.29 1.29 28.11-4.49v52.57c-3.79-2.7-7.44 2.05-10.76-.07 1.43-2.09 1.26-6.92 4.41-6.65 1.92.9 3.67-2.95.76-2.08-7.92-2.42-15.27 3.43-23.39.71 3-5.1-3.37-2.49-5.44-.35-8.67 1.42-17.49-4.36-25.96-.1-3.24 1.87-3.61-2.23-3.9-4.5-3.16 1.51-7.16 7.8-10.34 3.31 2.47-6.45 4.13-13.08 5.01-19.93 4.68-2.58 4.91-7.93 6.06-12.6 2.96 4.56 15.14 5.46 13.54-1.72-3.32.13-6.69.7-9.93-.26-.73-2.57 2.48-3.02 4.27-3.48 10.01.53 20.08-1.54 29.55-4.71z" fill="#978975" stroke="#978975"/><path d="m126 152.96.96.11c1.4 8.63 1.04 17.41.93 26.12.27-3.8-1.08-6.95-4.06-9.06-5.15-4.64 7.4-6.11 2.63-12.27-.17-1.64-.38-3.27-.46-4.9z" fill="#80919d" stroke="#80919d"/><path d="m0 155.84c3 .37 6.03.64 8.99 1.33-.02 4.93-6.12 1.39-8.99 1.62z" fill="#8d795c" stroke="#8d795c"/><path d="m104.07 183.2c-2.41-8.59-.89-17.7-.33-26.43-.12 8.8 1.2 17.63.33 26.43z" fill="#869aa7" stroke="#869aa7"/><path d="m126.46 157.86c4.77 6.16-7.78 7.63-2.63 12.27 2.98 2.11 4.33 5.26 4.06 9.06.07 1.33.1 2.67.12 4.01-6.63.43-11.94-7.52-8.36-13.23-.96-3.03-4.41-6.76-1.6-9.72 3.46 1.59 7.45 2.45 8.41-2.39z" fill="#a1acb3" stroke="#a1acb3"/><path d="m0 161.74c6.91-1.26 6.95 9.63 2.1 12.06 2 .34 4.01.67 5.91 1.38.3 2.75-3.1 5.51-1.22 7.94 4.19 3.22-1.38 7.23 2.04 10.94-.27 6.09 5.97 7.64 7.84 12.57 12.9.85 25.49.51 38.31.35-1.79 2.56-.48 3.28 3.91 2.17 5.86 1.26-5.4 7.48 2.43 7.58-7.49-2.93-7.45 4.6-10.11 8.44-2.6.89-5.64 1.37-5.64 4.83h-30.99c-1.98-1.92-4.69-2.51-7.27-3.16 4.75-2.75-4-10.59 3.69-8.93-6.42-3.29-1.95-11.63-6.67-16.65 5.81-.66 1.87-12.92-4.33-10.23z" fill="#8f7f6b" stroke="#8f7f6b"/><path d="m75.32 179.34c3.62-1.47-.46 2.51-1.58 3.42-3.81 1.14-.65-3.52 1.58-3.42z" fill="#53524d" stroke="#53524d"/><path d="m101.94 201.15c-7.41-3.58-2.99-15.06-3.15-21.39.19 7.26-.3 14.74 3.15 21.39z" fill="#3b474c" stroke="#3b474c"/><path d="m145.98 179.75c4.56 1.4 6.37 6.36 9.4 9.63 3.18 4.49 7.18-1.8 10.34-3.31.29 2.27.66 6.37 3.9 4.5 8.47-4.26 17.29 1.52 25.96.1 2.07-2.14 8.44-4.75 5.44.35-1.86.08-3.63.63-5.21 1.62 2.87 1.41 9.65-.04 9.08 4.18-5.35 2.22-11.18-.54-16.64-.73-2.01 1.37-.33 2.4 1.13 3.31-3.56.43-7.16.38-10.73.67-5.68-.66-11.97-2.65-17.31.12 2.17 7.65-7.17 8.78-12.38 6.61 1.16-5.89 3.07-11.64 3.68-17.64-1.99-3.29-4.58-6.17-6.66-9.41z" fill="#8d806b" stroke="#8d806b"/><path d="m35.4 184.35c10.48-4.18 21.94-.58 32.9-2.27.62 4.32 4.12 4.36 7.55 3-.65 1.67-1.37 3.32-2.01 5.01-3.31.18-6.7.52-9.66 2.15.67 3.1 1.36 8.84-3.41 8.46-3.99-.66-1.48 3.84-1.68 6.15-1.37.09-2.74.13-4.11.13-12.82.16-25.41.5-38.31-.35-1.87-4.93-8.11-6.48-7.84-12.57-3.42-3.71 2.15-7.72-2.04-10.94 9.52 1.62 19.28-1.13 28.61 1.23z" fill="#958775" stroke="#958775"/><path d="m121.97 186.96c2.02-.59 4.05-1.16 6.02-1.89-1.64 4.79.95 13.03-3.7 16.08-.02-5.13-6.6-9.43-2.32-14.19z" fill="#7c919e" stroke="#7c919e"/><path d="m105.71 202.25c-1.23-5.37-2.99-10.86-1.92-16.42 1.47 3.1 3.74 6.16 7.2 7.14 3.97-1.44 6.85-4.98 10.98-6.01-4.28 4.76 2.3 9.06 2.32 14.19-.4.17-1.22.52-1.62.7-1.77.26-3.52.59-5.28.88-3.89-.34-7.78-.5-11.68-.48z" fill="#95a7b2" stroke="#95a7b2"/><path d="m201.02 191.02c8.12 2.72 15.47-3.13 23.39-.71 2.91-.87 1.16 2.98-.76 2.08-3.15-.27-2.98 4.56-4.41 6.65 3.32 2.12 6.97-2.63 10.76.07v30.89h-24.54c1.52-2.38 6.14-2.39 5.47-5.83-3.86-2.69-6.7 3.83-10.95 1.84-13.41-1.71-26.58 1.44-40.02.8-2.41-.16-4.57.29-4.29 3.19h-10.84c.25-7.92 2.78-15.46 4.13-23.2 5.21 2.17 14.55 1.04 12.38-6.61 5.34-2.77 11.63-.78 17.31-.12 8.79 3.38 19.12 2.49 27.69-.99-5.66-.12-11.3.4-16.96.32-1.46-.91-3.14-1.94-1.13-3.31 5.46.19 11.29 2.95 16.64.73.57-4.22-6.21-2.77-9.08-4.18 1.58-.99 3.35-1.54 5.21-1.62m-26.15 16.04c.34 2.93 3.31 4.93 6.09 5.22-3.04 6.33-11.15 4.72-16.98 5.53-6.19-3.23-4.91 1.41-4.92 4 8.04-3.9 3.07 6.3 8.15 2.41 3.68-5.93 8.78 3.44 13.16-.79 8.25-4.18 23.46 5.11 27.7-6.21-5.03.13-8.85-4.02-14.03-3.3-.71-2.07 4.05.17 2.69-1.85 2.82-.55 9.14 2.97 10.27-2.89-4.57-1.18-9.85-1.37-14.08.92-3.47-6.43-12.37-1.77-18.05-3.04z" fill="#857864" stroke="#857864"/><path d="m64.18 192.24c2.96-1.63 6.35-1.97 9.66-2.15-.13 5.42 2.08 10.49 2.95 15.77-3.01 9.3-11.12-2.48-17.7.99.2-2.31-2.31-6.81 1.68-6.15 4.77.38 4.08-5.36 3.41-8.46z" fill="#907a59" stroke="#907a59"/><path d="m0 191.03c6.2-2.69 10.14 9.57 4.33 10.23 4.72 5.02.25 13.36 6.67 16.65-7.69-1.66 1.06 6.18-3.69 8.93 2.58.65 5.29 1.24 7.27 3.16h-14.58z" fill="#857055" stroke="#857055"/><path d="m178.65 200.07c3.57-.29 7.17-.24 10.73-.67 5.66.08 11.3-.44 16.96-.32-8.57 3.48-18.9 4.37-27.69.99z" fill="#6f604a" stroke="#6f604a"/><path d="m103.84 201.94.9.2c2.35 4.75 1.45 15.15 8.07 14.8 1.88-4.34.85-9.28 1.23-13.87.83-.08 2.51-.26 3.35-.34-1.39 8.99-1.84 18.13-2.46 27.27h-18.16c-.43-5.84 4.51-9.76 6.43-14.85 1.96-4.22-.93-8.89.64-13.21z" fill="#20170b" stroke="#20170b"/><path d="m104.74 202.14.97.11c2.76.3 5.54.66 8.33.82-.38 4.59.65 9.53-1.23 13.87-6.62.35-5.72-10.05-8.07-14.8z" fill="#3f3427" stroke="#3f3427"/><path d="m105.71 202.25c3.9-.02 7.79.14 11.68.48-.84.08-2.52.26-3.35.34-2.79-.16-5.57-.52-8.33-.82z" fill="#6a6d6c" stroke="#6a6d6c"/><path d="m117.39 202.73c1.76-.29 3.51-.62 5.28-.88 8.78 5.96-.44 19.28 3.37 28.15h-11.11c.62-9.14 1.07-18.28 2.46-27.27z" fill="#3a3122" stroke="#3a3122"/><path d="m59.09 206.85c6.58-3.47 14.69 8.31 17.7-.99-.22 8.22.88 16.33 3.45 24.14h-34.67c0-3.46 3.04-3.94 5.64-4.83 2.66-3.84 2.62-11.37 10.11-8.44-7.83-.1 3.43-6.32-2.43-7.58-4.39 1.11-5.7.39-3.91-2.17 1.37 0 2.74-.04 4.11-.13z" fill="#836c4b" stroke="#836c4b"/><path d="m174.87 207.06c5.68 1.27 14.58-3.39 18.05 3.04.8 1.43 2.24 1.91 3.81 1.97 1.36 2.02-3.4-.22-2.69 1.85 5.18-.72 9 3.43 14.03 3.3-4.24 11.32-19.45 2.03-27.7 6.21-4.38 4.23-9.48-5.14-13.16.79-5.08 3.89-.11-6.31-8.15-2.41.01-2.59-1.27-7.23 4.92-4 5.83-.81 13.94.8 16.98-5.53-2.78-.29-5.75-2.29-6.09-5.22z" fill="#7b6d55" stroke="#7b6d55"/><path d="m192.92 210.1c4.23-2.29 9.51-2.1 14.08-.92-1.13 5.86-7.45 2.34-10.27 2.89-1.57-.06-3.01-.54-3.81-1.97z" fill="#5f523c" stroke="#5f523c"/><path d="m199.98 226.01c4.25 1.99 7.09-4.53 10.95-1.84.67 3.44-3.95 3.45-5.47 5.83h-49.79c-.28-2.9 1.88-3.35 4.29-3.19 13.44.64 26.61-2.51 40.02-.8z" fill="#73644e" stroke="#73644e"/></g></svg>