<svg height="230pt" viewBox="0 0 230 230" width="230pt" xmlns="http://www.w3.org/2000/svg"><path d="M0 0h35.48c-.74.86-1.49 1.7-2.26 2.52.79.73 1.7 1.31 2.57 1.94-1.38 3.19-6.02 3.84-8.25 1.15-3.23-.08-6.47 1.33-9.71 1.72 1.99 1.91 4.91 2.21 7.14 3.77-.41 1.32-1.98 1.74-2.92 2.63 1.3.51 4.09.38 3.95 2.31.71 5.31-10.8 4.42-9.02-.95-.21-1.98 3.02-.66 4.23-1.3-3.77-1.11-7.04-3.17-10.21-5.54C7.24 10.8 3.2 8.1 0 5.92z" fill="#cbc1b1"/><path d="M35.48 0h26.29c1.95 2.16 3.05 5.93 7.29 4.06 1.99.13-.22 3.15-.23 4.46-4.93-1.56-8.52 2-12.6 3.91.28 3.78-.46 8.44 2.05 11.37 4.87.35 9.75 1.23 14.63.57 4.12.66 8.23.78 12.2-.58 5.58 2.64 13.1-2.21 17.95 2.05 3.11-2.95 7.54-1.28 10.9.27 1.67 2.64 4.95 1.8 6.81 4.1 2.58 2.47 6.56 2.23 9.45 4.31 5.51-.2 11.01-1.86 16.52-.77 3.43.3 6.9 1.13 10.34.35 5.44-1.8 11.11-.49 16.68-.8 1.99 1.43 4.1 2.67 6.32 3.7 5-.65 9.67-3.77 14.9-2.15.89-4.5-6.49-.95-9.13-1.94 3.19-1.75 5.44-4.7 8.51-6.62 6.73-1.64 13.48 1.79 19.98-.83 5.28.39 10.37-1.55 15.66-1.56v17c-4.85-1.87-10.24.15-15.14 1.17-5.69-.93-11.46.13-17.13-.82-3.39-.19-6.91.8-10.1-.72-2.82-.37-6.96-.21-7.55 3.27 5.78 1.99 12.08 2.44 17.72.27 3.19 4.45-3.83 5.5-7.03 5.69-2.61.15-5.22.24-7.82.27l-.72-.17c-2.09-5.2-9.24-1.99-13.42-2.17.64-3.7 5.55-2.9 7.5-5.54-3.9.52-9.58-.88-12.55 2.61-3.9 4.64-11.22.97-16.38 2.41.14 3.02-1.88 2.89-4.15 2.24.33 4.38-3.88 1.71-6.09.76-2.39-.07-4.69.7-7.02 1.03-.02-4.48.55-9.9-2.83-13.47-1.17-1.52-2.16-3.37-4.07-4.05-1.72-.96-3.49-1.81-5.25-2.68-2.11-1.31-4.45-2.2-6.97-1.97-2.5-.92-5.62-1.81-6.3 1.66-1.08 1.24-1.84 2.87-3.46 3.49-4.2-.17-8.64 1.4-12.62-.61-3.28-.68-6.6 1.78-10 1.04-3.86-2.5-5.84 1.14-7.84 3.34 7-.17 14.02-.64 21 .24 1.99.95.59 3.17.61 4.81.5 1.63 2.62 3.62.39 4.91-4.25.81-8.49-1.32-12.65.15.26.49.79 1.46 1.05 1.94-4.35 1.23-8.95-.44-13.37-.05 4.8-5.16 11.97-7.13 18.84-6.34 3.59.97 3.74-8.01-2.63-2.58-6.48.16-12.94-.21-19.33-1.33-2.76-.18-4.65-3.42-7.58-2.59-2.16.75-4.2 1.79-6.3 2.67-2.91-.12-5.8-.43-8.69-.58-1.3-.38-2.56-.85-3.75-1.47-.47-1.55-.34-3.37-1.58-4.57-2.84-.24-5.72.05-8.54-.38-1.4-1.15-1.96-3.34-3.87-3.75-.45 1.31-.71 2.71-1.55 3.85-5.66-.74-11.37.51-16.91-1.12.71-.92 1.5-1.79 2.36-2.58 5.78-.15 14.2 2.55 17.25-4.05.78 2.83 3 2.43 5.33 2.03 3.56 1.94 7.72 1.8 11.45 3.45 1.6-.09 5.5.11 4.5-2.39-3.24-2.52-6.86-4.87-11.19-4.73-2.9.81-4.88-.85-6.72-2.48-1.16 1.26-2.14 3.91-4.2 2.29-1.96-1.51-3.85-.79-5.7.45-2.11-.92-4.26-1.86-6.04.2-2.37 1.97-5.3-.36-7.66-1.25-2.95-1.99-1.86-5.55-1.42-8.44A65.2 65.2 0 0 0 0 12.72v-6.8C3.2 8.1 7.24 10.8 11 8.25c3.17 2.37 6.44 4.43 10.21 5.54-1.21.64-4.44-.68-4.23 1.3-1.78 5.37 9.73 6.26 9.02.95.14-1.93-2.65-1.8-3.95-2.31.94-.89 2.51-1.31 2.92-2.63-2.23-1.56-5.15-1.86-7.14-3.77 3.24-.39 6.48-1.8 9.71-1.72 2.23 2.69 6.87 2.04 8.25-1.15-.87-.63-1.78-1.21-2.57-1.94.77-.82 1.52-1.66 2.26-2.52m3.87 5.19c-.21 2.88-5.02 2.7-4.17 5.59.97 2.45 2.34-.47 3.83-.62 2.92.58 5.85 1.25 8.66 2.26 3.31 1.86 7.46-1.55 8.38-4.42-3.58.74-7.43 2.52-10.97.92-2.5-.38-3.45-3.77-5.73-3.73m103.99 36.15c-1.91 2.76-4.81.13-7.4.65-.17 2.23 2 3.36 3.32 4.79 2.39 1.11 2.99-3.66 5.43-2.37 2.03 1.31 3.29-.71 4.35-2.17-1.88-.17-3.87-1.68-5.7-.9z" fill="#cfc5b8"/><path d="M61.77 0h84.49c-.16 1.81-3.56 4.74-.92 5.61 6.49.53 12.99 1.25 19.35 2.67 1.71.49 1.86 3.02-.04 3.32-3.96.37-7.9 1.19-11.47 2.97-4.08-2.79-11.85-5.78-14.23.27 5.53-1.4 11.2 4.59 16.18 1.34 7.62.38 15.24 1.23 22.88 1.22 1.17-.07 2.13.76 3.13 1.23-4.29 1.42-8.75 2.2-13.05 3.54.36 5.22 9.38 1.27 12.85 2.33 2.97.64 8-2.31 9.13 1.5-.99 3.38-4.27 2.91-6.99 2.26-5.66.88-12.37 3.27-17.54-.6-4.28.82-8.84 1.81-12.38 4.52-1.29 2.77 2.35 1.61 3.92 1.92-3.44.78-6.91-.05-10.34-.35 1.46-.41 2.94-.75 4.41-1.12-8.56-4.86-19.62-1.07-27.47-7.37 3.14-1.68 12.32 2.75 12.28-3.08-5.03-3.25-11.51-1.26-16.97-.25-2.01.73-2.51-1.42-3.36-2.69-1.27.89-2.36 2.01-3.69 2.81-2.75-1.07-5.41-2.45-8.57-1.6-5.52-.15-10.73-4.36-16.28-2.79 1.61-2.95-.49-4.62-3.15-5.65-2.21 1-4.55 1.43-6.85 2.09.08 2.55 3.13 1.47 4.78 1.37 1.57 1.04 2.39 2.78 3.1 4.46-5.01 1.15-10.87-.59-15.31 2.87 5.01 1.45 10.91-1.98 15.45.99-3.97 1.36-8.08 1.24-12.2.58-4.88.66-9.76-.22-14.63-.57-2.51-2.93-1.77-7.59-2.05-11.37 4.08-1.91 7.67-5.47 12.6-3.91.01-1.31 2.22-4.33.23-4.46-4.24 1.87-5.34-1.9-7.29-4.06z" fill="#d1c8bc"/><path d="M146.26 0H230v11.83c-2.71-.42-5.43-.64-8.13-1.03 1.6-2.96 4.31-5.14 6.11-7.98-4.59.52-8.33 5.14-13.11 3.54-7.61.19-15.28-.53-22.76.8-.13 1.3-.16 2.61-.09 3.93 6.41-1.82 13.06-2.74 19.75-2.89.86.81 1.64 1.71 2.32 2.67-5.4 1.42-11.05 1.42-16.5 2.6-2.6.55-8.87 1.05-7.57 5.37 3.24 1.46 6.63 2.63 9.92 3.98 3.3-2.89 7.39 1 11.09.19 3.74.41 6.89-2.38 10.58-2.52 2.78-.69 5.58.67 8.39.67v2.74c-5.29.01-10.38 1.95-15.66 1.56-6.5 2.62-13.25-.81-19.98.83-3.07 1.92-5.32 4.87-8.51 6.62-4.04.09-8.06.22-12.09.39-5.57.31-11.24-1-16.68.8-1.57-.31-5.21.85-3.92-1.92 3.54-2.71 8.1-3.7 12.38-4.52 5.17 3.87 11.88 1.48 17.54.6 2.72.65 6 1.12 6.99-2.26-1.13-3.81-6.16-.86-9.13-1.5-3.47-1.06-12.49 2.89-12.85-2.33 4.3-1.34 8.76-2.12 13.05-3.54-1-.47-1.96-1.3-3.13-1.23-7.64.01-15.26-.84-22.88-1.22-4.98 3.25-10.65-2.74-16.18-1.34 2.38-6.05 10.15-3.06 14.23-.27 3.57-1.78 7.51-2.6 11.47-2.97 1.9-.3 1.75-2.83.04-3.32-6.36-1.42-12.86-2.14-19.35-2.67-2.64-.87.76-3.8.92-5.61z" fill="#d4ccc1"/><path d="M214.87 6.36c4.78 1.6 8.52-3.02 13.11-3.54-1.8 2.84-4.51 5.02-6.11 7.98 2.7.39 5.42.61 8.13 1.03v9.33c-2.81 0-5.61-1.36-8.39-.67-3.69.14-6.84 2.93-10.58 2.52-3.7.81-7.79-3.08-11.09-.19-3.29-1.35-6.68-2.52-9.92-3.98-1.3-4.32 4.97-4.82 7.57-5.37 5.45-1.18 11.1-1.18 16.5-2.6-.68-.96-1.46-1.86-2.32-2.67-6.69.15-13.34 1.07-19.75 2.89-.07-1.32-.04-2.63.09-3.93 7.48-1.33 15.15-.61 22.76-.8z" fill="#cfc7bc"/><path d="M39.35 5.19c2.28-.04 3.23 3.35 5.73 3.73 3.54 1.6 7.39-.18 10.97-.92-.92 2.87-5.07 6.28-8.38 4.42-2.81-1.01-5.74-1.68-8.66-2.26-1.49.15-2.86 3.07-3.83.62-.85-2.89 3.96-2.71 4.17-5.59z" fill="#cabfb0"/><path d="M77.09 14.1c2.3-.66 4.64-1.09 6.85-2.09 2.66 1.03 4.76 2.7 3.15 5.65 5.55-1.57 10.76 2.64 16.28 2.79 3.16-.85 5.82.53 8.57 1.6 1.33-.8 2.42-1.92 3.69-2.81.85 1.27 1.35 3.42 3.36 2.69 5.46-1.01 11.94-3 16.97.25.04 5.83-9.14 1.4-12.28 3.08 7.85 6.3 18.91 2.51 27.47 7.37-1.47.37-2.95.71-4.41 1.12-5.51-1.09-11.01.57-16.52.77-2.89-2.08-6.87-1.84-9.45-4.31-1.86-2.3-5.14-1.46-6.81-4.1-3.36-1.55-7.79-3.22-10.9-.27-4.85-4.26-12.37.59-17.95-2.05-4.54-2.97-10.44.46-15.45-.99 4.44-3.46 10.3-1.72 15.31-2.87-.71-1.68-1.53-3.42-3.1-4.46-1.65.1-4.7 1.18-4.78-1.37z" fill="#d5cbc0"/><path d="M0 12.72c1.31.48 2.61.98 3.88 1.54-.44 2.89-1.53 6.45 1.42 8.44 2.36.89 5.29 3.22 7.66 1.25 1.78-2.06 3.93-1.12 6.04-.2 1.85-1.24 3.74-1.96 5.7-.45 2.06 1.62 3.04-1.03 4.2-2.29 1.84 1.63 3.82 3.29 6.72 2.48 4.33-.14 7.95 2.21 11.19 4.73 1 2.5-2.9 2.3-4.5 2.39-3.73-1.65-7.89-1.51-11.45-3.45-2.33.4-4.55.8-5.33-2.03-3.05 6.6-11.47 3.9-17.25 4.05-.86.79-1.65 1.66-2.36 2.58 5.54 1.63 11.25.38 16.91 1.12.84-1.14 1.1-2.54 1.55-3.85 1.91.41 2.47 2.6 3.87 3.75 2.82.43 5.7.14 8.54.38 1.24 1.2 1.11 3.02 1.58 4.57 1.19.62 2.45 1.09 3.75 1.47-1.38.58-2.79 1.29-.98 2.39 3.99-.1 7.97-.4 11.93.31.15-1.57-.61-2.28-2.26-2.12 2.1-.88 4.14-1.92 6.3-2.67 2.93-.83 4.82 2.41 7.58 2.59 6.39 1.12 12.85 1.49 19.33 1.33 6.37-5.43 6.22 3.55 2.63 2.58-6.87-.79-14.04 1.18-18.84 6.34-2.2.27-4.29-.11-5.9-1.69-2.73.25-5.44.71-8.12 1.33-2.85.17-5.69.33-8.54.32-1.96-3.16-6.67-2.52-9.39-.69-.48-1.37-1.32-4.54-3.02-2.44-2.09 4.49-7.3.27-10.73.13-1.45 1.45-2.48 3.81-4.99 3.14-1.64-1.55-3.16-4.22-5.8-3.69-3.83 1.02-7.58.14-11.32-.54v-33.1z" fill="#cac0b0"/><path d="M104.7 30.69c.68-3.47 3.8-2.58 6.3-1.66l-.27 1.11c-1.99.36-4.01.43-6.03.55z" fill="#7e7161"/><path d="M111 29.03c2.52-.23 4.86.66 6.97 1.97.04.66.13 1.99.18 2.66-1.48-.63-2.46.06-3.06 1.44.17-1.35.39-2.69.56-4.03-1.23-.24-3.69-.7-4.92-.93z" fill="#52483a"/><path d="M104.7 30.69c2.02-.12 4.04-.19 6.03-.55 1.23.23 3.69.69 4.92.93-.17 1.34-.39 2.68-.56 4.03l-.15.91c-.29 1.32-.66 2.62-.91 3.95 3.11-.52 6.14-.28 9.04.99 2.6-.01-3.1 2.72-.14 2.08 2.88.54 2.56-3.1 3.37-4.91l.99-.39c3.38 3.57 2.81 8.99 2.83 13.47l-.02 1c-.27.45-.8 1.35-1.07 1.8-1.46 1.75-2.53 3.79-3.28 5.95l-.58.28c-.52-3.38.73-7.27-.96-10.42-1.41-2.39-3.02-5.58-6.35-4.78-1.19-.06-2.38-.11-3.56-.16-1.87-2.46-6.64-2.38-8.51-.01-.24.28-.72.83-.96 1.11l-.99.04c-1.31.25-3.07-.43-4.04.71-1.66 3.7-.32 8.4-1.34 12.45-.73-2.7-2.03-5.2-2.8-7.89-.15-2.8 1.72-6.44-.9-8.3.78-2.02 1.63-4.02 2.2-6.12 1.31-1.07 2.84-1.81 4.28-2.68 1.62-.62 2.38-2.25 3.46-3.49z" fill="#16120c"/><path d="M117.97 31c1.76.87 3.53 1.72 5.25 2.68.13 1.21.28 2.42.45 3.63-1.11-.33-2.22-.68-3.32-1.03-.72-.89-1.46-1.76-2.2-2.62-.05-.67-.14-2-.18-2.66z" fill="#70685f"/><path d="M78.62 34.61c3.4.74 6.72-1.72 10-1.04 3.98 2.01 8.42.44 12.62.61-1.44.87-2.97 1.61-4.28 2.68-1.89 1.31-3.79 3.9-2.2 6.12.25 2.77-.03 5.64.9 8.3.77 2.69 2.07 5.19 2.8 7.89l-.08.79-.09.85c.81 3.98-3.29 4.16-4.13 7.45-.44 1.51-2.45.5-3.18-.24-1.88-2.13-5.83 1.79-7.24-.77-1-1.68-.22-3.87 1.36-4.96 2.26.8 5.32 2.4 7.1-.14 1.51-.78-.17-1.68-1.03-1.85-1.64-.61-3.3-1.16-4.97-1.65-2.61-1.59-2.03.5-1.49 2.42-3.03.92-1.63-2.13-3.39-3.38-1.94-2.29-5.56-.15-7.64.99 1.83.11 5.5.34 7.34.45.42 3.62-.4 7.16-1.36 10.6-2.63 2.2-5.23-1.98-8.34-.58-2.71-1.21-5.55-2.43-8.59-1.92-2.56-1.72-1.75-5.9-3.91-8.18l-6.04.04c1.62 1.71 4.08 1.8 6.25 2.2-.66 1.75-2.64 3.69-.01 4.76-4.35-1.13-8.8-.22-13.23-.38-1.75.11-5.24.32-6.99.43l-6.58-.28c-2.03-1.66-4.88-8.79-3.39.93-.65.1-1.96.3-2.61.41-4.09-.06-8.18-.1-12.26-.13-3.95-1.73 2.23-4.7.97-7.71-2.34-.39-4.57-1.55-6.96-1.53-2.66.1-5.31.18-7.97.25v-5.96c6.44.15 12.93-1.92 19.19.35 4.97-1.88 10.41-1.66 15.6-.94.35-.35 1.06-1.05 1.42-1.4 2.54.07 5.19-.24 7.55.85 3.46 1.25 6.96 1.33 10.5.26.5-.08 1.49-.22 1.99-.3 1.53.76 2.9.56 3.9-.88 6.87 2.67 14.74 3.3 22 1.85-.24-.47-.73-1.4-.97-1.87-.26-.48-.79-1.45-1.05-1.94 4.16-1.47 8.4.66 12.65-.15 2.23-1.29.11-3.28-.39-4.91-.02-1.64 1.38-3.86-.61-4.81-6.98-.88-14-.41-21-.24 2-2.2 3.98-5.84 7.84-3.34z" fill="#cbc0b2"/><path d="M115.09 35.1c.6-1.38 1.58-2.07 3.06-1.44.74.86 1.48 1.73 2.2 2.62-1.76.92-3.64.18-5.41-.27z" fill="#2b2417"/><path d="M173.76 33.3c4.03-.17 8.05-.3 12.09-.39 2.64.99 10.02-2.56 9.13 1.94-5.23-1.62-9.9 1.5-14.9 2.15a38.833 38.833 0 0 1-6.32-3.7z" fill="#c5bcb0"/><path d="M123.22 33.68c1.91.68 2.9 2.53 4.07 4.05l-.99.39c-.66-.2-1.97-.61-2.63-.81-.17-1.21-.32-2.42-.45-3.63z" fill="#534d46"/><path d="M114.94 36.01c1.77.45 3.65 1.19 5.41.27 1.1.35 2.21.7 3.32 1.03.66.2 1.97.61 2.63.81-.81 1.81-.49 5.45-3.37 4.91-2.96.64 2.74-2.09.14-2.08-2.9-1.27-5.93-1.51-9.04-.99.25-1.33.62-2.63.91-3.95z" fill="#35322d"/><path d="M94.76 42.98c-1.59-2.22.31-4.81 2.2-6.12-.57 2.1-1.42 4.1-2.2 6.12z" fill="#716556"/><path d="M42.12 39.2c2.89.15 5.78.46 8.69.58 1.65-.16 2.41.55 2.26 2.12-3.96-.71-7.94-.41-11.93-.31-1.81-1.1-.4-1.81.98-2.39z" fill="#c0b4a5"/><path d="M180.08 43.8c.59-3.48 4.73-3.64 7.55-3.27 3.19 1.52 6.71.53 10.1.72 3.06 4.56 10.2 1.15 14.71 2.14 8.62 2.78 4.14.09 2.42-1.32 4.9-1.02 10.29-3.04 15.14-1.17v9c-3.8 1.52-7.6.03-11.2-1.29-5.46 1.73-11.35 1.31-16.98 2.11-3.69.04-7.48.11-11.05-.96 3.2-.19 10.22-1.24 7.03-5.69-5.64 2.17-11.94 1.72-17.72-.27z" fill="#c6beb1"/><path d="M143.34 41.34c1.83-.78 3.82.73 5.7.9-1.06 1.46-2.32 3.48-4.35 2.17-2.44-1.29-3.04 3.48-5.43 2.37-1.32-1.43-3.49-2.56-3.32-4.79 2.59-.52 5.49 2.11 7.4-.65z" fill="#c6bbad"/><path d="M197.73 41.25c5.67.95 11.44-.11 17.13.82 1.72 1.41 6.2 4.1-2.42 1.32-4.51-.99-11.65 2.42-14.71-2.14z" fill="#b8b0a2"/><path d="M163.76 44.76c2.97-3.49 8.65-2.09 12.55-2.61-1.95 2.64-6.86 1.84-7.5 5.54 4.18.18 11.33-3.03 13.42 2.17-.52-.09-1.55-.28-2.06-.37-3.79-.48-7.59-.58-11.39-.31-1.3-.07-2.6-.12-3.89-.14.74.67 1.5 1.32 2.28 1.96-.51.15-1.54.44-2.05.59-.96-.22-11.14-2.05-8.06 1.86-4.41.95-8.93 1.64-13.06 3.54-2.97.91-4.63 4.61-8.12 4.05.62-2.14 2.12-3.87 3.01-5.89-1.19-1.05-2.5-1.94-3.85-2.75 1.13-.35 1.83-1.09 2.1-2.23 2.21.95 6.42 3.62 6.09-.76 2.27.65 4.29.78 4.15-2.24 5.16-1.44 12.48 2.23 16.38-2.41z" fill="#c6bcaf"/><path d="M94.76 42.98c2.62 1.86.75 5.5.9 8.3-.93-2.66-.65-5.53-.9-8.3z" fill="#584f45"/><path d="M105.79 44.86c1.87-2.37 6.64-2.45 8.51.01-.55.12-1.65.36-2.19.48-2.07-.51-4.2-.71-6.32-.49z" fill="#594837"/><path d="M104.83 45.97c.24-.28.72-.83.96-1.11 2.12-.22 4.25-.02 6.32.49-2.2 1.17-4.63 1.38-7.28.62z" fill="#917962"/><path d="M112.11 45.35c.54-.12 1.64-.36 2.19-.48-.35.56-1.06 1.66-1.41 2.22-1.04 1.75-1.37 3.81-2.06 5.71-.38.35-1.15 1.05-1.53 1.4l-.28-2.11c.07-1.32-.57-2.32-1.65-3-1.2-1-2.41-1.99-3.53-3.08l.99-.04c2.65.76 5.08.55 7.28-.62z" fill="#ac9078"/><path d="M114.3 44.87c1.18.05 2.37.1 3.56.16.16 1.4 2.58 3.31 1.09 4.38-3.61.98-5.63.21-6.06-2.32.35-.56 1.06-1.66 1.41-2.22z" fill="#2f2219"/><path d="M117.86 45.03c3.33-.8 4.94 2.39 6.35 4.78-.1 3.5-.16 7-.44 10.49-2.13 1.21-5.38 1.6-4.88 4.8-.05 2.27-1.41-1.37-2.05-1.85 1.99-2.36 6.06-3.71 4.07-7.91-1.83-.21-3.65-.49-2.19-2.55 1.82 1.61 2.56 1.48 1.56-.9 3.5.41.77-2.77-1.33-2.48 1.49-1.07-.93-2.98-1.09-4.38z" fill="#594d42"/><path d="M0 45.82c3.74.68 7.49 1.56 11.32.54 2.64-.53 4.16 2.14 5.8 3.69 2.51.67 3.54-1.69 4.99-3.14 3.43.14 8.64 4.36 10.73-.13 1.7-2.1 2.54 1.07 3.02 2.44l.35.87c-.36.35-1.07 1.05-1.42 1.4-5.19-.72-10.63-.94-15.6.94-6.26-2.27-12.75-.2-19.19-.35v-6.26z" fill="#c1b5a3"/><path d="M99.8 46.72c.97-1.14 2.73-.46 4.04-.71 1.12 1.09 2.33 2.08 3.53 3.08-1.59.25-4.77.73-6.36.97.62-1.01 1.33-1.98 1.95-2.99-.79-.09-2.37-.26-3.16-.35z" fill="#412f20"/><path d="M98.46 59.17c1.02-4.05-.32-8.75 1.34-12.45.1 3.14.22 6.29.29 9.43-.11 1.37-.23 2.73-.35 4.09l-1.36-.28z" fill="#544029"/><path d="M99.8 46.72c.79.09 2.37.26 3.16.35-.62 1.01-1.33 1.98-1.95 2.99 1.59-.24 4.77-.72 6.36-.97 1.08.68 1.72 1.68 1.65 3-1.06-.35-2.11-.68-3.17-.99-2.12-1.5-7.05 3.67-2.97 2.86-.92.76-1.86 1.47-2.79 2.19-.07-3.14-.19-6.29-.29-9.43z" fill="#786550"/><path d="M110.83 52.8c.69-1.9 1.02-3.96 2.06-5.71.43 2.53 2.45 3.3 6.06 2.32 2.1-.29 4.83 2.89 1.33 2.48-1.82-1.33-4.73-3.1-6.67-1.06-.98.92-1.63 2.11-2.11 3.36-.17-.35-.5-1.04-.67-1.39z" fill="#746555"/><path d="M35.86 49.22c2.72-1.83 7.43-2.47 9.39.69-.37.26-1.12.77-1.49 1.03-2.36-1.09-5.01-.78-7.55-.85z" fill="#b1a592"/><path d="M53.79 49.59c2.68-.62 5.39-1.08 8.12-1.33 1.61 1.58 3.7 1.96 5.9 1.69 4.42-.39 9.02 1.28 13.37.05.24.47.73 1.4.97 1.87-7.26 1.45-15.13.82-22-1.85-1 1.44-2.37 1.64-3.9.88-.61-.32-1.84-.98-2.46-1.31z" fill="#b4a797"/><path d="M201.82 50.72c5.63-.8 11.52-.38 16.98-2.11 3.6 1.32 7.4 2.81 11.2 1.29v.95c-2.07 2.75-5.33 2.27-8.12 1.02-5.37-1.57-11.1.22-16.61-.04a43.23 43.23 0 0 0-3.45-1.11z" fill="#b1a799"/><path d="M164.89 49.04c1.29.02 2.59.07 3.89.14 3.75.99 7.58.75 11.39.31.51.09 1.54.28 2.06.37l.72.17c2.41.6 4.91 1.02 7.3 1.75-7.73.62-15.36-1.14-23.08-.78-.78-.64-1.54-1.29-2.28-1.96z" fill="#b5a89c"/><path d="M168.78 49.18c3.8-.27 7.6-.17 11.39.31-3.81.44-7.64.68-11.39-.31z" fill="#9e9186"/><path d="M43.76 50.94c.37-.26 1.12-.77 1.49-1.03 2.85.01 5.69-.15 8.54-.32.62.33 1.85.99 2.46 1.31-.5.08-1.49.22-1.99.3-3.5-.07-7-.15-10.5-.26z" fill="#948874"/><path d="M113.61 50.83c1.94-2.04 4.85-.27 6.67 1.06 1 2.38.26 2.51-1.56.9-.98-.93-2.41-.65-3.63-.84z" fill="#2c2017"/><path d="M124.21 49.81c1.69 3.15.44 7.04.96 10.42-.35.02-1.05.05-1.4.07.28-3.49.34-6.99.44-10.49z" fill="#292019"/><path d="M130.12 51.2c2.33-.33 4.63-1.1 7.02-1.03-.27 1.14-.97 1.88-2.1 2.23-1.65.4-3.36.54-4.94-.2z" fill="#b7ad9d"/><path d="M182.95 50.03c2.6-.03 5.21-.12 7.82-.27 3.57 1.07 7.36 1 11.05.96 1.16.32 2.31.69 3.45 1.11-5.01.04-10.03.39-15.02-.05-2.39-.73-4.89-1.15-7.3-1.75z" fill="#9f9384"/><path d="M43.76 50.94c3.5.11 7 .19 10.5.26-3.54 1.07-7.04.99-10.5-.26z" fill="#baad9a"/><path d="M102.88 53.96c-4.08.81.85-4.36 2.97-2.86.05.39.14 1.16.19 1.55-1.08.38-2.13.82-3.16 1.31z" fill="#30220f"/><path d="M105.85 51.1c1.06.31 2.11.64 3.17.99l.28 2.11c-.32.28-.94.82-1.25 1.1-.68-.88-1.35-1.77-2.01-2.65-.05-.39-.14-1.16-.19-1.55z" fill="#5f4528"/><path d="M111.5 54.19c.48-1.25 1.13-2.44 2.11-3.36l1.48 1.12c.43 2.47-.7 3.57-3.17 3.15z" fill="#563e2d"/><path d="M157.06 53.45c-3.08-3.91 7.1-2.08 8.06-1.86-2.64.81-5.33 1.45-8.06 1.86z" fill="#b5a99e"/><path d="M165.12 51.59c.51-.15 1.54-.44 2.05-.59 7.72-.36 15.35 1.4 23.08.78 4.99.44 10.01.09 15.02.05 5.51.26 11.24-1.53 16.61.04-.23 1.63-.06 3.28-.1 4.92-4.73 4.63-11.92-.33-17.44 2.67-4.8 2.16-13.54-.32-14.44 6.49 4.72-.29 10.27-2.81 13.35 2.04-3.97-.01-7.94-.08-11.9-.2-2.51-.51-5.31-1.62-6.43 1.18-2.57-.02-5.14-.1-7.7-.23-5.35-1.15-10.86-.68-16.14.5-2.61.6-5.35-.47-7.84.85 2.42-4.48-3.06-3.34-6.25-3.38l-.79.02c-2.07-.87-4.01-2-6.09-2.84.2 1.05.41 2.09.63 3.13-2.53.08-5.25 1.1-7.64-.21-2.62-1-5.73.79-7.72-2.1.86-.98 1.75-1.92 2.68-2.83 1.96-1.9.41-5.4.97-7.88.27-.45.8-1.35 1.07-1.8 1.58.74 3.29.6 4.94.2 1.35.81 2.66 1.7 3.85 2.75-.89 2.02-2.39 3.75-3.01 5.89 3.49.56 5.15-3.14 8.12-4.05 4.13-1.9 8.65-2.59 13.06-3.54 2.73-.41 5.42-1.05 8.06-1.86m3.12 4.85c-3.58-.47-10.76-3.26-10.45 2.63-1.37-.91-2.24-2.59-3.84-3.07-4.11-2.02-5.98 1.58-8.11 3.85 4.28-.34 8.56 1.18 12.79.82-.31 2.68 2.5 2.82 4.4 3.35 2.65-.36-1.48 3.68 1 3.02 2.52.51 2.86-2.5 4.16-3.94 2.99.96 7.38-1.67 8.1 2.69 1.24-.49 2.37-1.25 3.68-1.59 1.36.33 3.09 1.37 3.88-.41.4-2.5-1.81-4.19-4.06-4.6l6.32-.24c-.28-1.34-.81-2.61-1.3-3.88-1.49.04-3.05 1.4-4.47.6-3.29-3.59-8.09.76-12.1.77z" fill="#cbc1b5"/><path d="M221.88 51.87c2.79 1.25 6.05 1.73 8.12-1.02v16.19c-5.39 1.08-10.95.52-16.35 1.51-3.52.91-7.12-2.54-10.4-.56-3.08-4.85-8.63-2.33-13.35-2.04.9-6.81 9.64-4.33 14.44-6.49 5.52-3 12.71 1.96 17.44-2.67.04-1.64-.13-3.29.1-4.92z" fill="#c4bcaf"/><path d="M115.09 51.95c1.22.19 2.65-.09 3.63.84-1.46 2.06.36 2.34 2.19 2.55 1.99 4.2-2.08 5.55-4.07 7.91-1.22-1.36-2.42-2.74-3.72-4.02.92-1.28-1-2.77-1.2-4.13 2.47.42 3.6-.68 3.17-3.15m-1.21 4.12c1.18 2.41 3.46 3.52 6.1 2.93 1.46-4.37-3.45-2.83-6.1-2.93z" fill="#907760"/><path d="M102.88 53.96c1.03-.49 2.08-.93 3.16-1.31.66.88 1.33 1.77 2.01 2.65-1.8 2.54-4.94.31-6.95 1.9-1.32 3.64 3.25 3.96 5.62 2.88.45 1.28 1.33 2.31 2.32 3.22-1.32.49-2.68.89-3.94 1.53-2.78 2.21-1.97-.38-1.56-2.48-1.35-.54-2.67-1.17-3.8-2.11.12-1.36.24-2.72.35-4.09.93-.72 1.87-1.43 2.79-2.19z" fill="#a98c6c"/><path d="M109.3 54.2c.38-.35 1.15-1.05 1.53-1.4.17.35.5 1.04.67 1.39l.42.91c.2 1.36 2.12 2.85 1.2 4.13-2.14.22-4.32.25-6.4.85-2.37 1.08-6.94.76-5.62-2.88 2.01-1.59 5.15.64 6.95-1.9.31-.28.93-.82 1.25-1.1z" fill="#d1b28a"/><path d="M125.75 59.95c.75-2.16 1.82-4.2 3.28-5.95-.56 2.48.99 5.98-.97 7.88-.77-.65-1.54-1.29-2.31-1.93z" fill="#66574c"/><path d="M168.24 56.44c4.01-.01 8.81-4.36 12.1-.77 1.42.8 2.98-.56 4.47-.6.49 1.27 1.02 2.54 1.3 3.88l-6.32.24c-7.09-.54-14.17.47-21.16 1.48-4.23.36-8.51-1.16-12.79-.82 2.13-2.27 4-5.87 8.11-3.85 1.6.48 2.47 2.16 3.84 3.07-.31-5.89 6.87-3.1 10.45-2.63z" fill="#d1c8bd"/><path d="M113.88 56.07c2.65.1 7.56-1.44 6.1 2.93-2.64.59-4.92-.52-6.1-2.93z" fill="#c5a98b"/><path d="M7.97 57.79c2.39-.02 4.62 1.14 6.96 1.53 1.26 3.01-4.92 5.98-.97 7.71 3.44 2.06 7.82 2.07 11.75 1.87.13-.43.38-1.31.51-1.74.65-.11 1.96-.31 2.61-.41-1.49-9.72 1.36-2.59 3.39-.93l6.58.28c.16 4.02 5.53 1.37 8.2 1.92-.3-.59-.91-1.76-1.21-2.35 4.43.16 8.88-.75 13.23.38-2.63-1.07-.65-3.01.01-4.76-2.17-.4-4.63-.49-6.25-2.2l6.04-.04c2.16 2.28 1.35 6.46 3.91 8.18 2.6 1.4 5.62 3.99 8.59 1.92 3.11-1.4 5.71 2.78 8.34.58.96-3.44 1.78-6.98 1.36-10.6-1.84-.11-5.51-.34-7.34-.45 2.08-1.14 5.7-3.28 7.64-.99 1.76 1.25.36 4.3 3.39 3.38-.54-1.92-1.12-4.01 1.49-2.42-.48 2.92 1.18 3.47 4.97 1.65.86.17 2.54 1.07 1.03 1.85-1.78 2.54-4.84.94-7.1.14-1.58 1.09-2.36 3.28-1.36 4.96 1.41 2.56 5.36-1.36 7.24.77.73.74 2.74 1.75 3.18.24.84-3.29 4.94-3.47 4.13-7.45 1.03 2.47 2.27 4.86 3.36 7.3.63 1.39 1.36 2.73 2.09 4.07.06.64.17 1.93.23 2.58-.65.61-1.3 1.22-1.93 1.85-.42.37-1.26 1.11-1.69 1.48-3.09-5.14-9.99-3.6-14.96-4.54-4.17-.02-8.2-1.02-12.3-1.47-2.17.57-4.09 1.76-6.11 2.68-4.4-1.2-8.65-3.37-13.33-3.14-4.39.14-9.12.84-13.32-.9-2.28-1.52-1.37 3.52-3.38 3.14-2.45-.57-5.53-4.84-6.01-.22-.23 1.9-1.84 2.83-3.29 3.82-4.17-2.55-9.05.03-13.56.29-2.11-.47-4.12-1.35-6.27-1.61-2.61-.13-5.21-.18-7.82-.17v-1.7c1.6-.34 3.21-.73 4.63-1.56-.88-2.59 3.65-5.19 1.44-7.64-.61-1.59-3.85-.55-3.02-2.97 1.23-1.78 3.44-2.7 4.92-4.31z" fill="#c5baaa"/><path d="M0 58.04c2.66-.07 5.31-.15 7.97-.25-1.48 1.61-3.69 2.53-4.92 4.31-.83 2.42 2.41 1.38 3.02 2.97 2.21 2.45-2.32 5.05-1.44 7.64-1.42.83-3.03 1.22-4.63 1.56V58.04z" fill="#c1b39d"/><path d="M86.2 58.65c1.67.49 3.33 1.04 4.97 1.65-3.79 1.82-5.45 1.27-4.97-1.65z" fill="#b1a593"/><path d="M106.72 60.08c2.08-.6 4.26-.63 6.4-.85 1.3 1.28 2.5 2.66 3.72 4.02.64.48 2 4.12 2.05 1.85-.5-3.2 2.75-3.59 4.88-4.8.35-.02 1.05-.05 1.4-.07l.58-.28c.77.64 1.54 1.28 2.31 1.93-.93.91-1.82 1.85-2.68 2.83-1.48.46-1.26 2.05-1.43 3.29l-.73-.32c-1.37-1.06-2.94-.36-4.24.4-1.83.09-3.3-.62-4.18-2.24l-1.61-1.17c-1.34-.58-2.76-.96-4.15-1.37-.99-.91-1.87-1.94-2.32-3.22z" fill="#4a392d"/><path d="M158.63 60.67c6.99-1.01 14.07-2.02 21.16-1.48 2.25.41 4.46 2.1 4.06 4.6-.79 1.78-2.52.74-3.88.41-1.31.34-2.44 1.1-3.68 1.59-.72-4.36-5.11-1.73-8.1-2.69-1.3 1.44-1.64 4.45-4.16 3.94-2.48.66 1.65-3.38-1-3.02-1.9-.53-4.71-.67-4.4-3.35z" fill="#c4bbaf"/><path d="M98.38 59.96l1.36.28c1.13.94 2.45 1.57 3.8 2.11-.41 2.1-1.22 4.69 1.56 2.48-.06 2-2.06 2.4-3.45 3.28-1.09-2.44-2.33-4.83-3.36-7.3z" fill="#826344"/><path d="M109.04 63.3c1.39.41 2.81.79 4.15 1.37-2.95-.2-6.59 1.1-4.38 4.5l-.92.26c1.77 1.59 4.18 2.04 6.23 3.17-1.48.4-2.95.79-4.4 1.29-1.67.26-3.13-.22-3.93-1.79-.4-2.31 3.07-7.22-.69-7.27 1.26-.64 2.62-1.04 3.94-1.53z" fill="#8b7360"/><path d="M140.11 63.89c2.08.84 4.02 1.97 6.09 2.84-1.46.12-2.91.26-4.36.42 1.01 2.61 4.69 2.45 5.15-.44 3.19.04 8.67-1.1 6.25 3.38-1.54 3.29 2.32 3.52 4.64 3.72 1.44-.52 2.79-1.77 4.43-1.26 4.74.74 10.53-1.55 14.22 2.42-9.09 2.54-18.34-.9-27.54-.02-3.74-2.53-5.26.36-6.21 2.65 1.42-.17 2.87-.31 4.3-.1-.32.62-.97 1.86-1.3 2.48 7.08-.78 14.21-.81 21.28-.02-.34-.56-1.03-1.68-1.38-2.23 3.13-.77 6.63-.28 9.53 1.13-2.63 1.05-5.4 1.64-8.11 2.42-.99 5.42 6.69 4.48 10.1 4.97-5.33 5.02-12.92-.76-18.31 3.61-2.16.6-2.38-3.45-4.82-2.9-1.79-.62.09 2.06-.14 2.89-1.75-.37-3.51-.65-5.17.21-.38-.07-1.15-.2-1.53-.27-6.36-4.03-13.52-6.86-19.3-11.83a7.74 7.74 0 0 0-3.82-1.61c-.13-2.79-.15-5.57-.16-8.35.17-1.24-.05-2.83 1.43-3.29 1.99 2.89 5.1 1.1 7.72 2.1l-2.18.28c1.66 3.87 6.81 1.45 10.12 1.84-.07-.48-.22-1.43-.3-1.91-.22-1.04-.43-2.08-.63-3.13z" fill="#c3b9aa"/><path d="M105.1 64.83c3.76.05.29 4.96.69 7.27-1.11-1.63-2.22-2.97-2.05.08-.73-1.34-1.46-2.68-2.09-4.07 1.39-.88 3.39-1.28 3.45-3.28z" fill="#5f432e"/><path d="M108.81 69.17c-2.21-3.4 1.43-4.7 4.38-4.5l1.61 1.17c-2.26.78-3.28 3.51-5.99 3.33z" fill="#b29c92"/><path d="M38.8 66.1c1.75-.11 5.24-.32 6.99-.43.3.59.91 1.76 1.21 2.35-2.67-.55-8.04 2.1-8.2-1.92z" fill="#b5a99b"/><path d="M108.81 69.17c2.71.18 3.73-2.55 5.99-3.33.88 1.62 2.35 2.33 4.18 2.24-1.11 4.28-4.72 7.06-9.26 5.81 1.45-.5 2.92-.89 4.4-1.29-2.05-1.13-4.46-1.58-6.23-3.17z" fill="#624c41"/><path d="M13.96 67.03c4.08.03 8.17.07 12.26.13-.13.43-.38 1.31-.51 1.74-3.93.2-8.31.19-11.75-1.87z" fill="#afa396"/><path d="M62.73 67.23c3.04-.51 5.88.71 8.59 1.92-2.97 2.07-5.99-.52-8.59-1.92z" fill="#aea290"/><path d="M118.98 68.08c1.3-.76 2.87-1.46 4.24-.4-.11.79-.32 2.37-.43 3.16-1.34 2.54-2.94 4.94-4.87 7.07-5.09.96-10.08.3-13.95-3.15-.06-.65-.17-1.94-.23-2.58-.17-3.05.94-1.71 2.05-.08.8 1.57 2.26 2.05 3.93 1.79 4.54 1.25 8.15-1.53 9.26-5.81z" fill="#281c12"/><path d="M130.92 67.09l2.18-.28c2.39 1.31 5.11.29 7.64.21.08.48.23 1.43.3 1.91-3.31-.39-8.46 2.03-10.12-1.84z" fill="#afa392"/><path d="M141.84 67.15c1.45-.16 2.9-.3 4.36-.42l.79-.02c-.46 2.89-4.14 3.05-5.15.44z" fill="#a69989"/><path d="M184.92 68.97c1.12-2.8 3.92-1.69 6.43-1.18-1.75 1.66-6.87 4.63 2.61 2.26 2.81-.64 7.53 1.39 9.29-2.06 3.28-1.98 6.88 1.47 10.4.56 5.4-.99 10.96-.43 16.35-1.51v3.7c-1.9.15-4.64.8-4.03 3.33-.35 1.98 3.33 2.2.76 3.64-3.31-.41-6.86.67-10-.8 2.24-1.17 8.57-3.21-1.7-2.03-4.67-.67-9.38.29-14.04-.74-4.12-1.7-6.35 1.84-9.1 3.78 1.43.09 2.86.17 4.3.22-.96.59-1.65 2.89-2.86 2.31-5.36-4.11-13.02 5.47-17.47-1.29l11.44-.28c-3.51-1.33-7.57-1.62-10.77-3.91-3.69-3.97-9.48-1.68-14.22-2.42-1.64-.51-2.99.74-4.43 1.26-2.32-.2-6.18-.43-4.64-3.72 2.49-1.32 5.23-.25 7.84-.85 5.28-1.18 10.79-1.65 16.14-.5-1.8.07-5.4.19-7.2.26l.01.91c4.95-.07 9.82 1.21 14.76 1.05.03-.5.1-1.5.13-1.99z" fill="#beb4a6"/><path d="M123.22 67.68l.73.32c.01 2.78.03 5.56.16 8.35 1.4.18 2.7.73 3.82 1.61l-.1.8c-.23.3-.68.88-.9 1.18-.56.73-1.1 1.48-1.63 2.24-.13-.78-.4-2.34-.53-3.12-1.94-2.26-1.55-5.42-1.98-8.22.11-.79.32-2.37.43-3.16z" fill="#7b7670"/><path d="M191.35 67.79c3.96.12 7.93.19 11.9.2-1.76 3.45-6.48 1.42-9.29 2.06-9.48 2.37-4.36-.6-2.61-2.26z" fill="#a99d8d"/><path d="M170.02 69c1.8-.07 5.4-.19 7.2-.26 2.56.13 5.13.21 7.7.23-.03.49-.1 1.49-.13 1.99-4.94.16-9.81-1.12-14.76-1.05z" fill="#a9a091"/><path d="M36.95 73.86c2.01.38 1.1-4.66 3.38-3.14 4.2 1.74 8.93 1.04 13.32.9 4.68-.23 8.93 1.94 13.33 3.14 2.02-.92 3.94-2.11 6.11-2.68 4.1.45 8.13 1.45 12.3 1.47 4.97.94 11.87-.6 14.96 4.54-.3.25-.92.76-1.23 1.01-.69-.77-1.42-1.47-2.21-2.12-10.86 2.21-21.96-1.56-32.91-.24-6.75-.21-13.51-1.17-20.27-.5-4.24-.46-10.42 2.55-12.79-2.6.48-4.62 3.56-.35 6.01.22z" fill="#d0c5b5"/><path d="M117.92 77.91c1.93-2.13 3.53-4.53 4.87-7.07.43 2.8.04 5.96 1.98 8.22-1.3.74-2.61 1.48-3.87 2.28.17-2.26-.2-4.05-2.98-3.43z" fill="#413830"/><path d="M225.97 74.07c-.61-2.53 2.13-3.18 4.03-3.33v2.1c-1.34.42-2.68.84-4.03 1.23z" fill="#8b7e6c"/><path d="M225.97 74.07c1.35-.39 2.69-.81 4.03-1.23v9.7c-2.56.69-3.24 2.89-3.34 5.27-2.59.41-5.06.99-7.65 1.21 2.44-3.3-3.01-2.01-4.03-.19-2.25.22 1.71-5.3-1.2-3.03-.71.17-3.27 2.47-2.49.4 1.47-2.85-2.28-2.73-4.17-3.06-4.22 3.72-9.04-2.45-13.75-.73-1.58 1.04-3.91 1.45-4.5 3.49-.61 1.93-4.75.06-3.81 2.95.68.08 2.02.25 2.7.33.15 3.54 3.69.8 5.34-.07 2 .47 3.8 1.68 5.97 1.16-.78 2.76-4.45 3.22-6.63 4.74-.36-.2-1.07-.58-1.43-.78-3.02 1.69-6.39 2.59-9.82 2.97-1.93-.6-3.86-1.2-5.86-1.5-5.11-.56-11.01-2.16-15.58.99-.72.15-2.16.44-2.88.59 2.07 2.7 6.27-.07 8.81 2 3.26.93-1.1 3.17-1.81 4.56-1.67 1.39-3.83 1.11-5.81 1.37-1.14-4.52-2.93-8.96-5.92-12.57l-.4-.68c-.54-1.13-2.03-1.24-2.98-1.9 1.66-.86 3.42-.58 5.17-.21.23-.83-1.65-3.51.14-2.89 2.44-.55 2.66 3.5 4.82 2.9 5.39-4.37 12.98 1.41 18.31-3.61-3.41-.49-11.09.45-10.1-4.97 2.71-.78 5.48-1.37 8.11-2.42l.65.3c4.45 6.76 12.11-2.82 17.47 1.29 1.21.58 1.9-1.72 2.86-2.31 6.87.04 13.69-.82 20.54-1.23 3.14 1.47 6.69.39 10 .8 2.57-1.44-1.11-1.66-.76-3.64m-7.76 5.3c-.68 2.61 4 .11 5.52.34-.78-1.48-4.05-1.01-5.52-.34m-40.19 7.57v3.11c2.01-.59 6.17-.02 6.08-2.88-2.01 1.07-4.02-.1-6.08-.23z" fill="#b9ae9e"/><path d="M27.65 77.46c1.45-.99 3.06-1.92 3.29-3.82 2.37 5.15 8.55 2.14 12.79 2.6 1.4.37 2.82.66 4.23.97-2.95 2-5.49 5.13-6.03 8.7 6.41-.14 12.65-1.72 19.05-1.95v1.91l-6.11.28c.53 1.39 1.34 2.64 2.04 3.95-4.79-1.72-9.16 1.48-13.98-.11.16 1.29.45 2.56.76 3.82-1.9 2.16-2.04 6.38-6.7 4.41-1.75.13-3.63 1.06-5.29.08-7.27-3.67-15.73-.81-23.49-2.47-2.05-2.09-1.03-5.38-1.98-7.96-.17-2.41-2.53-4.18-2.13-6.65 1.85-2.73 5.99 1.13 8.17-.4-1.01-1.96-3-3.1-4.45-4.68 2.15.26 4.16 1.14 6.27 1.61 4.51-.26 9.39-2.84 13.56-.29z" fill="#bfb3a3"/><path d="M191.89 77.92c2.75-1.94 4.98-5.48 9.1-3.78 4.66 1.03 9.37.07 14.04.74 10.27-1.18 3.94.86 1.7 2.03-6.85.41-13.67 1.27-20.54 1.23-1.44-.05-2.87-.13-4.3-.22z" fill="#cec3b8"/><path d="M102.04 76.61c.63-.63 1.28-1.24 1.93-1.85 3.87 3.45 8.86 4.11 13.95 3.15 2.78-.62 3.15 1.17 2.98 3.43-.45 1.33-1.03 2.61-1.63 3.88-.4-2.05.38-4.71-1.52-6.14-2.9-.35-6.73-.93-8.4 2.07.26 2.38 1.01 4.72 1.07 7.13-1.17-.76-2.33-1.54-3.49-2.31-1.4-2.65-2.34-5.53-3.91-8.08-.24-.32-.74-.96-.98-1.28z" fill="#55453a"/><path d="M142.78 77.6c.95-2.29 2.47-5.18 6.21-2.65 9.2-.88 18.45 2.56 27.54.02 3.2 2.29 7.26 2.58 10.77 3.91l-11.44.28-.65-.3c-2.9-1.41-6.4-1.9-9.53-1.13-6.2-.63-12.4-.74-18.6-.23-1.43-.21-2.88-.07-4.3.1z" fill="#d1c8ba"/><path d="M0 75.97c2.61-.01 5.21.04 7.82.17 1.45 1.58 3.44 2.72 4.45 4.68-2.18 1.53-6.32-2.33-8.17.4-.4 2.47 1.96 4.24 2.13 6.65.95 2.58-.07 5.87 1.98 7.96 7.76 1.66 16.22-1.2 23.49 2.47 1.66.98 3.54.05 5.29-.08 4.66 1.97 4.8-2.25 6.7-4.41.52.03 1.56.07 2.08.09 6.76-.33 13.96 2.76 20.49.29.44-.02 1.3-.05 1.73-.07.86 1.21 1.67 2.46 2.24 3.84-.65 1.87-1.17 3.77-1.47 5.73-1.76 2.95-3.22 6.13-3.61 9.59-.95 2.96-2.28 5.79-3.05 8.82-3.08-.96-6.19-.5-9.28.07-3.81-.87-7.82-1.42-11.55.01-5.36-.08-10.72-.33-16.07-.05-4.13-.41-8.25-.8-12.4-.86-.39-.02-1.18-.04-1.57-.05-1.86-.09-5.58-.26-7.44-.34-.9-1.64.86-2.3 1.84-3.26.85-2 1.69-4.16 1.25-6.38-2.24-.96-4.58-1.66-6.88-2.44v-1.91c2.69-.66 5.87-.1 8.04-2.03 1.2-1.34 2.71-.62 3.83.4.99.84 2.09 2.4 3.34.95 3.49-2.7 8.86 2.52 11.91-1.1-.58-.08-1.74-.25-2.32-.33 2.04-.84 4.13-1.52 6.24-2.15-.62-.77-1.3-1.58-2.39-1.16-4.58.44-9.28.88-13.77-.37.08 1.41 1.22 2.11 2.27 2.82-.48.11-1.45.35-1.93.47-2.63-.46-4.58-2.38-6.69-3.86-.49-1.97-1.23-3.81-2.9-5.07C5 91.79 5.47 85.63 0 86.83zm42.14 33.04c-.05.7-.17 2.11-.23 2.82-2.41-1.31-5.59-1.32-5.81 2.02 3.88 1.57 7.92-.27 11.9 1.1 5 .49 10.19-1.67 14.87.85.45-1.18.95-2.36 1.17-3.61-2.57.01-4.86-1.02-7.1-2.14-3.9.48-7.81 2.9-11.55.62-.24-1.74-1.82-1.8-3.25-1.66z" fill="#baad9c"/><path d="M43.73 76.24c6.76-.67 13.52.29 20.27.5 10.95-1.32 22.05 2.45 32.91.24.79.65 1.52 1.35 2.21 2.12-2.09 1.22-4.26 2.3-6.29 3.62-.5.26-1.52.77-2.02 1.03-1.55.43-3.09.87-4.63 1.31-3.65 1.1-8.84.6-11.13 3.98-.25.44-.73 1.32-.98 1.76a52.4 52.4 0 0 1-2 3.29c-1.36-.02-2.72-.01-4.08.03-.43.02-1.29.05-1.73.07-4.08-.52-8.01-2.44-12.17-1.55-2.83.37-7.91-2.59-8.32 1.26-.52-.02-1.56-.06-2.08-.09-.31-1.26-.6-2.53-.76-3.82 4.82 1.59 9.19-1.61 13.98.11-.7-1.31-1.51-2.56-2.04-3.95l6.11-.28v-1.91c-6.4.23-12.64 1.81-19.05 1.95.54-3.57 3.08-6.7 6.03-8.7-1.41-.31-2.83-.6-4.23-.97z" fill="#c1b6a6"/><path d="M100.35 78.09c.43-.37 1.27-1.11 1.69-1.48.24.32.74.96.98 1.28 0 2.64.03 5.28.1 7.92.01.48.02 1.45.03 1.94-.1 2.14-.24 4.28-.35 6.43-.93-4.75-.64-9.58-.89-14.37-1.28 1.12-.73 3.19-1.87 4.41-2.12-.15-4.24-.41-6.24-1.17l-.97-.33c2.03-1.32 4.2-2.4 6.29-3.62.31-.25.93-.76 1.23-1.01z" fill="#4c3f33"/><path d="M147.08 77.5c6.2-.51 12.4-.4 18.6.23.35.55 1.04 1.67 1.38 2.23-7.07-.79-14.2-.76-21.28.02.33-.62.98-1.86 1.3-2.48z" fill="#b8ae9e"/><path d="M103.02 77.89c1.57 2.55 2.51 5.43 3.91 8.08 1.07 2.28 2.13 4.58 2.42 7.11-3.04-2.78-4.04 5.74-6.55 1.1.11-2.15.25-4.29.35-6.43 1.17 1.23 2 4.16 3.89 2.13-1.04-1.59-2.52-2.82-3.92-4.07-.07-2.64-.1-5.28-.1-7.92z" fill="#c3bdb8"/><path d="M127.93 77.96c5.78 4.97 12.94 7.8 19.3 11.83-4.83-.85-9.67-1.86-14.61-1.54a38.515 38.515 0 0 1-3.45-4.39c-.39-1.71-.9-3.4-1.34-5.1z" fill="#98938f"/><path d="M109.35 81.15c1.67-3 5.5-2.42 8.4-2.07 1.9 1.43 1.12 4.09 1.52 6.14-.61 1.55-1.05 3.16-1.26 4.82-.99 1.15-2.6 4.4-4.02 1.96-.95-1.92-2.19-.09-3.24.68l-.71.19c.15-1.53.46-3.05.38-4.59-.06-2.41-.81-4.75-1.07-7.13z" fill="#6a5b52"/><path d="M120.9 81.34c1.26-.8 2.57-1.54 3.87-2.28.13.78.4 2.34.53 3.12a62.29 62.29 0 0 1-5.33 7.38l-1.96.48c.21-1.66.65-3.27 1.26-4.82.6-1.27 1.18-2.55 1.63-3.88z" fill="#2f2a27"/><path d="M126.93 79.94c.22-.3.67-.88.9-1.18.44 1.7.95 3.39 1.34 5.1.24 3.17.18 6.83-1.94 9.39l-.17-1.05c-.22-1.8-.5-3.6-.37-5.42z" fill="#161a1c"/><path d="M218.21 79.37c1.47-.67 4.74-1.14 5.52.34-1.52-.23-6.2 2.27-5.52-.34z" fill="#a49988"/><path d="M100.04 84.22c1.14-1.22.59-3.29 1.87-4.41.25 4.79-.04 9.62.89 14.37l.04.97c-1.84-1.21-3.68-2.42-5.57-3.55.17-2.67.9-5.39 2.77-7.38z" fill="#282016"/><path d="M125.3 82.18c.53-.76 1.07-1.51 1.63-2.24l-.24 6.84c-1.71.15-3.09.98-4.04 2.41-.89.2-1.78.31-2.68.37a62.29 62.29 0 0 0 5.33-7.38z" fill="#a0a8af"/><path d="M193.37 82.41c4.71-1.72 9.53 4.45 13.75.73 1.89.33 5.64.21 4.17 3.06-.78 2.07 1.78-.23 2.49-.4 2.91-2.27-1.05 3.25 1.2 3.03 1.33.28 2.68.35 4.03.19 2.59-.22 5.06-.8 7.65-1.21.1-2.38.78-4.58 3.34-5.27v15.8c-3.22-1.08-6.31-2.53-9.47-3.77-6.18-1.44-12.43.12-18.61.44.55-1.99 1.62-3.81 2.05-5.83-4.81-2.26-11.54-3.57-16.21 0-.68-.08-2.02-.25-2.7-.33-.94-2.89 3.2-1.02 3.81-2.95.59-2.04 2.92-2.45 4.5-3.49z" fill="#bfb5a5"/><path d="M90.81 83.75c.5-.26 1.52-.77 2.02-1.03l.97.33c-1.52 1.88-3.19 5.41.13 6.5-1.02 1.07-2.47 1.37-3.8 1.84.03 4.14 3.48 7.45 3.89 11.6-.46-.19-1.37-.59-1.83-.79-1.03 2.49-1.4 5.76-4.19 6.96-6.17-2.62-.96-10.16-3-14.64 1.6-3.76 3.08-7.66 5.81-10.77z" fill="#292119"/><path d="M93.8 83.05c2 .76 4.12 1.02 6.24 1.17-1.87 1.99-2.6 4.71-2.77 7.38 1.89 1.13 3.73 2.34 5.57 3.55.11 3.01.07 6.05.01 9.07-.22-1.54-.67-4.61-.89-6.14-2.02-.09-.09 3.54-1.96 3.99-1.88.94-4.01 2.62-5.98.92-.41-4.15-3.86-7.46-3.89-11.6 1.33-.47 2.78-.77 3.8-1.84-3.32-1.09-1.65-4.62-.13-6.5z" fill="#372c1f"/><path d="M86.18 85.06c1.54-.44 3.08-.88 4.63-1.31-2.73 3.11-4.21 7.01-5.81 10.77-.24.43-.71 1.29-.95 1.72-3.69-.16-2.96-5.86-6.83-5.37.66-.92 1.82-1.29 2.69-1.98 2.07-1.31 4.21-2.51 6.27-3.83z" fill="#3c3125"/><path d="M129.17 83.86c1.04 1.55 2.2 3.01 3.45 4.39.74 1.23 1.99 1.95 3.17 2.7.77 1.34 3.31 2.79 1.55 4.34-.65 1.36-2.27-.62-3.29-.67-1.16-1-2.06-2.93-3.88-2.54-1.17 1.78-.62 3.8.07 5.64 1.74 1.86 4.57 1.88 6.88 2.57-1.01.39-2.03.76-3.07 1.09.84 1.57 1.95 3.02 2.37 4.79-.33 1.37-.68 2.74-1.11 4.09-.91-2.03-1.04-4.16-.46-6.3-2.52-.18-4.89.77-7.13 1.79l-.73.31c0-3.76.03-7.52-.22-11.28.12-.38.35-1.15.46-1.53 2.12-2.56 2.18-6.22 1.94-9.39z" fill="#40372e"/><path d="M75.05 89.04c2.29-3.38 7.48-2.88 11.13-3.98-2.06 1.32-4.2 2.52-6.27 3.83-1.62.08-3.24.1-4.86.15z" fill="#7e7063"/><path d="M103.12 85.81c1.4 1.25 2.88 2.48 3.92 4.07-1.89 2.03-2.72-.9-3.89-2.13-.01-.49-.02-1.46-.03-1.94z" fill="#918f8a"/><path d="M106.93 85.97c1.16.77 2.32 1.55 3.49 2.31.08 1.54-.23 3.06-.38 4.59l-.69.21c-.29-2.53-1.35-4.83-2.42-7.11z" fill="#a5a19c"/><path d="M0 86.83c5.47-1.2 5 4.96 5.63 8.63 1.67 1.26 2.41 3.1 2.9 5.07 2.11 1.48 4.06 3.4 6.69 3.86-1.11.31-2.23.6-3.35.87-1.12-1.02-2.63-1.74-3.83-.4-1.68-.44-3.38-.79-5.07-1.15.61-1.87 2.3-3.43 1.99-5.53-1.5-1.11-3.25-1.79-4.96-2.51v-8.84z" fill="#b9aa93"/><path d="M122.65 89.19c.95-1.43 2.33-2.26 4.04-2.41-.13 1.82.15 3.62.37 5.42l-.91-.46c-1.2-.8-2.37-1.66-3.5-2.55z" fill="#435059"/><path d="M178.02 86.94c2.06.13 4.07 1.3 6.08.23.09 2.86-4.07 2.29-6.08 2.88z" fill="#ab9f8a"/><path d="M187.76 89.18c4.67-3.57 11.4-2.26 16.21 0-.43 2.02-1.5 3.84-2.05 5.83 6.18-.32 12.43-1.88 18.61-.44 3.16 1.24 6.25 2.69 9.47 3.77v6.45c-4.01-.36-8.09-.5-12.05.33.09 1.69 1.79 2.22 2.87 3.2.08 1.31-.31 2.58-.51 3.86 2.49-.02 1.14-3.17 2.48-4.44 1.45-2.6 4.62-1.68 7.21-1.89v9.02c-3.03-.32-5.66.48-7.08 3.31-1.87-.97-2.76-2.91-3.24-4.86-4.31 1.94-8.99 1.78-13.55.67-.23-1.91 4.11-.13 2.86-3.08-2.96.01-5.47 1.71-8.09 2.86-2.69-.52-7.49-1.31-7.8 2.47-.5 2.09-5.28 2.93-4.06-.1-.5-2.07 3.27-.24 2.97-2.23-3.16.03-6.96-3.28-9.82-.73-1.59.88-3.25-1.47-4.87-.73-4.77 2.4-10.32 3.69-15.61 2.91-.97-3.46-1.8-7.02-3.65-10.15 1.98-.26 4.14.02 5.81-1.37.71-1.39 5.07-3.63 1.81-4.56-2.54-2.07-6.74.7-8.81-2 .72-.15 2.16-.44 2.88-.59 2.65.14 5.3.29 7.95.46 2.43-.15 7.8 2.85 7.63-1.45 2 .3 3.93.9 5.86 1.5-.94 2.35-2.09 4.61-3.26 6.85l-6.09-.2c-2.91 2.13 4.34 1.58 6.09.84 3.6 2.38 7.68 3.7 11.92 2.25 3.6.38 7.19.09 10.29-1.82 4.07-1.67 8.57-1.27 12.73-2.12-.61-1.61-1.34-3.17-1.96-4.78 1.58-.79 4.59-.67 4.13-3.17-4.41.33-8.82.93-13.23 1.14.76.58 1.53 1.14 2.32 1.68-3.99-.38-7.99-.06-11.98-.01-.13-.56-.38-1.7-.51-2.26l.8-.59c2.18-1.52 5.85-1.98 6.63-4.74-2.17.52-3.97-.69-5.97-1.16-1.65.87-5.19 3.61-5.34.07z" fill="#b6aa9a"/><path d="M214.98 88.83c1.02-1.82 6.47-3.11 4.03.19-1.35.16-2.7.09-4.03-.19zm-23.87 16.23c3.02-.04 6.01.04 9.03.06-3.1 1.91-6.69 2.2-10.29 1.82.32-.47.95-1.41 1.26-1.88z" fill="#a19585"/><path d="M132.62 88.25c4.94-.32 9.78.69 14.61 1.54.38.07 1.15.2 1.53.27.95.66 2.44.77 2.98 1.9-3.75.83-7.28.51-10.77-1.08-1.54-1.19-5.3-3.53-5.18.07-1.18-.75-2.43-1.47-3.17-2.7z" fill="#817a72"/><path d="M75.05 89.04c1.62-.05 3.24-.07 4.86-.15-.87.69-2.03 1.06-2.69 1.98l-.07.89c-.31 4.86-.87-.86-3.08-.96.25-.44.73-1.32.98-1.76z" fill="#4a4137"/><path d="M118.01 90.04l1.96-.48c.9-.06 1.79-.17 2.68-.37 1.13.89 2.3 1.75 3.5 2.55-4.12.86-8.06 2.9-12.36 2.55-1.02-.52-2.03-1.06-3.04-1.61 1.05-.77 2.29-2.6 3.24-.68 1.42 2.44 3.03-.81 4.02-1.96z" fill="#69747e"/><path d="M135.79 90.95c-.12-3.6 3.64-1.26 5.18-.07 1.77 1.74 2.85 7.25 5.92 5.14.04.76.12 2.3.15 3.07-2.67-.43-5.13-1.67-7.8-2.1 1.82-2.87-.22-5.9-3.45-6.04z" fill="#433a33"/><path d="M74.07 90.8c2.21.1 2.77 5.82 3.08.96 4.76 3.66 3.41 10.97 2.97 16.27l1.66-.16c.24-3.99 1.82-7.69 2.27-11.63.24-.43.71-1.29.95-1.72 2.04 4.48-3.17 12.02 3 14.64 2.79-1.2 3.16-4.47 4.19-6.96.46.2 1.37.6 1.83.79.42 3.07 1.47 5.99 2.1 9.01-.63-.44-1.77-2.87-2.43-1.3-1.76 4.46-1.08 9.72-4.04 13.78 2.11 5.53-2.02 4.48-4.51 4.44-.69-2.23-1.11-4.53-1.27-6.87l-2.66 1.82c-.61-2.38-1.23-4.77-1.96-7.11-.2-2.84.03-5.7-.52-8.49-.86-1.73-3.3-2.89-2.66-5.11.65-.97 1.44-1.83 2.11-2.78-2.95 1.23-4.86-1.71-7.25-2.83.3-1.18.65-2.34 1.14-3.46a52.4 52.4 0 0 0 2-3.29z" fill="#1d1a16"/><path d="M77.22 90.87c3.87-.49 3.14 5.21 6.83 5.37-.45 3.94-2.03 7.64-2.27 11.63l-1.66.16c.44-5.3 1.79-12.61-2.97-16.27z" fill="#27221d"/><path d="M135.79 90.95c3.23.14 5.27 3.17 3.45 6.04-1.69.06-7.81.45-5.19-2.37 1.02.05 2.64 2.03 3.29.67 1.76-1.55-.78-3-1.55-4.34z" fill="#776e62"/><path d="M140.97 90.88c3.49 1.59 7.02 1.91 10.77 1.08l.4.68-1.09.33c-1.87.21-2.88 1.89-4.16 3.05-3.07 2.11-4.15-3.4-5.92-5.14z" fill="#5e564e"/><path d="M45.77 93.9c.41-3.85 5.49-.89 8.32-1.26 4.16-.89 8.09 1.03 12.17 1.55-6.53 2.47-13.73-.62-20.49-.29z" fill="#cabeaf"/><path d="M102.8 94.18c2.51 4.64 3.51-3.88 6.55-1.1-.68 2.47-2.78 3.72-5.08 4.43-.24 3.18-.32 6.39-.35 9.59l-.93-.45c-.04-.61-.11-1.83-.14-2.43.06-3.02.1-6.06-.01-9.07z" fill="#9b9793"/><path d="M113.79 94.29c4.3.35 8.24-1.69 12.36-2.55l.91.46.17 1.05c-.11.38-.34 1.15-.46 1.53-.33 1.03-.62 2.07-.85 3.12-2.32-2.03-3.9 1.13-5.91 1.99-2.58-1.04-8.6-1.73-6.22-5.6z" fill="#95a4ae"/><path d="M130.17 92.08c1.82-.39 2.72 1.54 3.88 2.54-2.62 2.82 3.5 2.43 5.19 2.37-.7 1.1-1.31 2.27-2.12 3.3-2.31-.69-5.14-.71-6.88-2.57-.69-1.84-1.24-3.86-.07-5.64z" fill="#54493d"/><path d="M109.35 93.08l.69-.21.71-.19c1.01.55 2.02 1.09 3.04 1.61-2.38 3.87 3.64 4.56 6.22 5.6 2.01-.86 3.59-4.02 5.91-1.99.04 4.37.07 8.74.1 13.11l-.16 6.8c-.25.55-.73 1.67-.97 2.23-3.66 2.77-3.2-2.54-3.7-5.04.19-3.75 1.05-7.46.76-11.23-2.11 3.33-2.5 7.49-3.99 11.13-.74 3.27-1.68 6.65-1.4 10.05-1.5.01-3.19-1.03-4.49.12 2.42 4.68 5.05 9.27 6.54 14.37 2.01 1.68 3.8 3.92 3.37 6.73-2.43-1.99-4.26-4.52-6.28-6.89-7.5 3.97-6.1-5-10.58-7.5-.56-5.97.81-12.23-.83-18.06-.09-1.66-.28-4.97-.37-6.62.03-3.2.11-6.41.35-9.59 2.3-.71 4.4-1.96 5.08-4.43z" fill="#d1cec8"/><path d="M146.89 96.02c1.28-1.16 2.29-2.84 4.16-3.05-.34 2.32-.19 4.85 2.71 4.68 1.33 2.67.38 7.1 4.3 7.56 1.85 3.13 2.68 6.69 3.65 10.15.11.6.32 1.81.43 2.42-.33 2.64-.01 5.28 1.57 7.49.42.91.85 1.83 1.3 2.74.17 1.84 1.5 4.24-1.01 4.97-2.03.65-2.23 2.44-1.05 4.04-2.34-2.48-5.13-1.29-7.87-.25-2.73-2.18.55-4.92 1.72-6.97 2.29-3.76 2.75-8.33 3.68-12.57-.74-2.15-1.55-4.29-2.62-6.3-4.12 1.52-.88 9.53-5.88 9.11-.58-4.22 2.36-7.55 4-11.13.79-2.83-1.97-4.46-3.83-5.96-.64 1.91-1.02 3.88-1.43 5.84-5.08-2.15-2.45 5.18-3.47 8.15-.98-.41-1.97-.81-2.95-1.21 1.11-5.32 5.32-11.13 2.74-16.64-.03-.77-.11-2.31-.15-3.07z" fill="#1a1b18"/><path d="M151.05 92.97l1.09-.33c2.99 3.61 4.78 8.05 5.92 12.57-3.92-.46-2.97-4.89-4.3-7.56-2.9.17-3.05-2.36-2.71-4.68z" fill="#4d4a45"/><path d="M67.99 94.12c1.36-.04 2.72-.05 4.08-.03-.49 1.12-.84 2.28-1.14 3.46l-.7.41c-.57-1.38-1.38-2.63-2.24-3.84z" fill="#978f80"/><path d="M181.19 97.2c3.43-.38 6.8-1.28 9.82-2.97.36.2 1.07.58 1.43.78l-.8.59c-4.01 1.89-.17 6.83-3.56 9.38l3.03.08c-.31.47-.94 1.41-1.26 1.88-4.24 1.45-8.32.13-11.92-2.25v-.64c1.17-2.24 2.32-4.5 3.26-6.85z" fill="#b2a692"/><path d="M125.92 97.9c.23-1.05.52-2.09.85-3.12.25 3.76.22 7.52.22 11.28-.01 1.65.03 3.29.02 4.94l-.99.01c-.03-4.37-.06-8.74-.1-13.11z" fill="#6b635a"/><path d="M159.75 96.69c4.57-3.15 10.47-1.55 15.58-.99-2.58.34-5.12.82-7.63 1.45-2.65-.17-5.3-.32-7.95-.46z" fill="#c9bdad"/><path d="M201.81 96.19c4.41-.21 8.82-.81 13.23-1.14.46 2.5-2.55 2.38-4.13 3.17-1.7-.09-5.09-.26-6.78-.35-.79-.54-1.56-1.1-2.32-1.68z" fill="#948878"/><path d="M0 95.67c1.71.72 3.46 1.4 4.96 2.51.31 2.1-1.38 3.66-1.99 5.53 1.69.36 3.39.71 5.07 1.15-2.17 1.93-5.35 1.37-8.04 2.03z" fill="#b1a287"/><path d="M167.7 97.15c2.51-.63 5.05-1.11 7.63-1.45.17 4.3-5.2 1.3-7.63 1.45z" fill="#9d8d79"/><path d="M188.08 104.98c3.39-2.55-.45-7.49 3.56-9.38.13.56.38 1.7.51 2.26 3.99-.05 7.99-.37 11.98.01 1.69.09 5.08.26 6.78.35.62 1.61 1.35 3.17 1.96 4.78-4.16.85-8.66.45-12.73 2.12-3.02-.02-6.01-.1-9.03-.06z" fill="#bbb0a1"/><path d="M139.24 96.99c2.67.43 5.13 1.67 7.8 2.1 2.58 5.51-1.63 11.32-2.74 16.64.98.4 1.97.8 2.95 1.21-2.71.65-5.3 1.86-8.1 2.07-.05-.48-.14-1.44-.18-1.93 1.28-2.47.35-5.5.95-8.07 1.7-2.03.18-6.6-2.65-5.92-.3 1.02-.58 2.05-.85 3.08-.42-1.77-1.53-3.22-2.37-4.79 1.04-.33 2.06-.7 3.07-1.09.81-1.03 1.42-2.2 2.12-3.3m1.72 8.96c.02 2.36-.32 5.92 2.09 7.13-.26-2.28-.06-5.94-2.09-7.13z" fill="#252321"/><path d="M70.23 97.96l.7-.41c2.39 1.12 4.3 4.06 7.25 2.83-.67.95-1.46 1.81-2.11 2.78-.64 2.22 1.8 3.38 2.66 5.11.55 2.79.32 5.65.52 8.49-.31 5.75-.03 11.51.61 17.23.15 1.19-.94 1.97-1.37 2.98-2.21 2.61-.31 5.86-.22 8.82-.01 2.68-.15 5.36-.4 8.04-3.44 1.66-8.53.51-11 3.88 1.7.41 3.78.04 5.06 1.5.45 2.83-3.73 3.16-4.11 5.79 2.98-1.35 6.62-2.87 6.56-6.69 1.99-1.31 3.91-3.4 6.44-3.29 1.45 1.93 1.61 4.48 2.05 6.79-2.76 2.47-6.42 3.57-9.57 5.45 1.41 2.71 2.56 5.66 4.66 7.93 1.17-.9 2.21-1.94 3.33-2.89 4.37.97 7.98 6.88 12.71 3.72 3.64 3.36.23 8.26 1.45 12.38 1.54 3.55.31 9.05 3.59 11.61 1 .53 2.08.81 3.22.86l.9.12c.25.24.75.7 1 .93-.6.74-1.18 1.5-1.73 2.28 3.34 6.35.5 14.08-4.03 19.11-2.01 1.43-1.12 3.84-1.31 5.84l-.23.85H80.25c-.93-3.69-2.08-7.32-3.14-10.97-.07-4.09-.15-8.18-.23-12.26.05-1.69-.44-3.32-.9-4.92l-.72-2.12c-.84-3.12-1.1-6.35-1.52-9.54.64-1.75 1.43-3.44 2.15-5.16-2.32.48-5.8 2.23-6.89-.94-.18-1.11-.39-2.2-.65-3.29-1.06-3.58-.76-7.43-1.93-10.96-1.07-2.83-5.03-4.78-3.83-8.17 1.05-2.48-1.46-3.93-2.79-5.58 1.33-2.89 1.14-5.29-.59-7.2-.23-1.32-.46-2.63-.75-3.93-1.01-6.47 1.91-12.51 2.98-18.79.32-1.34.48-2.71.66-4.07.77-3.03 2.1-5.86 3.05-8.82 3.33-1.35 6.29-6.36 3.61-9.59.3-1.96.82-3.86 1.47-5.73z" fill="#0d0d0a"/><path d="M100 102.07c1.87-.45-.06-4.08 1.96-3.99.22 1.53.67 4.6.89 6.14.03.6.1 1.82.14 2.43-3.27 1.56-3.33 6.13-4.27 9.27-2.32.51-1.83-2.53-2.6-3.92-.63-3.02-1.68-5.94-2.1-9.01 1.97 1.7 4.1.02 5.98-.92z" fill="#29211b"/><path d="M14.88 101.1c4.49 1.25 9.19.81 13.77.37 1.09-.42 1.77.39 2.39 1.16-2.11.63-4.2 1.31-6.24 2.15-2.6.36-5.14-.31-7.65-.86-1.05-.71-2.19-1.41-2.27-2.82z" fill="#c3b6a6"/><path d="M137.27 103.09c2.83-.68 4.35 3.89 2.65 5.92-.6 2.57.33 5.6-.95 8.07-2.56 10.59 1.17 21.34 2.01 31.96-.35 2.79 5.51 6.78 2.29-1.88 1.52-10.05 2.58-20.2 3.98-30.22 1.02-2.97-1.61-10.3 3.47-8.15.41-1.96.79-3.93 1.43-5.84 1.86 1.5 4.62 3.13 3.83 5.96-1.64 3.58-4.58 6.91-4 11.13 5 .42 1.76-7.59 5.88-9.11 1.07 2.01 1.88 4.15 2.62 6.3-.93 4.24-1.39 8.81-3.68 12.57-1.17 2.05-4.45 4.79-1.72 6.97 2.74-1.04 5.53-2.23 7.87.25 2.08 1.27 3.68 3.15 5.06 5.13.02 1.71.08 5.14.1 6.85-.98 5.44-2.95 10.67-3.44 16.21-2.31 2.17-5.45 4.01-4.86 7.7-.38 3.84-.75 7.74-2.76 11.12-1.36 1.73-.33 6.81-3.36 3.93-.2-.48-.59-1.44-.79-1.92-1.28-2.36-3.24-4.48-5.94-5.14 1.23 1.82 2.65 3.49 4.07 5.16.96 1.91 1.08 4.07 1.3 6.16-.26 1.19-.52 2.39-.78 3.59-2.14 8.6-3.85 17.31-5.75 25.97-.47 2.7-.71 5.47-.92 8.22h-18.81c-.07-1.92-.14-3.85-.29-5.76.28-7.68.48-15.38-.54-23.01 1.36-2.88 1.8-6.06 2.17-9.2.96-2.32 1.15-4.64.57-6.95 0-.46.01-1.39.02-1.85.05-.49.17-1.48.23-1.98.53-3.4.89-6.81.81-10.26-.11-3.42.51-7-.81-10.26-.11-.38-.35-1.14-.47-1.52.08-4.16.22-8.31.43-12.45 1.5 1.8 1.82 4.1 2.09 6.35 3.95-2.12.38-7.87 1.74-11.1.42-7.9-1.03-16.02.81-23.79.8-2.66 1.75-5.27 2.48-7.96.43-1.35.78-2.72 1.11-4.09.27-1.03.55-2.06.85-3.08m9.76 41.92c.13 2.56-1.58 9.62 1.87 5.81-1.76-2.02 1.84-6.67-1.87-5.81m7.13 2.08c-.9 1.19-1.62 2.51-2.16 3.9.5 1.93 3.29 2.57 3.04 4.84-1.62.17-3.86-.18-3.02 2.21 2.22.03 6.32-.94 5.89-3.77-1.52-.02-2.12-.71-1.8-2.08 1.92-1.18 6.52-.79 5.76-3.98-1.88-2.58-5.19.53-7.71-1.12z" fill="#090b0c"/><path d="M15.22 104.39c.48-.12 1.45-.36 1.93-.47 2.51.55 5.05 1.22 7.65.86.58.08 1.74.25 2.32.33-3.05 3.62-8.42-1.6-11.91 1.1-1.25 1.45-2.35-.11-3.34-.95 1.12-.27 2.24-.56 3.35-.87z" fill="#9e9180"/><path d="M65.15 113.28c.39-3.46 1.85-6.64 3.61-9.59 2.68 3.23-.28 8.24-3.61 9.59z" fill="#241e14"/><path d="M117.96 114.9c1.49-3.64 1.88-7.8 3.99-11.13.29 3.77-.57 7.48-.76 11.23.5 2.5.04 7.81 3.7 5.04-.11 3.68.25 7.32 1.08 10.91.04 3.27.07 6.57-.01 9.85-.6.33-1.79.98-2.38 1.3-1.07-3.78-2.23-7.56-3.53-11.25-3.17-4.65-1.84-10.62-2.09-15.95z" fill="#bfbeba"/><path d="M127.72 105.75c2.24-1.02 4.61-1.97 7.13-1.79-.58 2.14-.45 4.27.46 6.3-.73 2.69-1.68 5.3-2.48 7.96-4.04-2.19-3.14-8.74-5.11-12.47z" fill="#544b43"/><path d="M177.93 104.69c-1.75.74-9 1.29-6.09-.84l6.09.2z" fill="#9a8c7a"/><path d="M217.95 105.12c3.96-.83 8.04-.69 12.05-.33v1.06c-2.59.21-5.76-.71-7.21 1.89-1.34 1.27.01 4.42-2.48 4.44.2-1.28.59-2.55.51-3.86-1.08-.98-2.78-1.51-2.87-3.2z" fill="#ab9f8f"/><path d="M126.99 106.06l.73-.31c1.97 3.73 1.07 10.28 5.11 12.47-1.84 7.77-.39 15.89-.81 23.79-1.36 3.23 2.21 8.98-1.74 11.1-.27-2.25-.59-4.55-2.09-6.35-.21 4.14-.35 8.29-.43 12.45-.34-1.04-.64-2.09-.88-3.15-1.01-8.16 2.27-17.43-.91-25.11-.03-3.6-.02-7.18.23-10.77.44-3.05.91-6.09.81-9.18.01-1.65-.03-3.29-.02-4.94z" fill="#171714"/><path d="M140.96 105.95c2.03 1.19 1.83 4.85 2.09 7.13-2.41-1.21-2.07-4.77-2.09-7.13z" fill="#3e3b37"/><path d="M98.72 115.92c.94-3.14 1-7.71 4.27-9.27 0 2.04-.02 4.07-.07 6.11-1.04.63-3.22.88-2.35 2.56.96 2.08-.51 3.21-2.18 4.13.34 6.48 1.24 13.06-.58 19.44-1.63 7.35-.24 15.33-3.02 22.43-.2 4.9-.54 9.8-.79 14.7-4.73 3.16-8.34-2.75-12.71-3.72-1.12.95-2.16 1.99-3.33 2.89-2.1-2.27-3.25-5.22-4.66-7.93 3.15-1.88 6.81-2.98 9.57-5.45-.44-2.31-.6-4.86-2.05-6.79-2.53-.11-4.45 1.98-6.44 3.29.06 3.82-3.58 5.34-6.56 6.69.38-2.63 4.56-2.96 4.11-5.79-1.28-1.46-3.36-1.09-5.06-1.5 2.47-3.37 7.56-2.22 11-3.88.25-2.68.39-5.36.4-8.04 1.27 2.24-.59 6.94 1.8 8.35.09-5.77-.11-11.56-1.58-17.17.43-1.01 1.52-1.79 1.37-2.98-.64-5.72-.92-11.48-.61-17.23.73 2.34 1.35 4.73 1.96 7.11l2.66-1.82c.16 2.34.58 4.64 1.27 6.87 2.49.04 6.62 1.09 4.51-4.44 2.96-4.06 2.28-9.32 4.04-13.78.66-1.57 1.8.86 2.43 1.3.77 1.39.28 4.43 2.6 3.92z" fill="#141412"/><path d="M102.99 106.65l.93.45c.09 1.65.28 4.96.37 6.62l-.14 1.08-1.14.2c-.02-.56-.07-1.68-.09-2.24.05-2.04.07-4.07.07-6.11z" fill="#747372"/><path d="M0 108.8c2.3.78 4.64 1.48 6.88 2.44.44 2.22-.4 4.38-1.25 6.38-.98.96-2.74 1.62-1.84 3.26-1.29.27-2.55.63-3.79 1.09z" fill="#b4a388"/><path d="M42.14 109.01c1.43-.14 3.01-.08 3.25 1.66 3.74 2.28 7.65-.14 11.55-.62 2.24 1.12 4.53 2.15 7.1 2.14-.22 1.25-.72 2.43-1.17 3.61-4.68-2.52-9.87-.36-14.87-.85-3.98-1.37-8.02.47-11.9-1.1.22-3.34 3.4-3.33 5.81-2.02.06-.71.18-2.12.23-2.82z" fill="#c2b6a6"/><path d="M126.02 111.01l.99-.01c.1 3.09-.37 6.13-.81 9.18-.09-.59-.26-1.78-.34-2.37z" fill="#423f38"/><path d="M200.9 113.77c2.62-1.15 5.13-2.85 8.09-2.86 1.25 2.95-3.09 1.17-2.86 3.08 4.56 1.11 9.24 1.27 13.55-.67.48 1.95 1.37 3.89 3.24 4.86 1.42-2.83 4.05-3.63 7.08-3.31v7.29c-2.89-1.38-5.19-1.13-6.9.75l-.84-.24c-1.93-.72-3.92-1.59-6.04-1.19-7.65.82-16.13-3.73-22.9 1.65 1.55-3.45-3.53-2.7-5.35-1.54-6.52-.72-13.35.23-19.64-1.91-1.66-.69-3.21.7-4.71 1.24-.51-1.04-.98-2.1-1.48-3.14-.11-.61-.32-1.82-.43-2.42 5.29.78 10.84-.51 15.61-2.91 1.62-.74 3.28 1.61 4.87.73 2.86-2.55 6.66.76 9.82.73.3 1.99-3.47.16-2.97 2.23-1.22 3.03 3.56 2.19 4.06.1.31-3.78 5.11-2.99 7.8-2.47z" fill="#aea291"/><path d="M100.57 115.32c-.87-1.68 1.31-1.93 2.35-2.56.02.56.07 1.68.09 2.24-.02 7.36.02 14.72-.05 22.08l-.2.84c-1.42 2.42-1.61 4.77-.56 7.06-.61 5.38-1.51 10.81-.99 16.25-.38 6.23-1.11 12.45-2.48 18.55-1.09 6.66-1.31 13.62.31 20.23-3.28-2.56-2.05-8.06-3.59-11.61-1.22-4.12 2.19-9.02-1.45-12.38.25-4.9.59-9.8.79-14.7 2.78-7.1 1.39-15.08 3.02-22.43 1.82-6.38.92-12.96.58-19.44 1.67-.92 3.14-2.05 2.18-4.13z" fill="#0a0d10"/><path d="M104.29 113.72c1.64 5.83.27 12.09.83 18.06-.15 7.07-.08 14.15-.15 21.22l-.97.01c0-5.35.04-10.7-.03-16.05.05-7.39-.04-14.78.18-22.16z" fill="#a6aab0"/><path d="M103.01 115l1.14-.2c-.22 7.38-.13 14.77-.18 22.16l-1.01.12c.07-7.36.03-14.72.05-22.08z" fill="#4c4f56"/><path d="M116.56 124.95c-.28-3.4.66-6.78 1.4-10.05.25 5.33-1.08 11.3 2.09 15.95 1.3 3.69 2.46 7.47 3.53 11.25.31 1.57.57 3.14.87 4.71.22 2.64-2.33 2.41-4.17 2.01-2.04-2.37-3.47-6.61-7.33-5.85.38 4.66 4.39 8.37 7.76 11.33 1.38.65 1.29 2.15 1.31 3.46-1.91-.22-3.86-.24-5.66.55-1.89 1.93-3.38 4.53-6.24 5.11.89 3.58 3.32 6.83 2.9 10.69-8.13-3.23-8.51-13.68-8.05-21.11.07-7.07 0-14.15.15-21.22 4.48 2.5 3.08 11.47 10.58 7.5 2.02 2.37 3.85 4.9 6.28 6.89.43-2.81-1.36-5.05-3.37-6.73-1.49-5.1-4.12-9.69-6.54-14.37 1.3-1.15 2.99-.11 4.49-.12z" fill="#c6c6c4"/><path d="M140.98 149.04c-.84-10.62-4.57-21.37-2.01-31.96.04.49.13 1.45.18 1.93 2.8-.21 5.39-1.42 8.1-2.07-1.4 10.02-2.46 20.17-3.98 30.22 3.22 8.66-2.64 4.67-2.29 1.88z" fill="#131516"/><path d="M124.89 120.04c.24-.56.72-1.68.97-2.23.08.59.25 1.78.34 2.37-.25 3.59-.26 7.17-.23 10.77-.83-3.59-1.19-7.23-1.08-10.91z" fill="#979895"/><path d="M162.14 117.78c.5 1.04.97 2.1 1.48 3.14l.38.82c-.07.88-.22 2.65-.29 3.53-1.58-2.21-1.9-4.85-1.57-7.49z" fill="#403c36"/><path d="M163.62 120.92c1.5-.54 3.05-1.93 4.71-1.24 6.29 2.14 13.12 1.19 19.64 1.91 1.82-1.16 6.9-1.91 5.35 1.54 6.77-5.38 15.25-.83 22.9-1.65 2.12-.4 4.11.47 6.04 1.19-1.35.17-2.7.35-4.05.54-8.54-.72-16.86-.45-24.99 2.05-7.44.9-14.99-3.37-22.21-.57-1.88-.9-3.77-1.79-5.9-1.81-.28-.28-.83-.85-1.11-1.14z" fill="#bbb09e"/><path d="M0 121.97c1.24-.46 2.5-.82 3.79-1.09 1.86.08 5.58.25 7.44.34-1.72.68-3.47 1.32-5.24 1.86-1.99.54-4.15 1.28-5.99-.08z" fill="#907f66"/><path d="M11.23 121.22c.39.01 1.18.03 1.57.05 3.02.8 5.92 2.1 9.01 2.58 2.88.42 5.69-.79 8.57-.41 3.37-.4 8.46 2.26 10.89-1.26 3.73-1.43 7.74-.88 11.55-.01.7.65 1.41 1.3 2.12 1.94 3.55 3.8-4.99 2.74-5.83-.24-1.51-1.03-6.74-1.41-5.69 1.81.7 3.87-4.85 1.85-7.41 2.38-1.85-.16-2.89 1.54-4.25 2.45-2.87-1.05-5.92-.72-8.89-1.14-.22 2.96 2.52 5.99 6.14 3.65 4.37 2.09 10.62-4.71 13.67.13-.4 1.93-.59 4.01-1.71 5.68-3.28-1.34-9.03-4.41-10.87.04 4.73 3.26 10.38 4.65 15.91 3.06.41 4.76-7.68.11-5.15 5.07-3 .09-5.98.83-8.98.23-3.54.42-5.7-2.09-6.92-5.18-.87-4.22-5.74-1.52-8.03-.12-1.36-.84-2.48-2-3.82-2.87-.92.68-1.77 1.49-2.8 2.03-.36-1.8-.64-3.63-1.27-5.36-.7-4.25-5.39-8.41-3.05-12.65 1.77-.54 3.52-1.18 5.24-1.86z" fill="#b0a392"/><path d="M12.8 121.27c4.15.06 8.27.45 12.4.86-1.13.58-2.27 1.14-3.39 1.72-3.09-.48-5.99-1.78-9.01-2.58z" fill="#978878"/><path d="M52.82 122.17c3.09-.57 6.2-1.03 9.28-.07-.18 1.36-.34 2.73-.66 4.07-.43-3.24-4.19-3.34-6.5-2.06-.71-.64-1.42-1.29-2.12-1.94z" fill="#918674"/><path d="M25.2 122.13c5.35-.28 10.71-.03 16.07.05-2.43 3.52-7.52.86-10.89 1.26-2.88-.38-5.69.83-8.57.41 1.12-.58 2.26-1.14 3.39-1.72z" fill="#a69786"/><path d="M164 121.74c.28.29.83.86 1.11 1.14.32 1.72.66 3.43.89 5.17l-.99-.04c-.45-.91-.88-1.83-1.3-2.74.07-.88.22-2.65.29-3.53z" fill="#726a61"/><path d="M223.1 122.91c1.71-1.88 4.01-2.13 6.9-.75v.67zm-4.89.3c1.35-.19 2.7-.37 4.05-.54l.84.24c.23 4.63-6.5 1.21-9.35 1.87 1.47-.58 2.98-1.04 4.46-1.57z" fill="#9a8e7e"/><path d="M0 123c1.84 1.36 4 .62 5.99.08-2.34 4.24 2.35 8.4 3.05 12.65-3.03.87-5.75 2.71-9.04 2.43z" fill="#a9977b"/><path d="M43.42 125.68c-1.05-3.22 4.18-2.84 5.69-1.81.84 2.98 9.38 4.04 5.83.24 2.31-1.28 6.07-1.18 6.5 2.06-1.07 6.28-3.99 12.32-2.98 18.79-2.23 1.78-5.55 1.33-7.67 3.01.51 2.55 8.21-1.89 7.21 2.04.54 3.22-4.8.45-6.73.17-3.52-.9-7.04-1.79-10.41-3.18-2.53-4.96 5.56-.31 5.15-5.07-5.53 1.59-11.18.2-15.91-3.06 1.84-4.45 7.59-1.38 10.87-.04 1.12-1.67 1.31-3.75 1.71-5.68-3.05-4.84-9.3 1.96-13.67-.13-3.62 2.34-6.36-.69-6.14-3.65 2.97.42 6.02.09 8.89 1.14 1.36-.91 2.4-2.61 4.25-2.45 2.56-.53 8.11 1.49 7.41-2.38z" fill="#b4a796"/><path d="M165.11 122.88c2.13.02 4.02.91 5.9 1.81 7.22-2.8 14.77 1.47 22.21.57-3.01.54-6.24.41-8.95 1.99-1.59 1.74-2.03 4.5-4.4 5.46-3.36-2.99-7.67-.99-11.03.92 4.22.31 8.66 2.16 10.16 6.41-3.38.64-6.63 1.76-9.83 2.97-.29-.21-.87-.64-1.16-.86.58-4.86-.74-9.5-2.01-14.1-.23-1.74-.57-3.45-.89-5.17z" fill="#b0a492"/><path d="M193.22 125.26c8.13-2.5 16.45-2.77 24.99-2.05-1.48.53-2.99.99-4.46 1.57-1.17.41-2.32.9-3.42 1.46.47 2.11.03 4.08-1.5 5.65-1.61-.01-4.05.77-4.5-1.39 1.29-1.23 2.6-2.6 2.84-4.45-2.64.74-4.94 2.24-7.39 3.41-4.29-.14-8.56.41-12.63 1.76-.78 2.45 2.64 1.59 3.89 2.79 6.85 2.06 13.82-2.29 20.79-.23 4.21 2.04 8.56 3.57 13.15 4.54-.06 1-.41 1.9-1.04 2.69-3.23-1.61-5.77.59-8.83 1.06-2.87-5.56-9.55-1.28-13.94.15-.89-1-1.67-2.25-3.16-2.28-6.34-.11-12.68.13-19.01.1-1.5-4.25-5.94-6.1-10.16-6.41 3.36-1.91 7.67-3.91 11.03-.92 2.37-.96 2.81-3.72 4.4-5.46 2.71-1.58 5.94-1.45 8.95-1.99z" fill="#ab9d88"/><path d="M223.1 122.91l6.9-.08v6.13c-4.89 1-9.72 5.34-14.91 3.32-2-.9-4.16-.57-6.26-.39 1.53-1.57 1.97-3.54 1.5-5.65 1.1-.56 2.25-1.05 3.42-1.46 2.85-.66 9.58 2.76 9.35-1.87z" fill="#aca091"/><path d="M199.78 129.46c2.45-1.17 4.75-2.67 7.39-3.41-.24 1.85-1.55 3.22-2.84 4.45.45 2.16 2.89 1.38 4.5 1.39 2.1-.18 4.26-.51 6.26.39-1.09.51-2.18.98-3.26 1.5-6.97-2.06-13.94 2.29-20.79.23-1.25-1.2-4.67-.34-3.89-2.79 4.07-1.35 8.34-1.9 12.63-1.76z" fill="#a2957f"/><path d="M165.01 128.01l.99.04c1.27 4.6 2.59 9.24 2.01 14.1-1.38-1.98-2.98-3.86-5.06-5.13-1.18-1.6-.98-3.39 1.05-4.04 2.51-.73 1.18-3.13 1.01-4.97z" fill="#494641"/><path d="M215.09 132.28c5.19 2.02 10.02-2.32 14.91-3.32v15.68c-3.34.68-4.86 4.09-8.08 4.89-.92.23-1.84.46-2.76.67-5.42-.25 2.9-2.08 2.19-4.54-.84-2.28 1.12-3.37 2.59-4.65.63-.79.98-1.69 1.04-2.69-4.59-.97-8.94-2.5-13.15-4.54 1.08-.52 2.17-.99 3.26-1.5z" fill="#a49888"/><path d="M125.97 130.95c3.18 7.68-.1 16.95.91 25.11l-.91.04-.11-.88c.03-4.81.13-9.61.1-14.42.08-3.28.05-6.58.01-9.85z" fill="#6a6b6b"/><path d="M0 138.16c3.29.28 6.01-1.56 9.04-2.43.63 1.73.91 3.56 1.27 5.36 1.03-.54 1.88-1.35 2.8-2.03 1.34.87 2.46 2.03 3.82 2.87 2.29-1.4 7.16-4.1 8.03.12 1.22 3.09 3.38 5.6 6.92 5.18 1.21 1 1.65 3.49 3.5 3.24 3.97-2.01 6.27 2.04 9.6 2.54 2.17-.7 3.99-2.32 6.29-2.83 1.93.28 7.27 3.05 6.73-.17 1-3.93-6.7.51-7.21-2.04 2.12-1.68 5.44-1.23 7.67-3.01.29 1.3.52 2.61.75 3.93-1.35 2.89-1.15 5.28.59 7.2 1.33 1.65 3.84 3.1 2.79 5.58-1.2 3.39 2.76 5.34 3.83 8.17-1.29 3.39-4.24 1.17-6.51.32-3.47.6-6.86 1.63-10.39 1.86-3.5.38-7.08 1.23-10.5.07-1.49-2.04-2.01-4.18.15-5.91-1.62.43-4.66.9-4.05-1.79 1.56-.4 3.12-.91 4.09-2.3-3.42.77-6.62.19-9.2-2.3 1.2-2.55 4.45-2.72 6.33-4.58-4.57.53-10.05-1.86-14.16.99-1.51 1.5-2.7-1.1-4.25-1.34-.09 3.51 3.34 4.58 6.11 3.26-.7 3.09-.34 8.83-5.03 7.99-1.96-.57-3.92-1.09-5.9-1.55-.61-1.2-1.06-3.07-2.78-2.13-1.77.91-2.07-1.52-2.78-2.58 1.17-.65 2.7-1.11 2.52-2.76-3.85-1.54-1.5-5.65-3.97-8.12-1.49-2.26-.64-5.3-1.3-7.84-1.59-.16-3.2-.17-4.8-.21v-2.76m12.19 8.01c-.92.68-1.35 1.61-1.26 2.78 6.7.08 13.41.11 20.12.08l-.17-.84c-6.13-1.55-12.46-1.19-18.69-2.02m28.97 9.7c.73 2.6 1.29 5.25 2.11 7.82 1.34.32 2.84.48 3.07 2.15 3.39.53 15.17-1.94 4-2.34-2.45-.23-5.48-1.62-5.33-4.49.47-2.4-2.24-2.52-3.85-3.14z" fill="#a99c8a"/><path d="M78.49 136.97c1.47 5.61 1.67 11.4 1.58 17.17-2.39-1.41-.53-6.11-1.8-8.35-.09-2.96-1.99-6.21.22-8.82z" fill="#807c70"/><path d="M102.96 137.08l1.01-.12c.07 5.35.03 10.7.03 16.05l-.24 2.78c-1.2 7.56-.78 15.26-.65 22.89-.95 1.68-.67 3.5-.21 5.29a88.69 88.69 0 0 1-3.99-2.07c-.04-.53-.14-1.59-.18-2.12 1.37-6.1 2.1-12.32 2.48-18.55.72-5.41 1.4-10.82 1.84-16.25-.07-1.77-.22-5.3-.29-7.06z" fill="#677a87"/><path d="M102.2 144.98c-1.05-2.29-.86-4.64.56-7.06.07 1.76.22 5.29.29 7.06z" fill="#272f39"/><path d="M201.17 142.22c4.39-1.43 11.07-5.71 13.94-.15 3.06-.47 5.6-2.67 8.83-1.06-1.47 1.28-3.43 2.37-2.59 4.65.71 2.46-7.61 4.29-2.19 4.54-3.07.58-6.16.72-9.24 1.13-4.58.6-9.21-.38-13.79-.4-1.04-4.19 9.56 2.06 8.96-2.65-2.79.18-5.55.45-8.33.61 2.14-1.61 6.66-3.3 4.41-6.67z" fill="#a2937c"/><path d="M169.17 143.01c3.2-1.21 6.45-2.33 9.83-2.97 6.45 3.15 13.26.25 19.96 2.01-.24-.53-.72-1.58-.95-2.11 1.49.03 2.27 1.28 3.16 2.28 2.25 3.37-2.27 5.06-4.41 6.67-1.88.69-3.85 1.05-5.85 1.16.73-1.03 1.48-2.04 2.14-3.11-3.74-.7-6.26 2.25-9.04 4.14-4.93-.14-9.88.29-14.78-.27l-.52-1.79c.5-1.96.56-4 .46-6.01z" fill="#a79985"/><path d="M179 140.04c6.33.03 12.67-.21 19.01-.1.23.53.71 1.58.95 2.11-6.7-1.76-13.51 1.14-19.96-2.01z" fill="#9a8c77"/><path d="M0 140.92c1.6.04 3.21.05 4.8.21.66 2.54-.19 5.58 1.3 7.84 2.47 2.47.12 6.58 3.97 8.12-3.33-.56-6.7-.89-10.07-1.16z" fill="#a59376"/><path d="M123.58 142.1c.59-.32 1.78-.97 2.38-1.3.03 4.81-.07 9.61-.1 14.42-.48-2.82-.8-5.63-1.41-8.41-.3-1.57-.56-3.14-.87-4.71z" fill="#a3a4a5"/><path d="M168.01 142.15c.29.22.87.65 1.16.86.1 2.01.04 4.05-.46 6.01l-.6-.02c-.02-1.71-.08-5.14-.1-6.85z" fill="#3c382e"/><path d="M112.95 142.97c3.86-.76 5.29 3.48 7.33 5.85 1.84.4 4.39.63 4.17-2.01.61 2.78.93 5.59 1.41 8.41l.11.88c.21 2.21-.14 4.4-2.12 5.7-3.21-.81-9.9-6.98-6.89 2.19.16 5.59-.47 14.47 5.79 17.37 1.61.96 3.4 1.53 5.25 1.87-.01.46-.02 1.39-.02 1.85-.3.18-.89.54-1.19.71l-2.6.56c-2.85-.23-5.41-1.5-8.08-2.41.21 1.29.55 2.55.7 3.85a36.157 36.157 0 0 1-8.05 4.72c-2.35-1.77-4.94-4.58-3.27-7.9 1.98-.89.37-2.58-.16-3.89-2.36-8.01-.47-16.69-1.57-24.93l.24-2.78.97-.01c-.46 7.43-.08 17.88 8.05 21.11.42-3.86-2.01-7.11-2.9-10.69 2.86-.58 4.35-3.18 6.24-5.11 1.8-.79 3.75-.77 5.66-.55-.02-1.31.07-2.81-1.31-3.46-3.37-2.96-7.38-6.67-7.76-11.33z" fill="#b8bcc0"/><path d="M102.2 144.98h.85c-.44 5.43-1.12 10.84-1.84 16.25-.52-5.44.38-10.87.99-16.25z" fill="#4a5a61"/><path d="M147.03 145.01c3.71-.86.11 3.79 1.87 5.81-3.45 3.81-1.74-3.25-1.87-5.81z" fill="#373939"/><path d="M221.92 149.53c3.22-.8 4.74-4.21 8.08-4.89v23.44c-2.11.87-3.95-.09-5.66-1.29-.79-2.19-3.46-2.16-5.29-2.99.86-1.4 1.17-3.02.85-4.64-3.92-1.85-8.53-.13-12.05 1.96l-2.12-1.12c.47-3 4.08-3.01 6.44-3.13 1.41.01 4.22.01 5.63.01 1.08-1.64 1.44-3.75 2.9-5.12 1.38-2.62 6.64.98 7.3-1.72-1.52-.13-4.56-.39-6.08-.51z" fill="#9c8f7d"/><path d="M12.19 146.17c6.23.83 12.56.47 18.69 2.02l.17.84c-6.71.03-13.42 0-20.12-.08-.09-1.17.34-2.1 1.26-2.78z" fill="#938675"/><path d="M31.88 147.23c3 .6 5.98-.14 8.98-.23 3.37 1.39 6.89 2.28 10.41 3.18-2.3.51-4.12 2.13-6.29 2.83-3.33-.5-5.63-4.55-9.6-2.54-1.85.25-2.29-2.24-3.5-3.24z" fill="#a29584"/><path d="M154.16 147.09c2.52 1.65 5.83-1.46 7.71 1.12.76 3.19-3.84 2.8-5.76 3.98-.32 1.37.28 2.06 1.8 2.08.43 2.83-3.67 3.8-5.89 3.77-.84-2.39 1.4-2.04 3.02-2.21.25-2.27-2.54-2.91-3.04-4.84.54-1.39 1.26-2.71 2.16-3.9z" fill="#131412"/><path d="M184.01 151.08c2.78-1.89 5.3-4.84 9.04-4.14-.66 1.07-1.41 2.08-2.14 3.11-2.31.32-4.59.76-6.9 1.03z" fill="#b4a590"/><path d="M196.76 148.89c2.78-.16 5.54-.43 8.33-.61.6 4.71-10-1.54-8.96 2.65 4.58.02 9.21 1 13.79.4-.16 2.16 1.04 3.89 2.25 5.54-2.36.12-5.97.13-6.44 3.13-1.02-.4-1.73-1.22-2.47-1.98-4.97-2.96-11.76-1.94-16.95.22l-.22.8c0 1.53-1.73 3.73.14 4.68 3.45-.15 7.33-1.31 9.75 1.89-3.78 4.72 5.52 1.69 8.22 2.55-1.42.62-2.86 1.2-4.2 1.98.34 1.38 1.47 2.36 2.08 3.61-2.52.45-5.02 1-7.55 1.38-1.25-1.02-2.84-1.05-4.37-1.05l-2.32-.2c2.48-1.53 5.18-3.26 8.16-2.01-.01-.44-.04-1.34-.05-1.78l-6.02-.24c.05-.41.16-1.22.22-1.62 1.18-.44 2.23-1.15 3.17-1.98-2.79-.15-8.36-.44-11.15-.59-1.72-2.22-7.22-3.27-7.32.21-.28 1.94-3.96.27-3.54 2.86-2.96 3.02-7.2 8.25-11.5 4.18-.59-3.69 2.55-5.53 4.86-7.7 3.01 1.19 4.91-2.1 6.59-4.02 4.66 1.2 9.26-1.14 12.81-4.03-1.06-1.26-2.26-2.44-3-3.92.95-.76 1.95-1.45 2.94-2.16 2.31-.27 4.59-.71 6.9-1.03 2-.11 3.97-.47 5.85-1.16z" fill="#978973"/><path d="M59.21 148.89c1.73 1.91 1.92 4.31.59 7.2-1.74-1.92-1.94-4.31-.59-7.2z" fill="#423c31"/><path d="M168.11 149l.6.02.52 1.79c4.9.56 9.85.13 14.78.27-.99.71-1.99 1.4-2.94 2.16.74 1.48 1.94 2.66 3 3.92-3.55 2.89-8.15 5.23-12.81 4.03-1.68 1.92-3.58 5.21-6.59 4.02.49-5.54 2.46-10.77 3.44-16.21z" fill="#9d907c"/><path d="M219.16 150.2c.92-.21 1.84-.44 2.76-.67 1.52.12 4.56.38 6.08.51-.66 2.7-5.92-.9-7.3 1.72-1.46 1.37-1.82 3.48-2.9 5.12-1.41 0-4.22 0-5.63-.01-1.21-1.65-2.41-3.38-2.25-5.54 3.08-.41 6.17-.55 9.24-1.13z" fill="#91826a"/><path d="M17.93 154.86c1.55.24 2.74 2.84 4.25 1.34 4.11-2.85 9.59-.46 14.16-.99-1.88 1.86-5.13 2.03-6.33 4.58 2.58 2.49 5.78 3.07 9.2 2.3-.97 1.39-2.53 1.9-4.09 2.3-.61 2.69 2.43 2.22 4.05 1.79-2.16 1.73-1.64 3.87-.15 5.91-4.22.47-8.08-.96-12-2.11.14 2.63-1.27 7.26 4.86 4.36 5.51.86 11.06-.68 16.47 1.23 2.81-.08 9.07 1.47 8.65-2.39-2.65.27-5.14-.11-7.48-1.16 3.53-.23 6.92-1.26 10.39-1.86 2.27.85 5.22 3.07 6.51-.32 1.17 3.53.87 7.38 1.93 10.96.2 2.31-1.87 2.3-3.58 2.53-1.51-.66-3.26-1.89-4.82-.62-2.49 1.74-5.27-.68-7.95-.46-3.28.48-6.58 0-9.87-.06-4.12 2.16-8.93 3.41-13.35 1.04 1.73-1.34 6.88.96 6.02-2-2.57-.97-5.35-1.56-8.02-.59.11-1.15.16-2.3.14-3.45-4.94-.9-10.03-1.78-14.94-.3-2.52.89-2.52-3.02-4.86-2.88-1.73-.09-3.47-.05-5.2-.09 1.43-1.46 4.42-2.34 3.83-4.85-.42-2.23 1.51-4.54-.24-6.48-1.39-1.65.97-2.1 2.04-2.74.71 1.06 1.01 3.49 2.78 2.58 1.72-.94 2.17.93 2.78 2.13-4.77 4.24 9.6 5.63 5.9 1.55 4.69.84 4.33-4.9 5.03-7.99-2.77 1.32-6.2.25-6.11-3.26z" fill="#a39584"/><path d="M0 155.93c3.37.27 6.74.6 10.07 1.16.18 1.65-1.35 2.11-2.52 2.76-1.07.64-3.43 1.09-2.04 2.74 1.75 1.94-.18 4.25.24 6.48.59 2.51-2.4 3.39-3.83 4.85 1.73.04 3.47 0 5.2.09 1.17 3.04.13 6.04-1.21 8.83-1.9-.89-3.87-1.66-5.91-2.16v-21.85c1.85.36 5.05.4 5.69-1.64-1.95-.63-3.82.76-5.69 1.15v-2.41z" fill="#9b8669"/><path d="M41.16 155.87c1.61.62 4.32.74 3.85 3.14-.15 2.87 2.88 4.26 5.33 4.49 11.17.4-.61 2.87-4 2.34-.23-1.67-1.73-1.83-3.07-2.15-.82-2.57-1.38-5.22-2.11-7.82z" fill="#9d8f7d"/><path d="M103.11 178.68c-.13-7.63-.55-15.33.65-22.89 1.1 8.24-.79 16.92 1.57 24.93-.25.36-.77 1.07-1.03 1.42-.35-1.17-.74-2.33-1.19-3.46z" fill="#879ba7"/><path d="M125.97 156.1l.91-.04c.24 1.06.54 2.11.88 3.15.12.38.36 1.14.47 1.52-1.97 2.31-4.67 3.77-7.08 5.54-.56 3.09 3.96 4 5.44 6.18.15 1.6.43 4.81.58 6.41-1.54-.11-.64-3.12-2.24-2.6-1.25.22-2.49.55-3.71.88.45 1.42 1.02 2.81 1.53 4.22-6.26-2.9-5.63-11.78-5.79-17.37-3.01-9.17 3.68-3 6.89-2.19 1.98-1.3 2.33-3.49 2.12-5.7z" fill="#a5aeb6"/><path d="M186.31 158.24c5.19-2.16 11.98-3.18 16.95-.22l-.28.86c-4.75.11-9.48.12-14.22.29-.67-.04-2-.1-2.67-.13z" fill="#a5997e"/><path d="M0 158.34c1.87-.39 3.74-1.78 5.69-1.15-.64 2.04-3.84 2-5.69 1.64z" fill="#776242"/><path d="M203.26 158.02c.74.76 1.45 1.58 2.47 1.98l2.12 1.12c1.25 1.04 3.47 1.63 3.14 3.66-.7.1-2.11.31-2.82.42-3.99-.48-8.72 3.25-12.19.41-2.42-3.2-6.3-2.04-9.75-1.89-1.87-.95-.14-3.15-.14-4.68.67.03 2 .09 2.67.13 3.96 3.32 9.36.25 13.92.59l.3-.88z" fill="#908269"/><path d="M207.85 161.12c3.52-2.09 8.13-3.81 12.05-1.96.32 1.62.01 3.24-.85 4.64-1.61.78-4.51.69-4.16 3.17 3.12.05 6.31.04 9.45-.18 1.71 1.2 3.55 2.16 5.66 1.29v3.95c-3.94-.3-7.95-.61-11.56-2.38-3.38 1.96-7.42 3.41-11.35 2.59-2.62 1.34-5.11 3.02-8.18 3.06.7 1 1.57 2.15 2.97 1.5 3.94-.95 7.8-2.74 11.89-2.69 3.8 2.81-1.09 9.47-5.41 6.37-2.02-.65-2.1 2.76-4.17 2.31-3.52-1.18-7.36-2.52-10.92-.76-1.44-1.35-5.18-3.64-5.64-.35-1.51 3.14 3.69 2.04 5.54 1.55l.81-.02c.84 1.15 1.65 2.33 2.5 3.49 3.64 2.73 5.06-.51 6.89-2.34 3.41-1.11 7.27-.7 10.44-2.52 4.95-2.89 10.87-.7 16.19-1.82v5.93c-3.14 1.61-6.75.66-9.26-1.66-1.84-2.06-9.45-2.27-5.04.11-.91 2.33-4.45 4.21-2.56 6.87-1 .4-2.02.7-3.07.9-1.44-.05-2.87-.1-4.29-.14-3.62-.54-7.25-.98-10.9-1.1.36-.6 3.58-2.06 1.21-1.93-2.56-.17-7.5-1.52-8.21 1.79-6.45-2.86-14.64-1.89-19.77 3.13-3.43-3.46-8.84-2.75-13.14-1.82 0 1.89.64 3.7 1.41 5.4 1.91.44 3.03 1.85 3.66 3.64-3.27-.94-5.5-3.8-8.49-5.33.26-1.2.52-2.4.78-3.59.45-1.43.87-2.86 1.36-4.26 3.03 2.88 2-2.2 3.36-3.93 2.25-.76 8.71 1.98 7.33-1.95 6.06 2.65 3.82-2.35 4.06-4.95 1.19-.73 2.53-.88 3.88-.57 2.85 1.32 6.28-6.31-2.4-1.7-.14-2.46 2.68-3.13 4.28-4.38 5.11 2.88 10.48-.1 15.73-.63l6.02.24c.01.44.04 1.34.05 1.78-2.98-1.25-5.68.48-8.16 2.01l2.32.2c-1.24.73-3.15.86-3.33 2.62 2.64-.09 5.29-.4 7.7-1.57 2.53-.38 5.03-.93 7.55-1.38-.61-1.25-1.74-2.23-2.08-3.61 1.34-.78 2.78-1.36 4.2-1.98 1.47-.91 5.73-.43 3.97-2.96.71-.11 2.12-.32 2.82-.42.33-2.03-1.89-2.62-3.14-3.66m-35.02 18.95c2.05 4.53 8.55.65 12.17 1.92.3-5.08-9.21-.36-12.17-1.92m2.16 2.94l.02.97c2.75.01 8.25.01 11 .01l-.02-.97c-2.75-.01-8.25-.01-11-.01z" fill="#948672"/><path d="M188.76 159.17c4.74-.17 9.47-.18 14.22-.29l-.3.88c-4.56-.34-9.96 2.73-13.92-.59z" fill="#7f7259"/><path d="M121.15 166.27c2.41-1.77 5.11-3.23 7.08-5.54-.12 3.41-.26 6.85-.22 10.27-.03 2.77-.04 5.54-.04 8.32l-.8-.46c-.15-1.6-.43-4.81-.58-6.41-1.48-2.18-6-3.09-5.44-6.18z" fill="#8597a4"/><path d="M128.23 160.73c1.32 3.26.7 6.84.81 10.26l-1.03.01c-.04-3.42.1-6.86.22-10.27z" fill="#2a3438"/><path d="M174.85 165.87c.1-3.48 5.6-2.43 7.32-.21-1.37.34-2.51 1.14-3.49 2.14 2.87.11 8.6.32 11.47.43-.06.4-.17 1.21-.22 1.62-5.25.53-10.62 3.51-15.73.63-1.6 1.25-4.42 1.92-4.28 4.38 8.68-4.61 5.25 3.02 2.4 1.7-1.35-.31-2.69-.16-3.88.57-.24 2.6 2 7.6-4.06 4.95 1.38 3.93-5.08 1.19-7.33 1.95 2.01-3.38 2.38-7.28 2.76-11.12 4.3 4.07 8.54-1.16 11.5-4.18-.42-2.59 3.26-.92 3.54-2.86z" fill="#9a8d7b"/><path d="M214.89 166.97c-.35-2.48 2.55-2.39 4.16-3.17 1.83.83 4.5.8 5.29 2.99-3.14.22-6.33.23-9.45.18z" fill="#a79989"/><path d="M19.01 166.11c3.7 4.08-10.67 2.69-5.9-1.55 1.98.46 3.94.98 5.9 1.55z" fill="#928575"/><path d="M195.98 165.61c3.47 2.84 8.2-.89 12.19-.41 1.76 2.53-2.5 2.05-3.97 2.96-2.7-.86-12 2.17-8.22-2.55z" fill="#aea089"/><path d="M178.68 167.8c.98-1 2.12-1.8 3.49-2.14 2.79.15 8.36.44 11.15.59-.94.83-1.99 1.54-3.17 1.98-2.87-.11-8.6-.32-11.47-.43z" fill="#b2a390"/><path d="M218.44 169.65c3.61 1.77 7.62 2.08 11.56 2.38v7.99c-5.32 1.12-11.24-1.07-16.19 1.82-3.17 1.82-7.03 1.41-10.44 2.52-1.83 1.83-3.25 5.07-6.89 2.34-.85-1.16-1.66-2.34-2.5-3.49 3.39-.16 6.82-.12 10.21-.42 2.07.45 2.15-2.96 4.17-2.31 4.32 3.1 9.21-3.56 5.41-6.37-4.09-.05-7.95 1.74-11.89 2.69-1.4.65-2.27-.5-2.97-1.5 3.07-.04 5.56-1.72 8.18-3.06 3.93.82 7.97-.63 11.35-2.59z" fill="#9b8e7d"/><path d="M27.02 169.98c3.92 1.15 7.78 2.58 12 2.11 3.42 1.16 7 .31 10.5-.07 2.34 1.05 4.83 1.43 7.48 1.16.42 3.86-5.84 2.31-8.65 2.39-5.41-1.91-10.96-.37-16.47-1.23-6.13 2.9-4.72-1.73-4.86-4.36z" fill="#968776"/><path d="M128.01 171l1.03-.01c.08 3.45-.28 6.86-.81 10.26-.06-.48-.19-1.45-.26-1.93 0-2.78.01-5.55.04-8.32z" fill="#171d20"/><path d="M7.12 174.01c2.34-.14 2.34 3.77 4.86 2.88 4.91-1.48 10-.6 14.94.3.02 1.15-.03 2.3-.14 3.45-.72 1.01-.63 1.95.25 2.85-1.04.29-2.09.57-3.14.84-6.15.76-12.09.09-17.98-1.49 1.34-2.79 2.38-5.79 1.21-8.83z" fill="#9e9081"/><path d="M190.16 174.08c1.53 0 3.12.03 4.37 1.05-2.41 1.17-5.06 1.48-7.7 1.57.18-1.76 2.09-1.89 3.33-2.62z" fill="#766653"/><path d="M121.22 177.14c1.22-.33 2.46-.66 3.71-.88 1.6-.52.7 2.49 2.24 2.6l.8.46c.07.48.2 1.45.26 1.93-.06.5-.18 1.49-.23 1.98-1.85-.34-3.64-.91-5.25-1.87-.51-1.41-1.08-2.8-1.53-4.22z" fill="#96a2a7"/><path d="M103.11 178.68c.45 1.13.84 2.29 1.19 3.46-1.77 6.65-.48 13.56 1.54 20l-.94-.07-.74-.15c-.25-.23-.75-.69-1-.93-1.04-4.16-2.2-8.31-3.97-12.22l-.28-6.87c1.32.72 2.64 1.42 3.99 2.07-.46-1.79-.74-3.61.21-5.29z" fill="#738693"/><path d="M26.78 180.64c2.67-.97 5.45-.38 8.02.59.86 2.96-4.29.66-6.02 2-.43.07-1.31.19-1.75.26-.88-.9-.97-1.84-.25-2.85z" fill="#afa292"/><path d="M99.04 200.01c-1.62-6.61-1.4-13.57-.31-20.23.04.53.14 1.59.18 2.12l.28 6.87c-1.68 4.73 1.22 8.23 3.07 12.1a7.5 7.5 0 0 1-3.22-.86z" fill="#3a454b"/><path d="M172.83 180.07c2.96 1.56 12.47-3.16 12.17 1.92-3.62-1.27-10.12 2.61-12.17-1.92z" fill="#a89984"/><path d="M187.63 181.68c.46-3.29 4.2-1 5.64.35l-.1 1.2c-1.89-.36-3.72-.95-5.54-1.55z" fill="#a79881"/><path d="M0 180.68c2.04.5 4.01 1.27 5.91 2.16 3.32 2.59-.26 4.88-1.91 7.19 6.47 3.76.76 12.78 5.95 17.68-.21.76-.4 1.53-.56 2.31-.42 1.86-.94 3.7-1.2 5.59 1.29.44 2.78.68 3.07 2.26-1.75.09-3.79-.01-3.71 2.32-.46-.59-.91-1.18-1.36-1.78 1.01-1.25-.89-1.5-1.09-2.6-.42-2.83 2.95-4.96.74-7.59-1.96.28-3.98.94-5.84-.09v-12.19c1.97-.72 4.14-.93 5.95-2.06-.47-2.25-4.12-1.82-5.95-2.82z" fill="#8b775b"/><path d="M68.35 180.8c.26 1.09.47 2.18.65 3.29-1.55 1.23-3.02.52-4.23-.76 1.71-.23 3.78-.22 3.58-2.53z" fill="#786e60"/><path d="M105.33 180.72c.53 1.31 2.14 3 .16 3.89-1.67 3.32.92 6.13 3.27 7.9 4.8 4.08 8.63-4.83 13.28-5.54-5.4 4.51 2.64 9.04 1.44 14.33-2.01.59-4.03 1.08-6.07 1.53-3.53-.72-7.1-.97-10.67-.6l-.9-.09c-2.02-6.44-3.31-13.35-1.54-20 .26-.35.78-1.06 1.03-1.42z" fill="#95a7b2"/><path d="M146.96 180.9c2.7.66 4.66 2.78 5.94 5.14-.47.01-1.4.02-1.87.02-1.42-1.67-2.84-3.34-4.07-5.16z" fill="#878f94"/><path d="M193.27 182.03c3.56-1.76 7.4-.42 10.92.76-3.39.3-6.82.26-10.21.42l-.81.02z" fill="#877863"/><path d="M28.78 183.23c4.42 2.37 9.23 1.12 13.35-1.04 3.29.06 6.59.54 9.87.06 2.68-.22 5.46 2.2 7.95.46 2.53.63 7.62 4.98-1.91 2.29-6.3 1.14-12.71-.53-18.93.97-2.88-.46-5.19 2.28-8.01 1.01-2.47-.85-6.69.44-7.21-2.65 1.05-.27 2.1-.55 3.14-.84.44-.07 1.32-.19 1.75-.26z" fill="#8b7d6d"/><path d="M59.95 182.71c1.56-1.27 3.31-.04 4.82.62 1.21 1.28 2.68 1.99 4.23.76 1.09 3.17 4.57 1.42 6.89.94-.72 1.72-1.51 3.41-2.15 5.16-1.4-.36-2.61-1.13-3.76-1.97-1.98 1.8-4.48 2.76-6.83 3.93.49 2.51 1.51 5.3-.45 7.48-1.81.5-3.64.92-5.45 1.43 1.74-3.65-3.66-2.04-5.89-3.11.23-2.63 2.73-7.36-4.36-4-6.62-.56-13.25-.65-19.88-.8-5.42 3.51-12.68 1.1-18.22-1.27 1.89-4.2 7.01-3.07 10.78-2.64 1.58 1.65 2.42 4.44 5.85 2.83-1.53-4.03 5.47-4.03 3.94 0 2.6-.68 5.19-1.49 7.91-1.34.47-1.62 1.1-3.19 1.73-4.76 6.22-1.5 12.63.17 18.93-.97 9.53 2.69 4.44-1.66 1.91-2.29z" fill="#9b8c7a"/><path d="M193.17 183.23c-1.85.49-7.05 1.59-5.54-1.55 1.82.6 3.65 1.19 5.54 1.55z" fill="#85765f"/><path d="M5.91 182.84c5.89 1.58 11.83 2.25 17.98 1.49.52 3.09 4.74 1.8 7.21 2.65 2.82 1.27 5.13-1.47 8.01-1.01-.63 1.57-1.26 3.14-1.73 4.76-2.72-.15-5.31.66-7.91 1.34 1.53-4.03-5.47-4.03-3.94 0-3.43 1.61-4.27-1.18-5.85-2.83-3.77-.43-8.89-1.56-10.78 2.64 5.54 2.37 12.8 4.78 18.22 1.27 6.63.15 13.26.24 19.88.8 7.09-3.36 4.59 1.37 4.36 4 2.23 1.07 7.63-.54 5.89 3.11 2.32 1.36 2.64 3.42 1.71 5.85-.47.05-1.39.15-1.85.19-2.72.93-6.88-1.42-8.3 1.88 1.95 2.86 5.27 2.6 8.27 2.02-.97 1.29-2.07 2.49-3.05 3.78 2.38.57 5.28.42 7.18 2.09l-3.45.4-1.76-.64c-5.59-1.23-11.29.84-16.93-.31-3.77-.68-7.31 1.19-11.01 1.63-3.33-1.16-5.61-4.27-5.18-7.88 2.7-.03 5.3-.77 7.97-.99 3.52 4.21 9.28 2.77 14.17 2.91 1.14-3.67-3.17-3.7-5.7-3.67-5.45.87-10.86-.47-16.32-.3-4.31-.55-8.92 1.52-13.05-.31-5.19-4.9.52-13.92-5.95-17.68 1.65-2.31 5.23-4.6 1.91-7.19z" fill="#938572"/><path d="M174.99 183.01c2.75 0 8.25 0 11 .01l.02.97c-2.75 0-8.25 0-11-.01z" fill="#7d6e58"/><path d="M215.7 184.4c-4.41-2.38 3.2-2.17 5.04-.11 2.51 2.32 6.12 3.27 9.26 1.66v7.77c-2.27 1.42-4.38 3.09-6.76 4.34-.3-1.07-.57-2.14-.81-3.21-.4-1.44 2.57-.51 2.65-2.05.45-.8.79-1.64 1-2.53-4.48.43-8.94-2.27-12.94 1-1.89-2.66 1.65-4.54 2.56-6.87z" fill="#978b7c"/><path d="M116.11 183.94c2.67.91 5.23 2.18 8.08 2.41-.54.15-1.61.46-2.15.62-4.65.71-8.48 9.62-13.28 5.54 2.87-1.21 5.58-2.81 8.05-4.72-.15-1.3-.49-2.56-.7-3.85z" fill="#a9b3bb"/><path d="M126.79 185.79c.3-.17.89-.53 1.19-.71.58 2.31.39 4.63-.57 6.95-.64-2.01-.86-4.14-.62-6.24z" fill="#606e77"/><path d="M124.19 186.35l2.6-.56c-.24 2.1-.02 4.23.62 6.24-.37 3.14-.81 6.32-2.17 9.2-.44.02-1.32.05-1.76.07 1.2-5.29-6.84-9.82-1.44-14.33.54-.16 1.61-.47 2.15-.62z" fill="#7e94a1"/><path d="M151.03 186.06c.47 0 1.4-.01 1.87-.02.2.48.59 1.44.79 1.92-.49 1.4-.91 2.83-1.36 4.26-.22-2.09-.34-4.25-1.3-6.16z" fill="#57554e"/><path d="M63.15 192.15c2.35-1.17 4.85-2.13 6.83-3.93 1.15.84 2.36 1.61 3.76 1.97.42 3.19.68 6.42 1.52 9.54-2.84.06-5.67.2-8.5.41 2.61 2.19 6.11 1.4 9.22 1.71.46 1.6.95 3.23.9 4.92-.27 3.65-4.02 4.1-6.68 2.02-3.18-2.52-7.46-1.57-11.24-1.88.93-2.43.61-4.49-1.71-5.85 1.81-.51 3.64-.93 5.45-1.43 1.96-2.18.94-4.97.45-7.48z" fill="#917c5b"/><path d="M187.88 190.79c.71-3.31 5.65-1.96 8.21-1.79 2.37-.13-.85 1.33-1.21 1.93-1.75-.04-5.25-.11-7-.14z" fill="#a29380"/><path d="M99.19 188.77c1.77 3.91 2.93 8.06 3.97 12.22l-.9-.12c-1.85-3.87-4.75-7.37-3.07-12.1z" fill="#616f75"/><path d="M168.11 193.92c5.13-5.02 13.32-5.99 19.77-3.13 1.75.03 5.25.1 7 .14 3.65.12 7.28.56 10.9 1.1-.14 2.61 2.66 1.85 4.37 2.19-1.26.97-3.62 1.48-3.08 3.54 1.68.46 3.36.9 5.07 1.27-.34.43-1.03 1.29-1.37 1.72-3.79.57-2.06 3.79-1.62 6.37-2.46.46-4.93.83-7.41 1.11-1.33.08-2.64.32-3.93.61-2.71.47-5.74 1.66-7.79-.9-3.61-.93-7.36-1.22-11.25-.88-2.9.26-6.41-1.07-8.83.96-1.64-.09-3.26-.25-4.89-.41-4.73-.75-9.45.1-14.16.56 2.34 4.74 7.62 3.7 12.09 3.9-.64.98-1.36 1.91-2 2.89 5.38.27 10.77.45 16.15.21-.97 4.35-8.13.57-11.19 2.39-2.06.29-4.14.38-6.21.29-.17-1.65-.41-3.28-.85-4.88-1.69 1.08-4.61 1.48-4.89 3.77 1.33.38 3.86-.08 2.83 2.08-1.93 1.51-4.17 2.56-6.32 3.73.33 3.2-1.88 5.29-3.65 7.45h-.88c-.06-2.75-.12-5.49-.17-8.22 1.9-8.66 3.61-17.37 5.75-25.97 2.99 1.53 5.22 4.39 8.49 5.33-.63-1.79-1.75-3.2-3.66-3.64-.77-1.7-1.41-3.51-1.41-5.4 4.3-.93 9.71-1.64 13.14 1.82m13.18-.63c-.93 1.41-.96 3.77-3 4.02-5.98 1.2-12.24.4-18.3.72l.02.95c1.81.05 5.43.16 7.24.21-1.61.25-4.84.75-6.45.99 1.83 1.13 4.7 3.81 6.43 1.25 5.26 1.21 10.7.43 16.03.31 2.51.47 5.07.59 7.67.37 1.18 1.89 3.53 4.06 5.81 3.63 2.58-2.2 5.84-3.68 8.33-5.77 2.27-.3.49-5.25-.47-1.2-6.47-.38-13.63 2.25-19.87.4 2.3.66-.33-1.92 1-2.47 3.39-4.89 9.05 2.22 13.14-.84-.24-3.2-2.41-2.75-4.81-1.91-3.87-2.44-8.51-1.62-12.77-.66z" fill="#897c66"/><path d="M213.14 191.27c4-3.27 8.46-.57 12.94-1-.21.89-.55 1.73-1 2.53-2.5-.66-5.18.53-7.4-1.17-2.59.31-5.01 1.82-7.53 2.59l-.08-2.05c1.05-.2 2.07-.5 3.07-.9z" fill="#827666"/><path d="M0 191.06c1.83 1 5.48.57 5.95 2.82-1.81 1.13-3.98 1.34-5.95 2.06z" fill="#7d6749"/><path d="M210.15 194.22c2.52-.77 4.94-2.28 7.53-2.59 2.22 1.7 4.9.51 7.4 1.17-.08 1.54-3.05.61-2.65 2.05.24 1.07.51 2.14.81 3.21 2.38-1.25 4.49-2.92 6.76-4.34v5.22c-5.92 1.3-11.91.67-17.86.09-1.71-.37-3.39-.81-5.07-1.27-.54-2.06 1.82-2.57 3.08-3.54z" fill="#8e8272"/><path d="M181.29 193.29c4.26-.96 8.9-1.78 12.77.66 2.4-.84 4.57-1.29 4.81 1.91-4.09 3.06-9.75-4.05-13.14.84-1.33.55 1.3 3.13-1 2.47-2.09-.25-4.19-.09-6.04.99-3.75-.82-7.61-1.37-11.44-.97-1.81-.05-5.43-.16-7.24-.21l-.02-.95c6.06-.32 12.32.48 18.3-.72 2.04-.25 2.07-2.61 3-4.02z" fill="#958771"/><path d="M205.78 192.03c1.42.04 2.85.09 4.29.14l.08 2.05c-1.71-.34-4.51.42-4.37-2.19z" fill="#706250"/><path d="M204.6 198.77c.96-4.05 2.74.9.47 1.2-4.76.44-9.35 1.86-14.14 2.14-2.6.22-5.16.1-7.67-.37-1.53-.53-3.07-1.01-4.57-1.58 1.85-1.08 3.95-1.24 6.04-.99 6.24 1.85 13.4-.78 19.87-.4z" fill="#6e5f49"/><path d="M167.25 199.19c3.83-.4 7.69.15 11.44.97 1.5.57 3.04 1.05 4.57 1.58-5.33.12-10.77.9-16.03-.31-1.73 2.56-4.6-.12-6.43-1.25 1.61-.24 4.84-.74 6.45-.99z" fill="#7e725b"/><path d="M212.14 199.03c5.95.58 11.94 1.21 17.86-.09v2c-6.39.95-12.83.29-19.23-.19.34-.43 1.03-1.29 1.37-1.72z" fill="#746858"/><path d="M66.76 200.14c2.83-.21 5.66-.35 8.5-.41l.72 2.12c-3.11-.31-6.61.48-9.22-1.71z" fill="#6f5b3a"/><path d="M190.93 202.11c4.79-.28 9.38-1.7 14.14-2.14-2.49 2.09-5.75 3.57-8.33 5.77-2.28.43-4.63-1.74-5.81-3.63z" fill="#81725d"/><path d="M123.48 201.3c.44-.02 1.32-.05 1.76-.07 1.02 7.63.82 15.33.54 23.01-.33-1.01-.63-2.03-.92-3.04.06-3.79.28-7.56-.01-11.34-1.28-2.59-5.82-1.44-8.6-1.84.53-1.7 1.4-3.35 1.16-5.19 2.04-.45 4.06-.94 6.07-1.53z" fill="#2a2a22"/><path d="M209.15 207.12c-.44-2.58-2.17-5.8 1.62-6.37 6.4.48 12.84 1.14 19.23.19v8.32c-1.22-3.36-5.11-2.21-8-2.29-2.42-.2-3.66 2.28-5.04 3.86 2.43 1.53 4.86 1.12 6.7-1.02-2.04 3.85 5.61.88 4.26 5.01-1.93 1.52-4.31 2.4-6.71 2.81-2.24-.95-4.17-2.43-6.3-3.57-1.87.27-3.59 1.16-5.46 1.39-1.7-2.76-4.47-.33-6.57.53a27.275 27.275 0 0 0-9.04-2.27c.36-.2 1.07-.61 1.42-.82 1.32-.46 2.6-1.05 3.88-1.61.03 2.53 1.95 3.14 5.76 1.83 1.61-1.81 3.62-3.56 4.25-5.99z" fill="#8a7d6c"/><path d="M104.16 201.92l.74.15c.28 1.29.62 2.57 1.04 3.82.93 4.04 1.98 8.07 3.25 12.02 4.16 1.58 5.12-2.86 4.79-6.06.05-2.95.03-5.85.01-8.79.86-.06 2.57-.17 3.42-.23.24 1.84-.63 3.49-1.16 5.19-.08.72-.25 2.18-.34 2.9-.07.71-.23 2.13-.31 2.84-.37 1.71-.57 3.46-.69 5.21-2.32.45-4.64.86-6.97 1.23 1.15 2.89 2.5 5.76 1.92 8.98-1.11-2.49-1.96-5.22-4.09-7.05-4.37-1.05-5.75 4.97-8.68 7.02.19-2-.7-4.41 1.31-5.84 4.53-5.03 7.37-12.76 4.03-19.11.55-.78 1.13-1.54 1.73-2.28z" fill="#1d160b"/><path d="M104.9 202.07l.94.07.9.09c2.41.32 4.83.6 7.25.83.02 2.94.04 5.84-.01 8.79-1.1 1.96-2.45 4.01-4.57 1.86-.58-2.83-1.48-5.65-3.47-7.82-.42-1.25-.76-2.53-1.04-3.82z" fill="#42382b"/><path d="M106.74 202.23c3.57-.37 7.14-.12 10.67.6-.85.06-2.56.17-3.42.23-2.42-.23-4.84-.51-7.25-.83z" fill="#6c7070"/><path d="M105.94 205.89c1.99 2.17 2.89 4.99 3.47 7.82 2.12 2.15 3.47.1 4.57-1.86.33 3.2-.63 7.64-4.79 6.06-1.27-3.95-2.32-7.98-3.25-12.02z" fill="#33291b"/><path d="M48.81 208.98c1.42-3.3 5.58-.95 8.3-1.88-1.78 1.52-6.4 4.22 2.75 1.47 5.61-.88 10.48 3.41 16.05 3.71.07 1.7.78 4.47-1.93 3.75-1.71-1.18-3.46.02-5.03.81-3.67.58-7.64 2.12-11.19.43l3.45-.4c-1.9-1.67-4.8-1.52-7.18-2.09.98-1.29 2.08-2.49 3.05-3.78-3 .58-6.32.84-8.27-2.02z" fill="#8d7758"/><path d="M57.11 207.1c.46-.04 1.38-.14 1.85-.19 3.78.31 8.06-.64 11.24 1.88 2.66 2.08 6.41 1.63 6.68-2.02.08 4.08.16 8.17.23 12.26-1.6.94-3.46 1.25-4.23-.82.8-.1 2.39-.29 3.18-.39-.68-.61-1.38-1.21-2.08-1.79 2.71.72 2-2.05 1.93-3.75-5.57-.3-10.44-4.59-16.05-3.71-9.15 2.75-4.53.05-2.75-1.47z" fill="#746043"/><path d="M150.89 208.17c4.71-.46 9.43-1.31 14.16-.56-2.62 3.04 3.88 2.88 4.89.41 2.42-2.03 5.93-.7 8.83-.96 1.23 2.73 4 1.07 6.2.89a83.86 83.86 0 0 1-1.5 3c-1.23 1.1-1.35 2.7-1.37 4.26-1.37.19-2.76-.06-4.13-.03l-.84-.01c-5.38.24-10.77.06-16.15-.21.64-.98 1.36-1.91 2-2.89-4.47-.2-9.75.84-12.09-3.9z" fill="#80735c"/><path d="M178.77 207.06c3.89-.34 7.64-.05 11.25.88-1.27.47-2.57.89-3.85 1.33.57 1.01 1.19 1.99 1.81 2.98-1.54-.3-3.12-.52-4.51-1.3.52-.99 1.02-1.99 1.5-3-2.2.18-4.97 1.84-6.2-.89z" fill="#6a5c42"/><path d="M201.74 208.23c2.48-.28 4.95-.65 7.41-1.11-.63 2.43-2.64 4.18-4.25 5.99-1.16-1.59-.47-2.92.97-3.96-1.39-.29-2.77-.56-4.13-.92z" fill="#73664e"/><path d="M216.96 210.83c1.38-1.58 2.62-4.06 5.04-3.86 2.89.08 6.78-1.07 8 2.29V230h-24.37c1.5-2.17 3.68-3.27 6.31-3.27 1.12-4.17-4.24-3.74-6.67-2.47-.62-.24-1.86-.73-2.49-.97 1.09-1.03 2.19-2.05 3.27-3.1.91-.85 1.4-2.04 2.01-3.11-1.68-.1-3.36-.12-5.03-.16l-.15-.94c2.1-.86 4.87-3.29 6.57-.53 1.87-.23 3.59-1.12 5.46-1.39 2.13 1.14 4.06 2.62 6.3 3.57 2.4-.41 4.78-1.29 6.71-2.81 1.35-4.13-6.3-1.16-4.26-5.01-1.84 2.14-4.27 2.55-6.7 1.02z" fill="#7f7464"/><path d="M0 208.13c1.86 1.03 3.88.37 5.84.09 2.21 2.63-1.16 4.76-.74 7.59.2 1.1 2.1 1.35 1.09 2.6-2.05.35-4.12.57-6.19.74v-11.02z" fill="#816c4f"/><path d="M9.39 210.02c.16-.78.35-1.55.56-2.31 4.13 1.83 8.74-.24 13.05.31 5.46-.17 10.87 1.17 16.32.3 2.53-.03 6.84 0 5.7 3.67-4.89-.14-10.65 1.3-14.17-2.91-2.67.22-5.27.96-7.97.99-4.39-1.15-9.37 2.12-13.49-.05z" fill="#827463"/><path d="M116.25 208.02c2.78.4 7.32-.75 8.6 1.84-.93 2.11-1.67 5.11-4.65 4.13-.14-1.35-.28-2.69-.41-4.04-1.35.05-2.63.48-3.88.97.09-.72.26-2.18.34-2.9z" fill="#3b3428"/><path d="M169.94 208.02c-1.01 2.47-7.51 2.63-4.89-.41 1.63.16 3.25.32 4.89.41z" fill="#695d44"/><path d="M186.17 209.27c1.28-.44 2.58-.86 3.85-1.33-.18 2.07 1.81 2.93 3.21 3.98-1.64 1.05-3.49 1.04-5.25.33-.62-.99-1.24-1.97-1.81-2.98z" fill="#8c7c62"/><path d="M190.02 207.94c2.05 2.56 5.08 1.37 7.79.9.74.72 2.46 1.23 1.33 2.44-1.28.56-2.56 1.15-3.88 1.61-.51-.24-1.53-.73-2.03-.97-1.4-1.05-3.39-1.91-3.21-3.98z" fill="#6c5d48"/><path d="M197.81 208.84c1.29-.29 2.6-.53 3.93-.61 1.36.36 2.74.63 4.13.92-1.44 1.04-2.13 2.37-.97 3.96-3.81 1.31-5.73.7-5.76-1.83 1.13-1.21-.59-1.72-1.33-2.44z" fill="#554933"/><path d="M8.19 215.61c.26-1.89.78-3.73 1.2-5.59 4.12 2.17 9.1-1.1 13.49.05-.43 3.61 1.85 6.72 5.18 7.88 3.7-.44 7.24-2.31 11.01-1.63-.27.37-.8 1.11-1.07 1.48 3.57.74 7.45.76 10.78 2.44.36 1.44.62 2.91.77 4.38-3.7-.77-9.62 1.78-10.22-3.5-6.76 1.01-15.38.16-18.67-6.71-2.13.72-7 .27-6.07 3.56-1.12 0-2.22-.03-3.33-.1-.29-1.58-1.78-1.82-3.07-2.26z" fill="#8d7e6d"/><path d="M115.91 210.92c1.25-.49 2.53-.92 3.88-.97.13 1.35.27 2.69.41 4.04 2.98.98 3.72-2.02 4.65-4.13.29 3.78.07 7.55.01 11.34-3.07-.13-5.77-2.18-8.89-1.68-.09-1.44-.27-4.32-.37-5.76.08-.71.24-2.13.31-2.84z" fill="#4c4130"/><path d="M182.1 215.21c.02-1.56.14-3.16 1.37-4.26 1.39.78 2.97 1 4.51 1.3 1.76.71 3.61.72 5.25-.33.5.24 1.52.73 2.03.97-.35.21-1.06.62-1.42.82 3.1.23 6.19 1 9.04 2.27l.15.94c-.31 1.99 1.67 2.45 3.02 3.27-1.08 1.05-2.18 2.07-3.27 3.1-7.14.53-15.42-2.98-22.13.75-4.19.92-8.71-.19-12.8 1.57l-.7.12c-.96-.34-1.94-.64-2.92-.93 2.24-4.93-6.07.08-5.32-4.67 2.3.31 4.61.63 6.93.75.11-1.03 1.54-2.64.1-3.32 3.06-1.82 10.22 1.96 11.19-2.39l.84.01.24 1.85c.04 2.67 5.95 2.05 6.59-.28 2.08-.53 4.19.27 6.29.24.12-5.06-6.41-1.59-8.99-1.78z" fill="#7c6f57"/><path d="M153.99 216.74c.28-2.29 3.2-2.69 4.89-3.77.44 1.6.68 3.23.85 4.88-.21.57-.62 1.71-.82 2.28-.75 4.75 7.56-.26 5.32 4.67-3.38-.54-6.81-.99-10.24-.78-.2 2.58 1.54 3.51 5.21 2.78-2.42-.32-3.7.72-3.42 3.2h-8.93c1.77-2.16 3.98-4.25 3.65-7.45 2.15-1.17 4.39-2.22 6.32-3.73 1.03-2.16-1.5-1.7-2.83-2.08z" fill="#837660"/><path d="M14.59 217.97c-.93-3.29 3.94-2.84 6.07-3.56 3.29 6.87 11.91 7.72 18.67 6.71.6 5.28 6.52 2.73 10.22 3.5 1.12 2.4-2.49.93-3.74 1.38-4.96.84-9.82 2.23-14.98 1.88 1.43-2.09 3.56-2.81 6.38-2.17-2.25-3.96-5.96.91-9.09.07-6.23-1.4-14.29 2.16-19.11-3.6-.36-.5-1.09-1.49-1.46-1.99-.08-2.33 1.96-2.23 3.71-2.32 1.11.07 2.21.1 3.33.1z" fill="#948675"/><path d="M114.91 218.97c.12-1.75.32-3.5.69-5.21.1 1.44.28 4.32.37 5.76 3.12-.5 5.82 1.55 8.89 1.68.29 1.01.59 2.03.92 3.04.15 1.91.22 3.84.29 5.76h-11.06c-.01-3.69.01-7.35-.1-11.03z" fill="#372917"/><path d="M182.1 215.21c2.58.19 9.11-3.28 8.99 1.78-2.1.03-4.21-.77-6.29-.24l-6.59.28-.24-1.85c1.37-.03 2.76.22 4.13.03z" fill="#716249"/><path d="M68.95 216.84c1.57-.79 3.32-1.99 5.03-.81.7.58 1.4 1.18 2.08 1.79-.79.1-2.38.29-3.18.39.77 2.07 2.63 1.76 4.23.82 1.06 3.65 2.21 7.28 3.14 10.97h-1.96c-.48-1.27-.97-2.52-1.55-3.75-5.24.4-10.49.99-15.74.63l-.31-1.09c1.95-.56 4.39.66 5.56-1.58-1.51-.12-4.53-.35-6.05-.46-4.69.82-5.42-1.12-4.29-4.53 4.05-.23 10.7 2.74 13.04-2.38z" fill="#846d4d"/><path d="M39.07 216.32c5.64 1.15 11.34-.92 16.93.31-1.01.84-1.04 1.7-.09 2.59-1.13 3.41-.4 5.35 4.29 4.53-1.54.07-4.64.22-6.18.29-1.18 4.02 4.17 1.56 6.67 1.75l.31 1.09c-2.74.02-5.47.1-8.19.25 1.03 1.08 2.22 1.98 3.42 2.87H45.91c-.21-1.33-.41-2.67-.1-4 1.25-.45 4.86 1.02 3.74-1.38-.15-1.47-.41-2.94-.77-4.38-3.33-1.68-7.21-1.7-10.78-2.44.27-.37.8-1.11 1.07-1.48z" fill="#887559"/><path d="M55.91 219.22c-.95-.89-.92-1.75.09-2.59l1.76.64c3.55 1.69 7.52.15 11.19-.43-2.34 5.12-8.99 2.15-13.04 2.38z" fill="#725a36"/><path d="M178.21 217.03l6.59-.28c-.64 2.33-6.55 2.95-6.59.28z" fill="#9a8d74"/><path d="M203.03 216.92c1.67.04 3.35.06 5.03.16-.61 1.07-1.1 2.26-2.01 3.11-1.35-.82-3.33-1.28-3.02-3.27z" fill="#6a5d46"/><path d="M0 219.15c2.07-.17 4.14-.39 6.19-.74.45.6.9 1.19 1.36 1.78.37.5 1.1 1.49 1.46 1.99.78 3.28-3.41 2.58-3.9 5.45 1.63.44 3.15 1.15 4.35 2.37H0v-1.92c1.62-.31 4.92.82 3.97-1.98-1.32-.1-2.64-.16-3.97-.19z" fill="#826e53"/><path d="M158.91 220.13c.2-.57.61-1.71.82-2.28 2.07.09 4.15 0 6.21-.29 1.44.68.01 2.29-.1 3.32-2.32-.12-4.63-.44-6.93-.75z" fill="#675842"/><path d="M107.94 220.2c2.33-.37 4.65-.78 6.97-1.23.11 3.68.09 7.34.1 11.03h-4.88l-.27-.82c.58-3.22-.77-6.09-1.92-8.98z" fill="#0e0a05"/><path d="M9.01 222.18c4.82 5.76 12.88 2.2 19.11 3.6 3.13.84 6.84-4.03 9.09-.07-2.82-.64-4.95.08-6.38 2.17 5.16.35 10.02-1.04 14.98-1.88-.31 1.33-.11 2.67.1 4H9.46c-1.2-1.22-2.72-1.93-4.35-2.37.49-2.87 4.68-2.17 3.9-5.45z" fill="#877967"/><path d="M97.09 229.15c2.93-2.05 4.31-8.07 8.68-7.02 2.13 1.83 2.98 4.56 4.09 7.05l.27.82H96.86z" fill="#33230e"/><path d="M144.88 230c.21-2.75.45-5.52.92-8.22.05 2.73.11 5.47.17 8.22z" fill="#646153"/><path d="M180.65 224.04c6.71-3.73 14.99-.22 22.13-.75.63.24 1.87.73 2.49.97-.41 1.01-1.14 1.66-2.19 1.97-3.33-.14-6.62-.18-9.94-.37-3.28-.88-6.68-.38-10.02-.32-.61-.38-1.85-1.13-2.47-1.5z" fill="#8f8066"/><path d="M205.27 224.26c2.43-1.27 7.79-1.7 6.67 2.47-2.63 0-4.81 1.1-6.31 3.27h-2.67c.03-1.26.07-2.52.12-3.77 1.05-.31 1.78-.96 2.19-1.97z" fill="#776956"/><path d="M54.02 224.04c1.54-.07 4.64-.22 6.18-.29 1.52.11 4.54.34 6.05.46-1.17 2.24-3.61 1.02-5.56 1.58-2.5-.19-7.85 2.27-6.67-1.75z" fill="#78603d"/><path d="M153.99 224.02c3.43-.21 6.86.24 10.24.78.98.29 1.96.59 2.92.93-2.56.85-5.28.92-7.95 1.07-3.67.73-5.41-.2-5.21-2.78z" fill="#8d7f6b"/><path d="M167.85 225.61c4.09-1.76 8.61-.65 12.8-1.57.62.37 1.86 1.12 2.47 1.5-4.73 2.07-10.56 2.32-15.27.07z" fill="#847763"/><path d="M183.12 225.54c3.34-.06 6.74-.56 10.02.32-1.54 1.1-2.78 2.44-1.18 4.14h-36.18c-.28-2.48 1-3.52 3.42-3.2 2.67-.15 5.39-.22 7.95-1.07l.7-.12c4.71 2.25 10.54 2 15.27-.07z" fill="#736551"/><path d="M0 225.91c1.33.03 2.65.09 3.97.19.95 2.8-2.35 1.67-3.97 1.98z" fill="#8b785d"/><path d="M61 226.88c5.25.36 10.5-.23 15.74-.63.58 1.23 1.07 2.48 1.55 3.75H56.23c-1.2-.89-2.39-1.79-3.42-2.87 2.72-.15 5.45-.23 8.19-.25z" fill="#7b6342"/><path d="M193.14 225.86c3.32.19 6.61.23 9.94.37-.05 1.25-.09 2.51-.12 3.77h-11c-1.6-1.7-.36-3.04 1.18-4.14z" fill="#6c5b40"/></svg>