<?xml version="1.0" encoding="UTF-8" ?>
<!DOCTYPE svg PUBLIC "-//W3C//DTD SVG 1.1//EN" "http://www.w3.org/Graphics/SVG/1.1/DTD/svg11.dtd">
<svg width="230pt" height="230pt" viewBox="0 0 230 230" version="1.1" xmlns="http://www.w3.org/2000/svg">
<g id="#cdc3b4ff">
<path fill="#cdc3b4" stroke="#cdc3b4" stroke-width="0.09375" opacity="1.00" d=" M 0.00 0.00 L 59.74 0.00 C 62.16 1.58 64.84 3.63 64.99 6.79 C 61.16 9.30 53.79 10.86 55.86 16.77 C 51.78 16.49 46.34 18.19 44.95 13.05 C 43.57 9.35 38.59 11.91 36.13 13.17 C 36.33 16.05 42.81 13.49 44.11 16.84 C 41.41 20.23 33.64 18.00 33.13 21.80 C 40.67 22.50 48.65 25.46 55.87 22.09 C 59.32 25.00 63.93 24.94 68.03 26.42 C 64.31 28.42 63.04 34.11 57.45 31.51 C 54.20 27.15 46.58 27.59 44.82 32.80 C 54.35 32.08 61.11 38.35 70.85 39.20 C 68.96 36.93 68.96 34.36 70.67 32.00 C 69.66 29.93 67.65 26.78 71.01 25.77 C 74.93 27.77 73.05 36.34 80.01 32.94 C 86.81 32.07 93.51 33.13 100.20 34.32 C 99.01 35.08 97.87 35.91 96.77 36.78 C 95.56 37.40 94.49 38.65 95.02 40.10 C 95.10 40.74 95.26 42.04 95.35 42.68 C 95.20 44.50 95.02 46.32 94.90 48.14 C 86.25 50.08 77.24 49.66 68.48 49.76 C 67.65 44.86 59.98 46.51 56.92 48.52 C 50.65 51.41 44.17 49.18 37.92 47.76 C 36.97 46.00 35.99 44.19 35.90 42.14 C 43.65 40.98 51.94 46.76 58.40 40.47 C 61.66 40.90 67.64 46.09 70.11 41.14 C 59.11 35.54 43.79 44.70 34.27 35.82 C 30.68 35.67 28.79 32.44 25.84 31.18 C 21.73 29.70 26.55 36.18 24.11 37.12 C 21.29 39.09 20.64 34.42 18.73 33.12 C 12.48 35.18 6.17 32.48 0.00 30.79 L 0.00 0.00 Z" />
</g>
<g id="#d1c8bdff">
<path fill="#d1c8bd" stroke="#d1c8bd" stroke-width="0.09375" opacity="1.00" d=" M 59.74 0.00 L 230.00 0.00 L 230.00 39.88 C 214.29 42.07 198.41 41.68 182.65 40.60 C 176.62 41.82 183.05 35.68 186.09 36.04 C 188.77 34.35 198.70 36.98 194.77 32.14 C 187.81 32.37 180.85 33.15 173.87 33.13 C 174.14 35.51 176.61 37.25 175.94 39.79 C 169.43 41.19 163.05 43.26 157.08 45.98 C 150.50 41.22 141.48 39.47 133.88 43.09 C 135.10 45.06 136.83 46.62 138.25 48.43 C 135.69 47.88 133.83 49.54 131.96 51.00 C 130.25 48.20 132.87 44.22 130.19 41.92 C 129.14 40.50 128.18 39.02 127.16 37.59 C 126.16 36.03 124.99 34.53 123.27 33.72 C 118.04 30.64 109.31 24.81 104.66 30.64 C 103.54 32.31 102.36 34.03 100.20 34.32 C 93.51 33.13 86.81 32.07 80.01 32.94 C 73.05 36.34 74.93 27.77 71.01 25.77 C 67.65 26.78 69.66 29.93 70.67 32.00 C 68.96 34.36 68.96 36.93 70.85 39.20 C 61.11 38.35 54.35 32.08 44.82 32.80 C 46.58 27.59 54.20 27.15 57.45 31.51 C 63.04 34.11 64.31 28.42 68.03 26.42 C 63.93 24.94 59.32 25.00 55.87 22.09 C 48.65 25.46 40.67 22.50 33.13 21.80 C 33.64 18.00 41.41 20.23 44.11 16.84 C 42.81 13.49 36.33 16.05 36.13 13.17 C 38.59 11.91 43.57 9.35 44.95 13.05 C 46.34 18.19 51.78 16.49 55.86 16.77 C 53.79 10.86 61.16 9.30 64.99 6.79 C 64.84 3.63 62.16 1.58 59.74 0.00 Z" />
</g>
<g id="#72685cff">
<path fill="#72685c" stroke="#72685c" stroke-width="0.09375" opacity="1.00" d=" M 104.66 30.64 C 109.31 24.81 118.04 30.64 123.27 33.72 C 124.45 36.85 123.17 37.59 120.34 36.43 C 118.09 33.87 115.84 31.17 112.82 29.49 C 110.17 30.37 107.45 30.87 104.66 30.64 Z" />
</g>
<g id="#1a150fff">
<path fill="#1a150f" stroke="#1a150f" stroke-width="0.09375" opacity="1.00" d=" M 104.66 30.64 C 107.45 30.87 110.17 30.37 112.82 29.49 C 115.84 31.17 118.09 33.87 120.34 36.43 C 118.48 36.56 116.62 36.46 114.77 36.38 C 118.13 38.24 125.72 44.44 127.16 37.59 C 128.18 39.02 129.14 40.50 130.19 41.92 C 130.04 45.93 129.74 49.95 129.10 53.92 C 127.00 56.22 122.35 67.46 124.12 56.05 C 124.89 52.02 123.56 44.22 117.89 44.94 C 120.38 48.49 119.47 49.85 115.09 49.19 C 111.95 49.68 113.96 46.62 114.04 44.92 C 111.96 42.65 107.91 42.58 105.76 44.77 C 105.27 45.08 104.28 45.70 103.79 46.01 C 96.19 44.52 99.71 54.67 98.44 59.24 C 97.63 56.55 96.48 53.98 95.75 51.27 C 95.68 48.40 95.91 45.51 95.35 42.68 C 95.26 42.04 95.10 40.74 95.02 40.10 C 96.57 39.80 97.26 38.20 96.77 36.78 C 97.87 35.91 99.01 35.08 100.20 34.32 C 102.36 34.03 103.54 32.31 104.66 30.64 Z" />
</g>
<g id="#c8bdaeff">
<path fill="#c8bdae" stroke="#c8bdae" stroke-width="0.09375" opacity="1.00" d=" M 0.00 30.79 C 6.17 32.48 12.48 35.18 18.73 33.12 C 20.64 34.42 21.29 39.09 24.11 37.12 C 26.55 36.18 21.73 29.70 25.84 31.18 C 28.79 32.44 30.68 35.67 34.27 35.82 C 43.79 44.70 59.11 35.54 70.11 41.14 C 67.64 46.09 61.66 40.90 58.40 40.47 C 51.94 46.76 43.65 40.98 35.90 42.14 C 35.99 44.19 36.97 46.00 37.92 47.76 C 36.27 49.46 31.95 52.28 40.90 50.26 C 46.04 51.63 51.45 51.79 56.69 50.79 C 57.86 50.25 57.93 49.49 56.92 48.52 C 59.98 46.51 67.65 44.86 68.48 49.76 C 77.24 49.66 86.25 50.08 94.90 48.14 C 95.16 49.19 95.44 50.23 95.75 51.27 C 96.48 53.98 97.63 56.55 98.44 59.24 C 99.63 63.75 101.38 68.11 103.67 72.18 C 103.82 72.61 104.11 73.46 104.26 73.89 C 102.88 75.54 101.44 77.14 100.02 78.75 L 99.24 79.18 C 86.66 74.32 72.59 78.55 59.43 77.45 C 51.11 76.21 42.59 76.18 34.21 76.92 C 32.66 75.93 29.77 71.76 30.52 75.92 C 23.03 76.48 15.37 77.30 7.91 76.08 C 5.27 75.98 2.64 75.93 0.00 75.94 L 0.00 30.79 Z" />
</g>
<g id="#c8beb1ff">
<path fill="#c8beb1" stroke="#c8beb1" stroke-width="0.09375" opacity="1.00" d=" M 173.87 33.13 C 180.85 33.15 187.81 32.37 194.77 32.14 C 198.70 36.98 188.77 34.35 186.09 36.04 C 183.05 35.68 176.62 41.82 182.65 40.60 C 198.41 41.68 214.29 42.07 230.00 39.88 L 230.00 67.24 C 204.47 70.04 178.31 65.88 153.23 70.78 C 149.92 68.24 146.04 66.68 142.09 65.44 C 138.81 67.57 134.83 67.94 131.02 67.22 C 129.56 72.66 141.19 65.56 139.45 71.17 C 147.80 65.70 155.20 77.60 163.96 72.84 C 171.52 69.73 179.06 79.36 185.81 72.80 C 189.60 72.37 194.22 75.71 197.70 71.67 C 201.55 66.98 204.47 75.27 208.83 73.71 C 213.96 72.39 218.96 75.63 224.13 74.43 C 224.47 77.46 222.76 78.31 219.00 76.99 C 202.81 76.97 187.12 79.87 171.03 79.55 C 162.43 77.45 153.25 75.40 144.65 78.64 C 141.10 79.14 144.68 83.05 145.06 85.04 C 138.51 85.14 135.47 76.26 128.11 77.99 C 122.73 77.23 124.12 71.77 123.78 67.65 C 126.70 63.37 129.87 59.53 129.10 53.92 C 129.74 49.95 130.04 45.93 130.19 41.92 C 132.87 44.22 130.25 48.20 131.96 51.00 C 133.83 49.54 135.69 47.88 138.25 48.43 C 136.83 46.62 135.10 45.06 133.88 43.09 C 141.48 39.47 150.50 41.22 157.08 45.98 C 163.05 43.26 169.43 41.19 175.94 39.79 C 176.61 37.25 174.14 35.51 173.87 33.13 M 167.06 49.87 C 171.56 49.52 177.03 52.44 180.78 49.85 C 179.26 47.97 168.69 48.54 167.06 49.87 M 180.78 49.85 C 180.85 50.37 180.99 51.41 181.05 51.93 C 190.59 50.76 202.91 54.93 211.12 49.95 C 201.05 51.65 190.90 49.85 180.78 49.85 Z" />
</g>
<g id="#413d37ff">
<path fill="#413d37" stroke="#413d37" stroke-width="0.09375" opacity="1.00" d=" M 123.27 33.72 C 124.99 34.53 126.16 36.03 127.16 37.59 C 125.72 44.44 118.13 38.24 114.77 36.38 C 116.62 36.46 118.48 36.56 120.34 36.43 C 123.17 37.59 124.45 36.85 123.27 33.72 Z" />
</g>
<g id="#706556ff">
<path fill="#706556" stroke="#706556" stroke-width="0.09375" opacity="1.00" d=" M 95.02 40.10 C 94.49 38.65 95.56 37.40 96.77 36.78 C 97.26 38.20 96.57 39.80 95.02 40.10 Z" />
</g>
<g id="#584f45ff">
<path fill="#584f45" stroke="#584f45" stroke-width="0.09375" opacity="1.00" d=" M 95.35 42.68 C 95.91 45.51 95.68 48.40 95.75 51.27 C 95.44 50.23 95.16 49.19 94.90 48.14 C 95.02 46.32 95.20 44.50 95.35 42.68 Z" />
</g>
<g id="#5b4a39ff">
<path fill="#5b4a39" stroke="#5b4a39" stroke-width="0.09375" opacity="1.00" d=" M 105.76 44.77 C 107.91 42.58 111.96 42.65 114.04 44.92 C 111.28 44.87 108.52 44.83 105.76 44.77 Z" />
</g>
<g id="#9f856eff">
<path fill="#9f856e" stroke="#9f856e" stroke-width="0.09375" opacity="1.00" d=" M 103.79 46.01 C 104.28 45.70 105.27 45.08 105.76 44.77 C 108.52 44.83 111.28 44.87 114.04 44.92 C 113.96 46.62 111.95 49.68 115.09 49.19 C 113.24 49.89 111.79 51.17 110.78 52.86 C 110.42 53.13 109.72 53.68 109.37 53.95 C 108.90 51.92 107.15 51.18 105.31 50.74 C 108.20 49.01 105.40 47.48 103.79 46.01 Z" />
</g>
<g id="#564539ff">
<path fill="#564539" stroke="#564539" stroke-width="0.09375" opacity="1.00" d=" M 117.89 44.94 C 123.56 44.22 124.89 52.02 124.12 56.05 C 122.35 67.46 127.00 56.22 129.10 53.92 C 129.87 59.53 126.70 63.37 123.78 67.65 L 123.18 68.17 C 123.75 64.50 118.68 66.07 118.88 68.94 C 117.77 74.31 111.08 75.40 106.81 73.28 C 118.74 74.11 112.15 72.31 107.72 69.46 C 111.41 70.39 113.02 67.40 114.88 65.26 C 111.53 64.93 108.05 63.41 106.66 60.13 C 108.83 59.56 111.08 59.42 113.32 59.23 C 115.33 63.17 118.36 63.52 120.73 59.62 C 124.10 54.37 116.57 56.11 118.53 51.87 C 115.03 50.92 115.25 55.36 112.08 55.24 C 111.75 54.65 111.10 53.45 110.78 52.86 C 111.79 51.17 113.24 49.89 115.09 49.19 C 119.47 49.85 120.38 48.49 117.89 44.94 Z" />
</g>
<g id="#5d4630ff">
<path fill="#5d4630" stroke="#5d4630" stroke-width="0.09375" opacity="1.00" d=" M 98.44 59.24 C 99.71 54.67 96.19 44.52 103.79 46.01 C 105.40 47.48 108.20 49.01 105.31 50.74 C 107.15 51.18 108.90 51.92 109.37 53.95 C 108.91 54.26 107.98 54.90 107.51 55.21 C 106.82 51.17 102.44 53.89 100.08 54.76 C 97.56 60.00 102.58 62.45 103.39 66.84 C 104.90 66.11 106.34 65.17 108.02 64.84 C 107.15 67.21 106.04 69.51 105.71 72.04 C 104.61 70.49 103.52 69.27 103.67 72.18 C 101.38 68.11 99.63 63.75 98.44 59.24 Z" />
</g>
<g id="#a99c89ff">
<path fill="#a99c89" stroke="#a99c89" stroke-width="0.09375" opacity="1.00" d=" M 40.90 50.26 C 31.95 52.28 36.27 49.46 37.92 47.76 C 44.17 49.18 50.65 51.41 56.92 48.52 C 57.93 49.49 57.86 50.25 56.69 50.79 C 51.45 51.79 46.04 51.63 40.90 50.26 Z" />
</g>
<g id="#a69a8eff">
<path fill="#a69a8e" stroke="#a69a8e" stroke-width="0.09375" opacity="1.00" d=" M 167.06 49.87 C 168.69 48.54 179.26 47.97 180.78 49.85 C 177.03 52.44 171.56 49.52 167.06 49.87 Z" />
</g>
<g id="#a69a8cff">
<path fill="#a69a8c" stroke="#a69a8c" stroke-width="0.09375" opacity="1.00" d=" M 180.78 49.85 C 190.90 49.85 201.05 51.65 211.12 49.95 C 202.91 54.93 190.59 50.76 181.05 51.93 C 180.99 51.41 180.85 50.37 180.78 49.85 Z" />
</g>
<g id="#8f7760ff">
<path fill="#8f7760" stroke="#8f7760" stroke-width="0.09375" opacity="1.00" d=" M 112.08 55.24 C 115.25 55.36 115.03 50.92 118.53 51.87 C 116.57 56.11 124.10 54.37 120.73 59.62 C 118.36 63.52 115.33 63.17 113.32 59.23 C 113.08 57.85 112.57 56.54 112.08 55.24 M 113.86 56.07 C 115.08 58.44 117.32 59.61 119.98 59.01 C 121.44 54.64 116.51 56.15 113.86 56.07 Z" />
</g>
<g id="#9f856dff">
<path fill="#9f856d" stroke="#9f856d" stroke-width="0.09375" opacity="1.00" d=" M 100.08 54.76 C 102.44 53.89 106.82 51.17 107.51 55.21 C 105.51 58.18 99.55 54.12 101.04 58.90 C 101.23 62.09 104.71 60.45 106.66 60.13 C 108.05 63.41 111.53 64.93 114.88 65.26 C 113.02 67.40 111.41 70.39 107.72 69.46 C 112.15 72.31 118.74 74.11 106.81 73.28 C 106.54 72.97 105.99 72.35 105.71 72.04 C 106.04 69.51 107.15 67.21 108.02 64.84 C 106.34 65.17 104.90 66.11 103.39 66.84 C 102.58 62.45 97.56 60.00 100.08 54.76 Z" />
</g>
<g id="#d0b089ff">
<path fill="#d0b089" stroke="#d0b089" stroke-width="0.09375" opacity="1.00" d=" M 109.37 53.95 C 109.72 53.68 110.42 53.13 110.78 52.86 C 111.10 53.45 111.75 54.65 112.08 55.24 C 112.57 56.54 113.08 57.85 113.32 59.23 C 111.08 59.42 108.83 59.56 106.66 60.13 C 104.71 60.45 101.23 62.09 101.04 58.90 C 99.55 54.12 105.51 58.18 107.51 55.21 C 107.98 54.90 108.91 54.26 109.37 53.95 Z" />
</g>
<g id="#c5a98bff">
<path fill="#c5a98b" stroke="#c5a98b" stroke-width="0.09375" opacity="1.00" d=" M 113.86 56.07 C 116.51 56.15 121.44 54.64 119.98 59.01 C 117.32 59.61 115.08 58.44 113.86 56.07 Z" />
</g>
<g id="#bbb0a1ff">
<path fill="#bbb0a1" stroke="#bbb0a1" stroke-width="0.09375" opacity="1.00" d=" M 131.02 67.22 C 134.83 67.94 138.81 67.57 142.09 65.44 C 146.04 66.68 149.92 68.24 153.23 70.78 C 178.31 65.88 204.47 70.04 230.00 67.24 L 230.00 101.96 C 225.46 99.46 222.19 106.75 217.37 102.64 C 213.67 101.45 220.54 98.35 220.90 96.19 C 216.39 91.23 208.73 95.99 203.07 94.97 C 199.32 94.59 204.08 87.09 199.37 89.22 C 197.26 95.45 190.05 93.84 185.35 96.40 C 176.18 96.88 166.92 95.91 157.75 97.23 C 161.82 98.94 166.27 99.77 170.02 102.21 C 170.17 105.56 166.63 107.61 166.59 103.04 C 163.89 103.51 161.48 104.95 158.79 105.50 C 156.88 101.82 155.54 97.87 154.11 93.99 C 153.52 92.74 153.36 90.79 151.65 90.61 C 145.75 89.73 140.25 87.20 134.53 85.60 C 134.12 81.78 130.29 80.63 127.62 78.63 L 128.11 77.99 C 135.47 76.26 138.51 85.14 145.06 85.04 C 144.68 83.05 141.10 79.14 144.65 78.64 C 153.25 75.40 162.43 77.45 171.03 79.55 C 187.12 79.87 202.81 76.97 219.00 76.99 C 222.76 78.31 224.47 77.46 224.13 74.43 C 218.96 75.63 213.96 72.39 208.83 73.71 C 204.47 75.27 201.55 66.98 197.70 71.67 C 194.22 75.71 189.60 72.37 185.81 72.80 C 179.06 79.36 171.52 69.73 163.96 72.84 C 155.20 77.60 147.80 65.70 139.45 71.17 C 141.19 65.56 129.56 72.66 131.02 67.22 Z" />
</g>
<g id="#281c12ff">
<path fill="#281c12" stroke="#281c12" stroke-width="0.09375" opacity="1.00" d=" M 118.88 68.94 C 118.68 66.07 123.75 64.50 123.18 68.17 C 123.07 68.83 122.85 70.17 122.74 70.83 C 120.77 79.48 109.05 81.07 104.26 73.89 C 104.11 73.46 103.82 72.61 103.67 72.18 C 103.52 69.27 104.61 70.49 105.71 72.04 C 105.99 72.35 106.54 72.97 106.81 73.28 C 111.08 75.40 117.77 74.31 118.88 68.94 Z" />
</g>
<g id="#7a756fff">
<path fill="#7a756f" stroke="#7a756f" stroke-width="0.09375" opacity="1.00" d=" M 123.18 68.17 L 123.78 67.65 C 124.12 71.77 122.73 77.23 128.11 77.99 L 127.62 78.63 L 127.16 79.23 C 126.45 80.14 125.85 81.12 125.24 82.10 C 124.32 78.36 123.24 74.66 122.74 70.83 C 122.85 70.17 123.07 68.83 123.18 68.17 Z" />
</g>
<g id="#473c33ff">
<path fill="#473c33" stroke="#473c33" stroke-width="0.09375" opacity="1.00" d=" M 104.26 73.89 C 109.05 81.07 120.77 79.48 122.74 70.83 C 123.24 74.66 124.32 78.36 125.24 82.10 C 123.74 84.59 122.07 86.97 120.23 89.22 C 115.08 91.62 119.76 83.83 119.83 81.22 C 117.54 77.71 112.81 78.92 109.24 79.18 C 106.57 81.58 111.46 85.10 110.39 88.38 C 106.40 86.11 105.07 81.57 103.15 77.69 C 102.99 83.20 102.87 88.71 102.78 94.22 C 101.15 89.39 104.22 82.44 100.02 78.75 C 101.44 77.14 102.88 75.54 104.26 73.89 Z" />
</g>
<g id="#c0b4a4ff">
<path fill="#c0b4a4" stroke="#c0b4a4" stroke-width="0.09375" opacity="1.00" d=" M 30.52 75.92 C 29.77 71.76 32.66 75.93 34.21 76.92 C 42.59 76.18 51.11 76.21 59.43 77.45 C 72.59 78.55 86.66 74.32 99.24 79.18 C 95.10 81.58 90.80 83.73 86.22 85.16 C 82.04 86.26 75.46 85.67 73.90 90.67 C 73.49 91.66 73.08 92.64 72.67 93.63 C 70.06 96.69 69.45 100.75 68.10 104.41 C 63.33 104.27 55.35 97.74 64.03 97.71 C 63.73 92.77 58.88 96.16 56.88 98.00 C 52.20 96.65 45.69 91.77 41.69 96.66 C 37.44 99.67 31.63 98.70 26.98 97.25 C 20.56 95.71 13.39 97.79 7.29 94.77 C 8.17 89.89 4.71 85.83 4.04 81.23 C 5.87 79.20 8.82 81.31 11.16 81.00 C 10.72 79.01 9.20 77.57 7.91 76.08 C 15.37 77.30 23.03 76.48 30.52 75.92 Z" />
</g>
<g id="#baac9aff">
<path fill="#baac9a" stroke="#baac9a" stroke-width="0.09375" opacity="1.00" d=" M 0.00 75.94 C 2.64 75.93 5.27 75.98 7.91 76.08 C 9.20 77.57 10.72 79.01 11.16 81.00 C 8.82 81.31 5.87 79.20 4.04 81.23 C 4.71 85.83 8.17 89.89 7.29 94.77 C 13.39 97.79 20.56 95.71 26.98 97.25 C 31.63 98.70 37.44 99.67 41.69 96.66 C 45.69 91.77 52.20 96.65 56.88 98.00 C 58.88 96.16 63.73 92.77 64.03 97.71 C 55.35 97.74 63.33 104.27 68.10 104.41 C 65.86 110.21 63.61 116.02 62.09 122.06 C 48.79 120.82 35.16 121.88 21.72 121.63 C 14.48 121.34 7.25 120.84 0.00 120.98 L 0.00 75.94 Z" />
</g>
<g id="#b1aca7ff">
<path fill="#b1aca7" stroke="#b1aca7" stroke-width="0.09375" opacity="1.00" d=" M 103.15 77.69 C 105.07 81.57 106.40 86.11 110.39 88.38 C 110.42 89.86 110.19 91.32 110.05 92.79 C 105.50 97.21 101.80 100.52 103.80 108.12 L 102.93 107.66 C 102.99 106.07 103.05 104.48 103.04 102.90 C 103.01 99.99 102.94 97.11 102.78 94.22 C 102.87 88.71 102.99 83.20 103.15 77.69 Z" />
</g>
<g id="#362b20ff">
<path fill="#362b20" stroke="#362b20" stroke-width="0.09375" opacity="1.00" d=" M 99.24 79.18 L 100.02 78.75 C 104.22 82.44 101.15 89.39 102.78 94.22 C 102.94 97.11 103.01 99.99 103.04 102.90 C 100.31 100.87 99.06 103.95 97.69 105.84 C 93.97 104.85 93.51 99.21 90.42 96.87 C 89.99 98.65 89.69 100.48 88.93 102.16 C 83.90 98.85 89.06 92.18 92.83 89.97 C 92.17 88.15 91.44 86.33 90.30 84.76 C 87.78 88.90 86.47 94.13 82.30 97.03 C 80.53 95.11 80.00 91.33 76.90 91.21 C 78.03 87.38 83.35 87.38 86.22 85.16 C 90.80 83.73 95.10 81.58 99.24 79.18 Z" />
</g>
<g id="#695e58ff">
<path fill="#695e58" stroke="#695e58" stroke-width="0.09375" opacity="1.00" d=" M 109.24 79.18 C 112.81 78.92 117.54 77.71 119.83 81.22 C 119.76 83.83 115.08 91.62 120.23 89.22 C 125.35 93.33 117.02 94.24 113.83 94.11 C 112.56 93.69 111.31 93.22 110.05 92.79 C 110.19 91.32 110.42 89.86 110.39 88.38 C 111.46 85.10 106.57 81.58 109.24 79.18 Z" />
</g>
<g id="#93a0aaff">
<path fill="#93a0aa" stroke="#93a0aa" stroke-width="0.09375" opacity="1.00" d=" M 125.24 82.10 C 125.85 81.12 126.45 80.14 127.16 79.23 C 127.00 81.71 126.84 84.20 126.67 86.69 C 121.54 86.90 122.58 91.93 127.10 92.23 L 127.25 93.24 C 126.74 94.73 126.29 96.24 125.94 97.78 C 121.76 97.33 112.19 101.30 113.83 94.11 C 117.02 94.24 125.35 93.33 120.23 89.22 C 122.07 86.97 123.74 84.59 125.24 82.10 Z" />
</g>
<g id="#1a1d1eff">
<path fill="#1a1d1e" stroke="#1a1d1e" stroke-width="0.09375" opacity="1.00" d=" M 127.16 79.23 L 127.62 78.63 C 128.44 81.06 129.17 83.53 130.11 85.91 C 129.47 88.46 128.97 91.16 127.25 93.24 L 127.10 92.23 C 126.87 90.39 126.64 88.54 126.67 86.69 C 126.84 84.20 127.00 81.71 127.16 79.23 Z" />
</g>
<g id="#8a847fff">
<path fill="#8a847f" stroke="#8a847f" stroke-width="0.09375" opacity="1.00" d=" M 127.62 78.63 C 130.29 80.63 134.12 81.78 134.53 85.60 C 140.25 87.20 145.75 89.73 151.65 90.61 C 153.36 90.79 153.52 92.74 154.11 93.99 C 153.08 93.46 152.02 92.98 150.95 92.53 C 146.02 93.05 141.71 90.91 137.22 89.12 C 134.62 92.60 132.16 87.47 130.11 85.91 C 129.17 83.53 128.44 81.06 127.62 78.63 Z" />
</g>
<g id="#76695dff">
<path fill="#76695d" stroke="#76695d" stroke-width="0.09375" opacity="1.00" d=" M 73.90 90.67 C 75.46 85.67 82.04 86.26 86.22 85.16 C 83.35 87.38 78.03 87.38 76.90 91.21 C 75.90 90.99 74.91 90.79 73.90 90.67 Z" />
</g>
<g id="#231e19ff">
<path fill="#231e19" stroke="#231e19" stroke-width="0.09375" opacity="1.00" d=" M 90.30 84.76 C 91.44 86.33 92.17 88.15 92.83 89.97 C 89.06 92.18 83.90 98.85 88.93 102.16 C 89.69 100.48 89.99 98.65 90.42 96.87 C 93.51 99.21 93.97 104.85 97.69 105.84 C 99.06 103.95 100.31 100.87 103.04 102.90 C 103.05 104.48 102.99 106.07 102.93 107.66 C 100.78 109.75 100.52 114.47 97.24 115.00 C 96.35 113.46 94.58 110.37 93.69 108.83 C 89.58 113.25 93.26 121.99 87.00 125.25 C 80.42 116.42 78.77 104.88 78.85 94.12 C 77.30 94.00 74.22 93.75 72.67 93.63 C 73.08 92.64 73.49 91.66 73.90 90.67 C 74.91 90.79 75.90 90.99 76.90 91.21 C 80.00 91.33 80.53 95.11 82.30 97.03 C 86.47 94.13 87.78 88.90 90.30 84.76 Z" />
</g>
<g id="#4f463dff">
<path fill="#4f463d" stroke="#4f463d" stroke-width="0.09375" opacity="1.00" d=" M 130.11 85.91 C 132.16 87.47 134.62 92.60 137.22 89.12 C 141.71 90.91 146.02 93.05 150.95 92.53 C 147.82 93.69 147.50 98.91 143.60 97.63 C 138.35 94.61 137.95 102.29 133.09 101.27 C 134.00 102.52 135.00 103.71 135.93 104.94 C 135.63 109.88 134.79 115.29 131.38 119.11 C 129.82 114.35 128.48 109.52 127.29 104.65 C 127.09 109.86 126.72 115.05 126.18 120.23 C 126.05 118.74 125.93 117.25 125.80 115.76 C 125.97 109.77 125.98 103.77 125.94 97.78 C 126.29 96.24 126.74 94.73 127.25 93.24 C 128.97 91.16 129.47 88.46 130.11 85.91 Z" />
</g>
<g id="#45525cff">
<path fill="#45525c" stroke="#45525c" stroke-width="0.09375" opacity="1.00" d=" M 127.10 92.23 C 122.58 91.93 121.54 86.90 126.67 86.69 C 126.64 88.54 126.87 90.39 127.10 92.23 Z" />
</g>
<g id="#b3a796ff">
<path fill="#b3a796" stroke="#b3a796" stroke-width="0.09375" opacity="1.00" d=" M 199.37 89.22 C 204.08 87.09 199.32 94.59 203.07 94.97 C 208.73 95.99 216.39 91.23 220.90 96.19 C 220.54 98.35 213.67 101.45 217.37 102.64 C 222.19 106.75 225.46 99.46 230.00 101.96 L 230.00 119.82 C 221.08 122.55 211.97 123.61 202.18 123.26 C 195.57 127.35 186.13 124.56 180.85 130.88 C 178.24 132.48 174.85 131.01 172.00 132.10 C 172.33 135.44 176.89 136.03 178.25 139.01 C 176.10 141.73 171.91 141.53 169.02 143.29 C 168.76 142.99 168.24 142.38 167.98 142.08 C 168.62 131.88 164.20 122.30 161.16 112.76 C 160.45 110.91 159.63 109.10 158.84 107.28 C 158.83 106.84 158.80 105.95 158.79 105.50 C 161.48 104.95 163.89 103.51 166.59 103.04 C 166.63 107.61 170.17 105.56 170.02 102.21 C 166.27 99.77 161.82 98.94 157.75 97.23 C 166.92 95.91 176.18 96.88 185.35 96.40 C 190.05 93.84 197.26 95.45 199.37 89.22 Z" />
</g>
<g id="#cdcac6ff">
<path fill="#cdcac6" stroke="#cdcac6" stroke-width="0.09375" opacity="1.00" d=" M 103.80 108.12 C 101.80 100.52 105.50 97.21 110.05 92.79 C 111.31 93.22 112.56 93.69 113.83 94.11 C 112.19 101.30 121.76 97.33 125.94 97.78 C 125.98 103.77 125.97 109.77 125.80 115.76 C 125.44 118.85 125.19 121.97 124.79 125.07 C 119.43 123.69 123.44 115.41 119.10 112.86 C 117.60 121.56 117.40 130.65 122.67 138.32 C 123.38 141.29 125.74 145.82 122.73 147.89 C 118.39 149.11 116.35 140.05 112.02 144.04 C 113.52 149.15 118.72 152.17 120.84 156.50 C 116.97 157.88 113.75 160.44 110.36 162.68 C 110.08 165.95 111.22 169.02 111.92 172.14 C 103.63 166.63 105.05 155.54 104.95 147.00 C 104.39 135.61 106.21 124.01 104.34 112.72 C 104.14 111.19 103.97 109.65 103.80 108.12 Z" />
</g>
<g id="#242220ff">
<path fill="#242220" stroke="#242220" stroke-width="0.09375" opacity="1.00" d=" M 143.60 97.63 C 147.50 98.91 147.82 93.69 150.95 92.53 C 149.89 96.07 153.07 96.69 154.03 99.17 C 148.51 103.77 149.03 87.91 147.97 100.99 C 149.64 106.12 144.13 112.39 147.64 116.82 C 137.62 117.01 146.26 129.48 141.10 133.14 C 138.92 128.42 142.88 122.65 138.68 118.77 C 139.71 114.00 140.69 109.09 139.84 104.21 C 138.67 102.01 137.01 103.65 135.93 104.94 C 135.00 103.71 134.00 102.52 133.09 101.27 C 137.95 102.29 138.35 94.61 143.60 97.63 Z" />
</g>
<g id="#4b4842ff">
<path fill="#4b4842" stroke="#4b4842" stroke-width="0.09375" opacity="1.00" d=" M 150.95 92.53 C 152.02 92.98 153.08 93.46 154.11 93.99 C 155.54 97.87 156.88 101.82 158.79 105.50 C 158.80 105.95 158.83 106.84 158.84 107.28 C 155.66 105.75 154.80 102.30 154.03 99.17 C 153.07 96.69 149.89 96.07 150.95 92.53 Z" />
</g>
<g id="#151412ff">
<path fill="#151412" stroke="#151412" stroke-width="0.09375" opacity="1.00" d=" M 68.10 104.41 C 69.45 100.75 70.06 96.69 72.67 93.63 C 74.22 93.75 77.30 94.00 78.85 94.12 C 78.77 104.88 80.42 116.42 87.00 125.25 C 93.26 121.99 89.58 113.25 93.69 108.83 C 94.58 110.37 96.35 113.46 97.24 115.00 C 100.52 114.47 100.78 109.75 102.93 107.66 C 102.94 109.72 102.96 111.77 102.92 113.83 C 101.45 116.24 99.81 118.54 98.45 121.01 C 99.43 139.32 95.15 157.47 93.76 175.72 C 88.90 180.13 83.89 170.01 78.03 173.78 C 75.22 173.47 74.52 169.61 74.06 167.22 C 77.16 164.30 85.46 163.49 82.42 157.63 C 81.26 152.70 75.37 156.05 74.23 159.23 C 73.30 163.02 69.03 158.54 69.04 156.35 C 74.42 155.21 80.86 153.26 78.05 145.88 C 78.97 148.53 78.15 152.01 79.94 154.33 C 79.99 148.52 81.03 142.32 78.35 136.89 C 81.99 128.34 77.69 118.88 77.82 109.93 C 75.70 109.88 75.64 112.36 74.75 113.75 C 73.58 112.49 72.54 110.41 70.47 111.16 C 67.05 119.33 66.57 128.50 59.89 135.04 C 60.55 130.70 61.34 126.38 62.09 122.06 C 63.61 116.02 65.86 110.21 68.10 104.41 Z" />
</g>
<g id="#0b0e0eff">
<path fill="#0b0e0e" stroke="#0b0e0e" stroke-width="0.09375" opacity="1.00" d=" M 147.97 100.99 C 149.03 87.91 148.51 103.77 154.03 99.17 C 154.80 102.30 155.66 105.75 158.84 107.28 C 159.63 109.10 160.45 110.91 161.16 112.76 C 159.45 120.36 169.02 128.91 161.96 135.08 C 163.85 137.51 165.96 139.76 167.98 142.08 C 168.24 142.38 168.76 142.99 169.02 143.29 C 168.78 147.92 167.78 152.44 166.45 156.85 C 165.30 161.52 165.07 166.87 160.39 169.45 C 159.51 176.30 157.85 182.93 155.38 189.38 C 152.35 186.11 150.54 181.15 145.98 179.75 C 148.06 182.99 150.65 185.87 152.64 189.16 C 152.03 195.16 150.12 200.91 148.96 206.80 C 147.61 214.54 145.08 222.08 144.83 230.00 L 126.04 230.00 C 122.23 221.13 131.45 207.81 122.67 201.85 C 123.07 201.67 123.89 201.32 124.29 201.15 C 128.94 198.10 126.35 189.86 127.99 185.07 C 128.00 184.60 128.01 183.66 128.01 183.20 C 127.99 181.86 127.96 180.52 127.89 179.19 C 128.00 170.48 128.36 161.70 126.96 153.07 C 126.74 145.30 127.75 137.38 126.32 129.70 C 126.17 126.53 126.03 123.39 126.18 120.23 C 126.72 115.05 127.09 109.86 127.29 104.65 C 128.48 109.52 129.82 114.35 131.38 119.11 C 134.79 115.29 135.63 109.88 135.93 104.94 C 137.01 103.65 138.67 102.01 139.84 104.21 C 140.69 109.09 139.71 114.00 138.68 118.77 C 142.88 122.65 138.92 128.42 141.10 133.14 C 146.26 129.48 137.62 117.01 147.64 116.82 C 144.13 112.39 149.64 106.12 147.97 100.99 Z" />
</g>
<g id="#55585cff">
<path fill="#55585c" stroke="#55585c" stroke-width="0.09375" opacity="1.00" d=" M 102.93 107.66 L 103.80 108.12 C 103.97 109.65 104.14 111.19 104.34 112.72 C 103.97 120.80 103.99 128.89 104.00 136.98 L 103.03 137.03 C 103.02 129.30 102.99 121.57 102.92 113.83 C 102.96 111.77 102.94 109.72 102.93 107.66 Z" />
</g>
<g id="#0c0c0bff">
<path fill="#0c0c0b" stroke="#0c0c0b" stroke-width="0.09375" opacity="1.00" d=" M 74.75 113.75 C 75.64 112.36 75.70 109.88 77.82 109.93 C 77.69 118.88 81.99 128.34 78.35 136.89 C 76.36 139.46 77.45 142.98 78.05 145.88 C 80.86 153.26 74.42 155.21 69.04 156.35 C 69.03 158.54 73.30 163.02 74.23 159.23 C 75.37 156.05 81.26 152.70 82.42 157.63 C 85.46 163.49 77.16 164.30 74.06 167.22 C 74.52 169.61 75.22 173.47 78.03 173.78 C 83.89 170.01 88.90 180.13 93.76 175.72 C 95.15 157.47 99.43 139.32 98.45 121.01 C 99.81 118.54 101.45 116.24 102.92 113.83 C 102.99 121.57 103.02 129.30 103.03 137.03 C 101.59 151.26 101.42 165.68 98.79 179.76 C 98.95 186.09 94.53 197.57 101.94 201.15 C 102.41 201.35 103.36 201.74 103.84 201.94 C 102.27 206.26 105.16 210.93 103.20 215.15 C 101.28 220.24 96.34 224.16 96.77 230.00 L 80.24 230.00 C 77.67 222.19 76.57 214.08 76.79 205.86 C 75.92 200.58 73.71 195.51 73.84 190.09 C 74.48 188.40 75.20 186.75 75.85 185.08 C 72.42 186.44 68.92 186.40 68.30 182.08 C 68.26 174.75 66.09 168.34 61.98 162.44 C 63.99 159.71 60.07 157.26 59.47 154.58 C 59.67 148.13 55.97 140.95 59.89 135.04 C 66.57 128.50 67.05 119.33 70.47 111.16 C 72.54 110.41 73.58 112.49 74.75 113.75 M 75.32 179.34 C 73.09 179.24 69.93 183.90 73.74 182.76 C 74.86 181.85 78.94 177.87 75.32 179.34 Z" />
</g>
<g id="#b6babcff">
<path fill="#b6babc" stroke="#b6babc" stroke-width="0.09375" opacity="1.00" d=" M 104.34 112.72 C 106.21 124.01 104.39 135.61 104.95 147.00 C 105.05 155.54 103.63 166.63 111.92 172.14 C 111.22 169.02 110.08 165.95 110.36 162.68 C 113.75 160.44 116.97 157.88 120.84 156.50 C 118.72 152.17 113.52 149.15 112.02 144.04 C 116.35 140.05 118.39 149.11 122.73 147.89 C 125.74 145.82 123.38 141.29 122.67 138.32 C 117.40 130.65 117.60 121.56 119.10 112.86 C 123.44 115.41 119.43 123.69 124.79 125.07 C 125.19 121.97 125.44 118.85 125.80 115.76 C 125.93 117.25 126.05 118.74 126.18 120.23 C 126.03 123.39 126.17 126.53 126.32 129.70 C 126.07 137.44 125.76 145.20 126.00 152.96 C 126.08 154.59 126.29 156.22 126.46 157.86 C 125.50 162.70 121.51 161.84 118.05 160.25 C 115.24 163.21 118.69 166.94 119.65 169.97 C 116.07 175.68 121.38 183.63 128.01 183.20 C 128.01 183.66 128.00 184.60 127.99 185.07 C 126.02 185.80 123.99 186.37 121.97 186.96 C 117.84 187.99 114.96 191.53 110.99 192.97 C 107.53 191.99 105.26 188.93 103.79 185.83 C 103.86 185.17 104.00 183.86 104.07 183.20 C 104.94 174.40 103.62 165.57 103.74 156.77 C 103.98 150.17 104.08 143.58 104.00 136.98 C 103.99 128.89 103.97 120.80 104.34 112.72 Z" />
</g>
<g id="#4d4943ff">
<path fill="#4d4943" stroke="#4d4943" stroke-width="0.09375" opacity="1.00" d=" M 161.16 112.76 C 164.20 122.30 168.62 131.88 167.98 142.08 C 165.96 139.76 163.85 137.51 161.96 135.08 C 169.02 128.91 159.45 120.36 161.16 112.76 Z" />
</g>
<g id="#a79986ff">
<path fill="#a79986" stroke="#a79986" stroke-width="0.09375" opacity="1.00" d=" M 202.18 123.26 C 211.97 123.61 221.08 122.55 230.00 119.82 L 230.00 146.54 C 222.18 152.32 211.07 149.90 201.89 151.03 C 206.13 149.76 206.41 144.54 209.16 142.26 C 218.60 138.87 196.56 139.28 203.88 146.68 C 194.41 149.85 184.34 151.92 174.33 151.39 C 172.54 151.85 169.33 152.30 170.06 154.87 C 173.30 155.83 176.67 155.26 179.99 155.13 C 181.59 162.31 169.41 161.41 166.45 156.85 C 167.78 152.44 168.78 147.92 169.02 143.29 C 171.91 141.53 176.10 141.73 178.25 139.01 C 176.89 136.03 172.33 135.44 172.00 132.10 C 174.85 131.01 178.24 132.48 180.85 130.88 C 186.13 124.56 195.57 127.35 202.18 123.26 Z" />
</g>
<g id="#a49683ff">
<path fill="#a49683" stroke="#a49683" stroke-width="0.09375" opacity="1.00" d=" M 0.00 120.98 C 7.25 120.84 14.48 121.34 21.72 121.63 C 23.58 121.80 25.45 122.00 27.30 122.28 C 20.65 126.46 12.80 118.93 6.31 123.34 C 2.77 127.96 11.01 132.73 7.68 137.58 C 10.61 140.14 11.45 144.23 14.35 146.82 C 22.08 150.24 18.43 144.42 20.07 140.98 C 23.99 142.70 27.06 149.88 31.81 146.94 C 37.84 147.73 44.43 147.09 50.26 149.78 C 55.04 154.72 37.02 151.50 43.76 156.28 C 45.63 157.45 47.50 162.08 50.16 160.22 C 53.99 157.34 58.06 161.71 61.98 162.44 C 66.09 168.34 68.26 174.75 68.30 182.08 C 57.34 183.77 45.88 180.17 35.40 184.35 C 26.07 181.99 16.31 184.74 6.79 183.12 C 4.91 180.69 8.31 177.93 8.01 175.18 C 6.11 174.47 4.10 174.14 2.10 173.80 C 6.95 171.37 6.91 160.48 0.00 161.74 L 0.00 158.79 C 2.87 158.56 8.97 162.10 8.99 157.17 C 6.03 156.48 3.00 156.21 0.00 155.84 L 0.00 120.98 Z" />
</g>
<g id="#b0a392ff">
<path fill="#b0a392" stroke="#b0a392" stroke-width="0.09375" opacity="1.00" d=" M 21.72 121.63 C 35.16 121.88 48.79 120.82 62.09 122.06 C 61.34 126.38 60.55 130.70 59.89 135.04 C 55.97 140.95 59.67 148.13 59.47 154.58 C 60.07 157.26 63.99 159.71 61.98 162.44 C 58.06 161.71 53.99 157.34 50.16 160.22 C 47.50 162.08 45.63 157.45 43.76 156.28 C 37.02 151.50 55.04 154.72 50.26 149.78 C 44.43 147.09 37.84 147.73 31.81 146.94 C 27.06 149.88 23.99 142.70 20.07 140.98 C 18.43 144.42 22.08 150.24 14.35 146.82 C 11.45 144.23 10.61 140.14 7.68 137.58 C 11.01 132.73 2.77 127.96 6.31 123.34 C 12.80 118.93 20.65 126.46 27.30 122.28 C 25.45 122.00 23.58 121.80 21.72 121.63 Z" />
</g>
<g id="#656666ff">
<path fill="#656666" stroke="#656666" stroke-width="0.09375" opacity="1.00" d=" M 126.32 129.70 C 127.75 137.38 126.74 145.30 126.96 153.07 L 126.00 152.96 C 125.76 145.20 126.07 137.44 126.32 129.70 Z" />
</g>
<g id="#736e62ff">
<path fill="#736e62" stroke="#736e62" stroke-width="0.09375" opacity="1.00" d=" M 78.35 136.89 C 81.03 142.32 79.99 148.52 79.94 154.33 C 78.15 152.01 78.97 148.53 78.05 145.88 C 77.45 142.98 76.36 139.46 78.35 136.89 Z" />
</g>
<g id="#687a86ff">
<path fill="#687a86" stroke="#687a86" stroke-width="0.09375" opacity="1.00" d=" M 103.03 137.03 L 104.00 136.98 C 104.08 143.58 103.98 150.17 103.74 156.77 C 103.18 165.50 101.66 174.61 104.07 183.20 C 104.00 183.86 103.86 185.17 103.79 185.83 C 102.72 191.39 104.48 196.88 105.71 202.25 L 104.74 202.14 L 103.84 201.94 C 103.36 201.74 102.41 201.35 101.94 201.15 C 98.49 194.50 98.98 187.02 98.79 179.76 C 101.42 165.68 101.59 151.26 103.03 137.03 Z" />
</g>
<g id="#978975ff">
<path fill="#978975" stroke="#978975" stroke-width="0.09375" opacity="1.00" d=" M 203.88 146.68 C 196.56 139.28 218.60 138.87 209.16 142.26 C 206.41 144.54 206.13 149.76 201.89 151.03 C 211.07 149.90 222.18 152.32 230.00 146.54 L 230.00 199.11 C 226.21 196.41 222.56 201.16 219.24 199.04 C 220.67 196.95 220.50 192.12 223.65 192.39 C 225.57 193.29 227.32 189.44 224.41 190.31 C 216.49 187.89 209.14 193.74 201.02 191.02 C 204.02 185.92 197.65 188.53 195.58 190.67 C 186.91 192.09 178.09 186.31 169.62 190.57 C 166.38 192.44 166.01 188.34 165.72 186.07 C 162.56 187.58 158.56 193.87 155.38 189.38 C 157.85 182.93 159.51 176.30 160.39 169.45 C 165.07 166.87 165.30 161.52 166.45 156.85 C 169.41 161.41 181.59 162.31 179.99 155.13 C 176.67 155.26 173.30 155.83 170.06 154.87 C 169.33 152.30 172.54 151.85 174.33 151.39 C 184.34 151.92 194.41 149.85 203.88 146.68 Z" />
</g>
<g id="#80919dff">
<path fill="#80919d" stroke="#80919d" stroke-width="0.09375" opacity="1.00" d=" M 126.00 152.96 L 126.96 153.07 C 128.36 161.70 128.00 170.48 127.89 179.19 C 128.16 175.39 126.81 172.24 123.83 170.13 C 118.68 165.49 131.23 164.02 126.46 157.86 C 126.29 156.22 126.08 154.59 126.00 152.96 Z" />
</g>
<g id="#8d795cff">
<path fill="#8d795c" stroke="#8d795c" stroke-width="0.09375" opacity="1.00" d=" M 0.00 155.84 C 3.00 156.21 6.03 156.48 8.99 157.17 C 8.97 162.10 2.87 158.56 0.00 158.79 L 0.00 155.84 Z" />
</g>
<g id="#869aa7ff">
<path fill="#869aa7" stroke="#869aa7" stroke-width="0.09375" opacity="1.00" d=" M 104.07 183.20 C 101.66 174.61 103.18 165.50 103.74 156.77 C 103.62 165.57 104.94 174.40 104.07 183.20 Z" />
</g>
<g id="#a1acb3ff">
<path fill="#a1acb3" stroke="#a1acb3" stroke-width="0.09375" opacity="1.00" d=" M 126.46 157.86 C 131.23 164.02 118.68 165.49 123.83 170.13 C 126.81 172.24 128.16 175.39 127.89 179.19 C 127.96 180.52 127.99 181.86 128.01 183.20 C 121.38 183.63 116.07 175.68 119.65 169.97 C 118.69 166.94 115.24 163.21 118.05 160.25 C 121.51 161.84 125.50 162.70 126.46 157.86 Z" />
</g>
<g id="#8f7f6bff">
<path fill="#8f7f6b" stroke="#8f7f6b" stroke-width="0.09375" opacity="1.00" d=" M 0.00 161.74 C 6.91 160.48 6.95 171.37 2.10 173.80 C 4.10 174.14 6.11 174.47 8.01 175.18 C 8.31 177.93 4.91 180.69 6.79 183.12 C 10.98 186.34 5.41 190.35 8.83 194.06 C 8.56 200.15 14.80 201.70 16.67 206.63 C 29.57 207.48 42.16 207.14 54.98 206.98 C 53.19 209.54 54.50 210.26 58.89 209.15 C 64.75 210.41 53.49 216.63 61.32 216.73 C 53.83 213.80 53.87 221.33 51.21 225.17 C 48.61 226.06 45.57 226.54 45.57 230.00 L 14.58 230.00 C 12.60 228.08 9.89 227.49 7.31 226.84 C 12.06 224.09 3.31 216.25 11.00 217.91 C 4.58 214.62 9.05 206.28 4.33 201.26 C 10.14 200.60 6.20 188.34 0.00 191.03 L 0.00 161.74 Z" />
</g>
<g id="#53524dff">
<path fill="#53524d" stroke="#53524d" stroke-width="0.09375" opacity="1.00" d=" M 75.32 179.34 C 78.94 177.87 74.86 181.85 73.74 182.76 C 69.93 183.90 73.09 179.24 75.32 179.34 Z" />
</g>
<g id="#3b474cff">
<path fill="#3b474c" stroke="#3b474c" stroke-width="0.09375" opacity="1.00" d=" M 101.94 201.15 C 94.53 197.57 98.95 186.09 98.79 179.76 C 98.98 187.02 98.49 194.50 101.94 201.15 Z" />
</g>
<g id="#8d806bff">
<path fill="#8d806b" stroke="#8d806b" stroke-width="0.09375" opacity="1.00" d=" M 145.98 179.75 C 150.54 181.15 152.35 186.11 155.38 189.38 C 158.56 193.87 162.56 187.58 165.72 186.07 C 166.01 188.34 166.38 192.44 169.62 190.57 C 178.09 186.31 186.91 192.09 195.58 190.67 C 197.65 188.53 204.02 185.92 201.02 191.02 C 199.16 191.10 197.39 191.65 195.81 192.64 C 198.68 194.05 205.46 192.60 204.89 196.82 C 199.54 199.04 193.71 196.28 188.25 196.09 C 186.24 197.46 187.92 198.49 189.38 199.40 C 185.82 199.83 182.22 199.78 178.65 200.07 C 172.97 199.41 166.68 197.42 161.34 200.19 C 163.51 207.84 154.17 208.97 148.96 206.80 C 150.12 200.91 152.03 195.16 152.64 189.16 C 150.65 185.87 148.06 182.99 145.98 179.75 Z" />
</g>
<g id="#958775ff">
<path fill="#958775" stroke="#958775" stroke-width="0.09375" opacity="1.00" d=" M 35.40 184.35 C 45.88 180.17 57.34 183.77 68.30 182.08 C 68.92 186.40 72.42 186.44 75.85 185.08 C 75.20 186.75 74.48 188.40 73.84 190.09 C 70.53 190.27 67.14 190.61 64.18 192.24 C 64.85 195.34 65.54 201.08 60.77 200.70 C 56.78 200.04 59.29 204.54 59.09 206.85 C 57.72 206.94 56.35 206.98 54.98 206.98 C 42.16 207.14 29.57 207.48 16.67 206.63 C 14.80 201.70 8.56 200.15 8.83 194.06 C 5.41 190.35 10.98 186.34 6.79 183.12 C 16.31 184.74 26.07 181.99 35.40 184.35 Z" />
</g>
<g id="#7c919eff">
<path fill="#7c919e" stroke="#7c919e" stroke-width="0.09375" opacity="1.00" d=" M 121.97 186.96 C 123.99 186.37 126.02 185.80 127.99 185.07 C 126.35 189.86 128.94 198.10 124.29 201.15 C 124.27 196.02 117.69 191.72 121.97 186.96 Z" />
</g>
<g id="#95a7b2ff">
<path fill="#95a7b2" stroke="#95a7b2" stroke-width="0.09375" opacity="1.00" d=" M 105.71 202.25 C 104.48 196.88 102.72 191.39 103.79 185.83 C 105.26 188.93 107.53 191.99 110.99 192.97 C 114.96 191.53 117.84 187.99 121.97 186.96 C 117.69 191.72 124.27 196.02 124.29 201.15 C 123.89 201.32 123.07 201.67 122.67 201.85 C 120.90 202.11 119.15 202.44 117.39 202.73 C 113.50 202.39 109.61 202.23 105.71 202.25 Z" />
</g>
<g id="#857864ff">
<path fill="#857864" stroke="#857864" stroke-width="0.09375" opacity="1.00" d=" M 201.02 191.02 C 209.14 193.74 216.49 187.89 224.41 190.31 C 227.32 189.44 225.57 193.29 223.65 192.39 C 220.50 192.12 220.67 196.95 219.24 199.04 C 222.56 201.16 226.21 196.41 230.00 199.11 L 230.00 230.00 L 205.46 230.00 C 206.98 227.62 211.60 227.61 210.93 224.17 C 207.07 221.48 204.23 228.00 199.98 226.01 C 186.57 224.30 173.40 227.45 159.96 226.81 C 157.55 226.65 155.39 227.10 155.67 230.00 L 144.83 230.00 C 145.08 222.08 147.61 214.54 148.96 206.80 C 154.17 208.97 163.51 207.84 161.34 200.19 C 166.68 197.42 172.97 199.41 178.65 200.07 C 187.44 203.45 197.77 202.56 206.34 199.08 C 200.68 198.96 195.04 199.48 189.38 199.40 C 187.92 198.49 186.24 197.46 188.25 196.09 C 193.71 196.28 199.54 199.04 204.89 196.82 C 205.46 192.60 198.68 194.05 195.81 192.64 C 197.39 191.65 199.16 191.10 201.02 191.02 M 174.87 207.06 C 175.21 209.99 178.18 211.99 180.96 212.28 C 177.92 218.61 169.81 217.00 163.98 217.81 C 157.79 214.58 159.07 219.22 159.06 221.81 C 167.10 217.91 162.13 228.11 167.21 224.22 C 170.89 218.29 175.99 227.66 180.37 223.43 C 188.62 219.25 203.83 228.54 208.07 217.22 C 203.04 217.35 199.22 213.20 194.04 213.92 C 193.33 211.85 198.09 214.09 196.73 212.07 C 199.55 211.52 205.87 215.04 207.00 209.18 C 202.43 208.00 197.15 207.81 192.92 210.10 C 189.45 203.67 180.55 208.33 174.87 207.06 Z" />
</g>
<g id="#907a59ff">
<path fill="#907a59" stroke="#907a59" stroke-width="0.09375" opacity="1.00" d=" M 64.18 192.24 C 67.14 190.61 70.53 190.27 73.84 190.09 C 73.71 195.51 75.92 200.58 76.79 205.86 C 73.78 215.16 65.67 203.38 59.09 206.85 C 59.29 204.54 56.78 200.04 60.77 200.70 C 65.54 201.08 64.85 195.34 64.18 192.24 Z" />
</g>
<g id="#857055ff">
<path fill="#857055" stroke="#857055" stroke-width="0.09375" opacity="1.00" d=" M 0.00 191.03 C 6.20 188.34 10.14 200.60 4.33 201.26 C 9.05 206.28 4.58 214.62 11.00 217.91 C 3.31 216.25 12.06 224.09 7.31 226.84 C 9.89 227.49 12.60 228.08 14.58 230.00 L 0.00 230.00 L 0.00 191.03 Z" />
</g>
<g id="#6f604aff">
<path fill="#6f604a" stroke="#6f604a" stroke-width="0.09375" opacity="1.00" d=" M 178.65 200.07 C 182.22 199.78 185.82 199.83 189.38 199.40 C 195.04 199.48 200.68 198.96 206.34 199.08 C 197.77 202.56 187.44 203.45 178.65 200.07 Z" />
</g>
<g id="#20170bff">
<path fill="#20170b" stroke="#20170b" stroke-width="0.09375" opacity="1.00" d=" M 103.84 201.94 L 104.74 202.14 C 107.09 206.89 106.19 217.29 112.81 216.94 C 114.69 212.60 113.66 207.66 114.04 203.07 C 114.87 202.99 116.55 202.81 117.39 202.73 C 116.00 211.72 115.55 220.86 114.93 230.00 L 96.77 230.00 C 96.34 224.16 101.28 220.24 103.20 215.15 C 105.16 210.93 102.27 206.26 103.84 201.94 Z" />
</g>
<g id="#3f3427ff">
<path fill="#3f3427" stroke="#3f3427" stroke-width="0.09375" opacity="1.00" d=" M 104.74 202.14 L 105.71 202.25 C 108.47 202.55 111.25 202.91 114.04 203.07 C 113.66 207.66 114.69 212.60 112.81 216.94 C 106.19 217.29 107.09 206.89 104.74 202.14 Z" />
</g>
<g id="#6a6d6cff">
<path fill="#6a6d6c" stroke="#6a6d6c" stroke-width="0.09375" opacity="1.00" d=" M 105.71 202.25 C 109.61 202.23 113.50 202.39 117.39 202.73 C 116.55 202.81 114.87 202.99 114.04 203.07 C 111.25 202.91 108.47 202.55 105.71 202.25 Z" />
</g>
<g id="#3a3122ff">
<path fill="#3a3122" stroke="#3a3122" stroke-width="0.09375" opacity="1.00" d=" M 117.39 202.73 C 119.15 202.44 120.90 202.11 122.67 201.85 C 131.45 207.81 122.23 221.13 126.04 230.00 L 114.93 230.00 C 115.55 220.86 116.00 211.72 117.39 202.73 Z" />
</g>
<g id="#836c4bff">
<path fill="#836c4b" stroke="#836c4b" stroke-width="0.09375" opacity="1.00" d=" M 59.09 206.85 C 65.67 203.38 73.78 215.16 76.79 205.86 C 76.57 214.08 77.67 222.19 80.24 230.00 L 45.57 230.00 C 45.57 226.54 48.61 226.06 51.21 225.17 C 53.87 221.33 53.83 213.80 61.32 216.73 C 53.49 216.63 64.75 210.41 58.89 209.15 C 54.50 210.26 53.19 209.54 54.98 206.98 C 56.35 206.98 57.72 206.94 59.09 206.85 Z" />
</g>
<g id="#7b6d55ff">
<path fill="#7b6d55" stroke="#7b6d55" stroke-width="0.09375" opacity="1.00" d=" M 174.87 207.06 C 180.55 208.33 189.45 203.67 192.92 210.10 C 193.72 211.53 195.16 212.01 196.73 212.07 C 198.09 214.09 193.33 211.85 194.04 213.92 C 199.22 213.20 203.04 217.35 208.07 217.22 C 203.83 228.54 188.62 219.25 180.37 223.43 C 175.99 227.66 170.89 218.29 167.21 224.22 C 162.13 228.11 167.10 217.91 159.06 221.81 C 159.07 219.22 157.79 214.58 163.98 217.81 C 169.81 217.00 177.92 218.61 180.96 212.28 C 178.18 211.99 175.21 209.99 174.87 207.06 Z" />
</g>
<g id="#5f523cff">
<path fill="#5f523c" stroke="#5f523c" stroke-width="0.09375" opacity="1.00" d=" M 192.92 210.10 C 197.15 207.81 202.43 208.00 207.00 209.18 C 205.87 215.04 199.55 211.52 196.73 212.07 C 195.16 212.01 193.72 211.53 192.92 210.10 Z" />
</g>
<g id="#73644eff">
<path fill="#73644e" stroke="#73644e" stroke-width="0.09375" opacity="1.00" d=" M 199.98 226.01 C 204.23 228.00 207.07 221.48 210.93 224.17 C 211.60 227.61 206.98 227.62 205.46 230.00 L 155.67 230.00 C 155.39 227.10 157.55 226.65 159.96 226.81 C 173.40 227.45 186.57 224.30 199.98 226.01 Z" />
</g>
</svg>
