<svg height="42" width="120" xmlns="http://www.w3.org/2000/svg"><g transform="matrix(.99378 0 0 .99367 -437.123 -74.437)"><path d="m443.289 75.367 114.063.202c1.594 0 3.018-.236 3.018 3.181l-.14 37.567h-119.82v-37.707c0-1.685.163-3.243 2.879-3.243z" fill="#aab2ab"/><path d="m558.35 74.911h-116.23a2.264 2.264 0 0 0 -2.261 2.261v39.496c0 .282.228.51.51.51h119.731a.51.51 0 0 0 .51-.51v-39.496a2.264 2.264 0 0 0 -2.26-2.26zm-116.23 1.022h116.23c.683 0 1.238.556 1.238 1.24v27.393h-83.073c-3.045 5.506-8.912 9.245-15.644 9.245-6.735 0-12.6-3.735-15.643-9.245h-4.348v-27.394c0-.683.557-1.24 1.24-1.24z"/><g transform="matrix(.87292 0 0 .87292 50.125 143.214)"><path d="m486.266-55.707c.006 8.681-7.028 15.722-15.708 15.727-8.68.006-15.722-7.027-15.727-15.708v-.019c-.006-8.68 7.028-15.721 15.708-15.727 8.681-.005 15.722 7.028 15.727 15.708v.02z" fill="#fff"/><path d="m483.326-68.509c3.485 3.486 5.228 7.754 5.228 12.802 0 5.05-1.713 9.272-5.139 12.668-3.635 3.576-7.931 5.364-12.89 5.364-4.897 0-9.12-1.773-12.664-5.32-3.546-3.545-5.318-7.782-5.318-12.712 0-4.928 1.772-9.196 5.318-12.802 3.455-3.486 7.677-5.23 12.664-5.23 5.05 0 9.315 1.744 12.8 5.23zm-23.119 2.345c-2.946 2.976-4.42 6.463-4.42 10.462s1.46 7.456 4.375 10.371c2.917 2.917 6.389 4.375 10.417 4.375 4.029 0 7.53-1.473 10.507-4.42 2.826-2.736 4.24-6.177 4.24-10.326 0-4.118-1.437-7.613-4.31-10.484-2.87-2.871-6.349-4.307-10.437-4.307s-7.547 1.443-10.372 4.329zm7.754 8.703c-.45-.981-1.123-1.473-2.022-1.473-1.589 0-2.383 1.07-2.383 3.21 0 2.139.794 3.208 2.383 3.208 1.05 0 1.799-.52 2.248-1.565l2.203 1.173c-1.05 1.866-2.626 2.8-4.725 2.8-1.62 0-2.918-.497-3.893-1.49-.975-.994-1.463-2.363-1.463-4.109 0-1.715.504-3.076 1.508-4.085 1.005-1.008 2.258-1.512 3.758-1.512 2.22 0 3.81.875 4.771 2.623zm10.364 0c-.45-.981-1.112-1.473-1.982-1.473-1.621 0-2.432 1.07-2.432 3.21 0 2.139.81 3.208 2.432 3.208 1.051 0 1.788-.52 2.207-1.565l2.252 1.173c-1.048 1.866-2.621 2.8-4.718 2.8-1.617 0-2.912-.497-3.886-1.49-.972-.994-1.46-2.363-1.46-4.109 0-1.715.494-3.076 1.483-4.085.988-1.008 2.246-1.512 3.774-1.512 2.216 0 3.804.875 4.761 2.623l-2.43 1.22z"/></g><circle cx="491.946" cy="90.232" fill="#fff" r="10.806"/><path d="m495.074 87.105a.754.754 0 0 0 -.754-.754h-4.773a.754.754 0 0 0 -.754.754v4.773h1.332v5.652h3.617v-5.652h1.332z"/><circle cx="491.934" cy="84.09" r="1.632"/><path clip-rule="evenodd" d="m491.918 78.325c-3.231 0-5.967 1.128-8.207 3.384-2.297 2.333-3.446 5.096-3.446 8.285s1.149 5.931 3.446 8.227c2.298 2.294 5.035 3.442 8.207 3.442 3.213 0 5.999-1.157 8.355-3.472 2.22-2.197 3.329-4.93 3.329-8.197 0-3.268-1.129-6.03-3.388-8.285-2.258-2.256-5.023-3.384-8.296-3.384zm.03 2.1c2.65 0 4.897.934 6.747 2.801 1.87 1.847 2.805 4.104 2.805 6.768 0 2.683-.916 4.91-2.747 6.68-1.927 1.906-4.196 2.859-6.804 2.859-2.61 0-4.86-.943-6.748-2.83-1.889-1.886-2.833-4.122-2.833-6.71 0-2.586.954-4.842 2.862-6.767 1.831-1.867 4.07-2.801 6.719-2.801z" fill-rule="evenodd"/><g fill="#fff"><path d="m488.563 107.867c.317 0 .607.029.87.084.26.056.485.148.673.276.186.127.331.296.435.507.102.212.154.473.154.785 0 .335-.076.615-.23.838-.152.225-.379.408-.677.551.412.118.72.325.922.621.204.296.305.653.305 1.07 0 .336-.065.627-.196.873-.131.245-.308.446-.53.601-.22.156-.473.272-.756.346a3.402 3.402 0 0 1 -.875.112h-3.237v-6.664zm-.188 2.695c.262 0 .477-.062.645-.186.169-.124.253-.325.253-.605a.773.773 0 0 0 -.084-.381.63.63 0 0 0 -.225-.234.951.951 0 0 0 -.322-.116 2.18 2.18 0 0 0 -.379-.032h-1.373v1.555h1.485zm.086 2.829c.144 0 .28-.014.412-.042.13-.029.246-.076.346-.14a.709.709 0 0 0 .239-.267.919.919 0 0 0 .088-.428c0-.342-.096-.586-.29-.733-.193-.145-.449-.219-.766-.219h-1.6v1.829zm2.813-5.524h1.643l1.56 2.632 1.552-2.632h1.634l-2.475 4.107v2.557h-1.469v-2.594z"/><path d="m538.916 112.884c.08.155.187.281.32.378.135.096.29.168.472.215.18.046.365.07.558.07.13 0 .27-.01.42-.033.147-.022.287-.064.418-.126a.916.916 0 0 0 .326-.257.649.649 0 0 0 .13-.415.584.584 0 0 0 -.173-.439 1.369 1.369 0 0 0 -.451-.28 4.693 4.693 0 0 0 -.634-.196 16.943 16.943 0 0 1 -.718-.187 6.49 6.49 0 0 1 -.727-.228 2.488 2.488 0 0 1 -.634-.35 1.638 1.638 0 0 1 -.451-.537 1.629 1.629 0 0 1 -.173-.78c0-.342.073-.639.219-.89.146-.253.338-.463.573-.632.236-.168.504-.292.803-.373.298-.08.597-.12.894-.12.349 0 .683.038 1.003.116.32.077.605.204.853.378.249.175.446.398.593.668.145.272.218.6.218.986h-1.422a1.18 1.18 0 0 0 -.125-.495.826.826 0 0 0 -.284-.308 1.18 1.18 0 0 0 -.403-.158 2.463 2.463 0 0 0 -.497-.047 1.73 1.73 0 0 0 -.353.037.94.94 0 0 0 -.32.13.807.807 0 0 0 -.237.234.634.634 0 0 0 -.093.355c0 .13.024.237.074.317.05.081.148.156.294.225.147.068.348.136.606.205.257.068.595.156 1.011.261.124.025.297.07.517.136s.44.17.657.313c.218.143.405.335.565.574.158.24.237.546.237.92 0 .304-.06.588-.178.85a1.838 1.838 0 0 1 -.527.676c-.234.19-.523.338-.868.444s-.744.159-1.2.159c-.367 0-.722-.046-1.068-.136a2.679 2.679 0 0 1 -.914-.426 2.114 2.114 0 0 1 -.63-.74c-.156-.298-.231-.652-.224-1.064h1.421c0 .224.04.415.122.57zm8.256-5.017 2.493 6.664h-1.522l-.504-1.484h-2.492l-.523 1.484h-1.475l2.52-6.664zm.084 4.086-.84-2.443h-.019l-.867 2.443z"/><path d="m512.83 107.867 2.785 4.47h.015v-4.47h1.375v6.664h-1.465l-2.774-4.462h-.018v4.462h-1.375v-6.664h1.458zm9.739 1.776a1.502 1.502 0 0 0 -.77-.616 1.514 1.514 0 0 0 -.518-.09c-.33 0-.61.064-.841.192a1.57 1.57 0 0 0 -.56.513 2.247 2.247 0 0 0 -.313.732 3.636 3.636 0 0 0 0 1.665c.065.265.17.503.313.714.143.212.33.38.56.509.23.128.51.191.84.191.448 0 .799-.137 1.05-.411.253-.273.407-.635.462-1.083h1.42a3.391 3.391 0 0 1 -.29 1.13 2.612 2.612 0 0 1 -1.513 1.403 3.268 3.268 0 0 1 -1.128.188c-.511 0-.97-.09-1.378-.267a2.958 2.958 0 0 1 -1.032-.732 3.253 3.253 0 0 1 -.646-1.098 4.03 4.03 0 0 1 -.225-1.36c0-.497.076-.96.225-1.386.15-.427.365-.799.646-1.116.28-.318.625-.567 1.032-.747.408-.181.867-.27 1.378-.27.367 0 .714.052 1.04.158.327.106.62.26.878.463.259.202.471.453.64.752.167.299.273.642.317 1.027h-1.42a1.205 1.205 0 0 0 -.167-.461z"/></g><g transform="matrix(.625 0 0 .625 152.299 316.933)"><path d="m644.576-363.116c.008 9.412-7.617 17.048-17.03 17.055-9.412.006-17.046-7.617-17.054-17.031v-.024c-.007-9.411 7.619-17.047 17.03-17.055 9.412-.007 17.047 7.619 17.054 17.03z" fill="#fff"/><g transform="translate(-23.952 -89.73)"><path d="m651.364-292.057c-5.172 0-9.55 1.806-13.131 5.414-3.677 3.734-5.516 8.154-5.516 13.257s1.84 9.49 5.516 13.163c3.675 3.671 8.053 5.507 13.131 5.507 5.141 0 9.596-1.852 13.366-5.554 3.552-3.517 5.328-7.889 5.328-13.116 0-5.228-1.806-9.647-5.422-13.257-3.614-3.608-8.037-5.414-13.272-5.414zm.047 3.361c4.238 0 7.835 1.493 10.796 4.482 2.99 2.955 4.486 6.563 4.486 10.828 0 4.294-1.464 7.856-4.394 10.69-3.083 3.048-6.714 4.573-10.888 4.573-4.175 0-7.773-1.51-10.795-4.528-3.022-3.019-4.533-6.596-4.533-10.735 0-4.14 1.525-7.749 4.58-10.828 2.928-2.989 6.51-4.482 10.748-4.482z"/><path d="m643.09-276.02c.743-4.699 4.05-7.21 8.195-7.21 5.959 0 9.592 4.325 9.592 10.092 0 5.628-3.866 9.999-9.686 9.999-4.005 0-7.59-2.463-8.242-7.301h4.703c.14 2.511 1.77 3.395 4.098 3.395 2.653 0 4.377-2.464 4.377-6.232 0-3.954-1.49-6.046-4.285-6.046-2.048 0-3.817.745-4.19 3.303l1.367-.01-3.702 3.703-3.701-3.703 1.473.01z"/></g></g><g transform="matrix(1.14682 0 0 1.14682 -85.925 166.153)"><path d="m536.237-66.415c.004 5.229-4.232 9.468-9.458 9.473-5.228.003-9.47-4.231-9.473-9.459v-.014c-.004-5.227 4.231-9.467 9.458-9.472 5.228-.004 9.47 4.232 9.473 9.459z" fill="#fff"/><path d="m526.758-76.59c2.853 0 5.264.984 7.233 2.95 1.97 1.968 2.955 4.377 2.955 7.225 0 2.85-.968 5.232-2.903 7.149-2.055 2.018-4.483 3.026-7.285 3.026-2.767 0-5.153-1-7.156-3.001-2.004-2-3.006-4.392-3.006-7.174 0-2.78 1.002-5.19 3.006-7.224 1.952-1.967 4.338-2.95 7.156-2.95zm-7.872 7.442a8.126 8.126 0 0 0 -.456 2.733c0 2.256.824 4.206 2.47 5.85 1.647 1.646 3.608 2.468 5.884 2.468 2.275 0 4.253-.83 5.934-2.493a7.855 7.855 0 0 0 1.39-1.78l-3.835-1.708c-.26 1.291-1.41 2.163-2.801 2.265v1.57h-1.168v-1.57c-1.142-.013-2.245-.48-3.089-1.218l1.402-1.413c.675.635 1.35.92 2.27.92.598 0 1.26-.233 1.26-1.012a.76.76 0 0 0 -.275-.61l-.97-.433-1.208-.538c-.598-.266-1.104-.49-1.611-.717zm7.898-5.61c-2.31 0-4.261.814-5.858 2.442a9.39 9.39 0 0 0 -1.133 1.375l3.89 1.731c.351-1.079 1.376-1.733 2.62-1.806v-1.57h1.169v1.57a4.39 4.39 0 0 1 2.557.933l-1.337 1.374c-.494-.35-1.116-.596-1.74-.596-.505 0-1.219.155-1.219.79a.41.41 0 0 0 .091.258l1.301.58.88.392 1.635.727 5.214 2.322c.172-.683.258-1.41.258-2.179 0-2.324-.815-4.29-2.444-5.9-1.614-1.63-3.575-2.443-5.884-2.443z"/></g></g></svg>